<?xml version="1.0" standalone="no"?>
<!DOCTYPE svg PUBLIC "-//W3C//DTD SVG 20010904//EN"
 "http://www.w3.org/TR/2001/REC-SVG-20010904/DTD/svg10.dtd">
<svg version="1.0" xmlns="http://www.w3.org/2000/svg"
 width="16.000000pt" height="16.000000pt" viewBox="0 0 16.000000 16.000000"
 preserveAspectRatio="xMidYMid meet">
<metadata>
Created by potrace 1.11, written by Peter Selinger 2001-2013
</metadata>
<g transform="translate(0.000000,16.000000) scale(0.002667,-0.002667)"
fill="#000000" stroke="none">
<path d="M0 3000 l0 -3000 3000 0 3000 0 0 3000 0 3000 -3000 0 -3000 0 0
-3000z m4662 1550 c119 -37 198 -105 252 -220 l31 -65 0 -1255 0 -1255 -27
-58 c-38 -80 -117 -160 -197 -200 l-66 -32 -1070 -3 -1070 -3 -440 -394 -440
-393 -5 391 -5 392 -135 5 c-121 5 -141 9 -192 33 -116 57 -202 164 -228 287
-8 41 -10 372 -8 1265 l3 1210 23 58 c27 66 113 165 176 202 96 56 17 54 1742
54 1558 1 1593 1 1656 -19z"/>
<path d="M3309 3503 c-310 -350 -569 -644 -575 -652 -9 -12 -66 34 -324 263
-172 152 -317 275 -321 274 -9 -3 -419 -465 -419 -472 0 -5 57 -55 605 -541
198 -175 392 -347 431 -382 l70 -62 245 276 c134 152 488 553 787 891 299 338
542 618 540 623 -3 9 -464 419 -471 419 -3 0 -258 -287 -568 -637z"/>
</g>
</svg>
