<?xml version="1.0" encoding="utf-8"?>
<!-- Generator: Adobe Illustrator 24.3.0, SVG Export Plug-In . SVG Version: 6.00 Build 0)  -->
<svg version="1.1" id="Layer_1" xmlns="http://www.w3.org/2000/svg" xmlns:xlink="http://www.w3.org/1999/xlink" x="0px" y="0px"
	 viewBox="0 0 1200 323" style="enable-background:new 0 0 1200 323;" xml:space="preserve">
<style type="text/css">
	.st0{fill:#2BECB4;}
	.st1{fill:#EE3559;}
	.st2{fill:#2D2D63;}
	.st3{fill:#3838C5;}
	.st4{fill:#F1A520;}
	.st5{fill:#3BBBA0;}
	.st6{fill:#201D50;}
</style>
<g>
	<path class="st0" d="M177.4,171.1l-55.1,74c-5.2,7-16.3,10.7-24.1,6.8c-0.3-0.1-0.6-0.3-0.9-0.4c-7.8-3.9-12.2-15.2-10.6-23.7
		l16.2-88.6c1.6-8.6,9.3-12.7,17.3-9.3l52.1,22.4C180.4,155.7,182.7,164.1,177.4,171.1z"/>
</g>
<g>
	<path class="st1" d="M77,88.2c7.2-6.1,15.4-11.3,24.6-15.3c0.9-0.4,1.7-0.7,2.6-1.1c1.5-0.6,1.4,5.9-0.2,14.5L101.9,98
		c-1.6,8.6-9.3,12.7-17.3,9.3l-4.1-1.8C72.4,102.1,70.4,93.8,77,88.2z"/>
</g>
<g>
	<path class="st2" d="M177.2,144.3l-55.5-23.8c-8-3.4-13.2-13.2-11.7-21.7l3.2-17.8c1.6-8.6,9.7-17.5,18.3-18.5
		c31.1-3.4,62.2,8.3,83.4,31.2c5.9,6.4,5.6,18,0.3,25l-14.3,19.2C195.9,144.9,185.2,147.8,177.2,144.3z"/>
	<path class="st2" d="M184.6,146.2c-2.6,0-5.2-0.5-7.5-1.5l-55.5-23.8c-8.2-3.5-13.5-13.5-11.9-22.2l3.2-17.8
		c1.5-8.3,9.4-17.8,18.7-18.8c31.1-3.4,62.5,8.3,83.8,31.3c5.8,6.3,6,18,0.4,25.5l-14.3,19.2C197.7,143.2,191,146.2,184.6,146.2z
		 M142.2,62.4c-3.5,0-7,0.2-10.5,0.6c-7.2,0.8-16.2,8.2-18,18.1l-3.2,17.8c-1.5,8.4,3.6,17.9,11.4,21.3l55.5,23.8
		c7.8,3.4,18.3,0.5,23.4-6.3l14.3-19.2c5.3-7.1,5.2-18.6-0.3-24.5C196.1,73.8,169.5,62.4,142.2,62.4z"/>
</g>
<g>
	<path class="st3" d="M94.5,135.2l-15.8,86.2c-1.6,8.6-8.3,10.9-13.9,4.3c-5.8-7-10.8-14.9-14.6-23.7c-12.4-28.2-10.6-59,2.2-84.6
		c3.9-7.8,14.7-10.7,22.7-7.3l7.7,3.3C90.8,116.9,96,126.6,94.5,135.2z"/>
</g>
<g>
	<path class="st4" d="M209.6,167.1l16.6,7.1c8,3.4,13.3,13.2,10.3,21.4c-8.9,24.8-27.6,46-53.6,57.4c-14.8,6.5-30.4,9.1-45.5,8.2
		c-8.7-0.5-11.4-7.8-6.2-14.8l54.4-72.9C190.9,166.6,201.6,163.7,209.6,167.1z"/>
</g>
<g>
	<path class="st5" d="M208.6,143l11.3-15.1c5.2-7,10.4-10.9,11.5-8.6c0.7,1.4,1.3,2.7,1.9,4.1c4.9,11.3,7.6,23,8.2,34.5
		c0.5,8.7-6.9,13-14.9,9.5l-13-5.6C205.7,158.5,203.4,150,208.6,143z"/>
</g>
<path class="st6" d="M294.1,167.2V79.6h24.8c9.2,0,16.6,2.4,22.1,7.2c5.5,4.8,8.3,11.3,8.3,19.5c0,8.1-2.8,14.6-8.3,19.5
	s-12.9,7.3-22.1,7.3h-13.6v34h-11.2V167.2z M305.3,122.8h13.2c6.2,0,11-1.4,14.3-4.3c3.3-2.8,4.9-6.9,4.9-12.1s-1.6-9.2-4.9-12.1
	s-8.1-4.3-14.3-4.3h-13.2V122.8z"/>
<path class="st6" d="M364.9,167.2v-61.6h10.6v7.3c4.2-5.3,9.9-7.9,17-7.9c1.6,0,3,0.1,4.3,0.4v11c-1.7-0.5-3.7-0.7-5.9-0.7
	c-3.5,0-6.6,0.8-9.3,2.5c-2.8,1.7-4.8,4.1-6.1,7.2v41.9h-10.6V167.2z"/>
<path class="st6" d="M456.4,167.2V161c-5.3,4.8-11.8,7.2-19.6,7.2c-9,0-16.5-3.1-22.5-9.2c-6-6.1-8.9-13.7-8.9-22.6
	c0-9,3-16.5,8.9-22.6c6-6.1,13.5-9.2,22.5-9.2c7.8,0,14.3,2.4,19.6,7.2v-6.2H467v61.6H456.4z M437,158.2c4.3,0,8.1-0.9,11.5-2.7
	s6-4.2,7.9-7.3v-23.7c-1.9-3-4.5-5.5-7.9-7.3s-7.2-2.7-11.5-2.7c-6,0-11,2.1-14.9,6.3c-3.9,4.2-5.9,9.4-5.9,15.5
	c0,6.2,2,11.3,5.9,15.5C426.1,156.1,431,158.2,437,158.2z"/>
<path class="st6" d="M516.1,168.2c-9,0-16.6-3.1-22.6-9.2c-6-6.1-9.1-13.7-9.1-22.6c0-9,3-16.5,9.1-22.6c6-6.1,13.6-9.2,22.6-9.2
	c9.4,0,17.2,3.2,23.5,9.7l-6.8,7.4c-4.8-4.8-10.4-7.2-16.8-7.2c-6,0-11,2.1-14.9,6.3c-3.9,4.2-5.9,9.4-5.9,15.5
	c0,6.2,2,11.3,5.9,15.5s8.9,6.3,14.9,6.3c6.4,0,12-2.4,16.8-7.1l6.8,7.4C533.3,164.9,525.4,168.2,516.1,168.2z"/>
<path class="st6" d="M516.1,168.6c-9.1,0-16.8-3.1-22.9-9.3s-9.2-13.9-9.2-22.9s3.1-16.7,9.2-22.9c6.1-6.2,13.8-9.3,22.9-9.3
	c9.4,0,17.5,3.3,23.8,9.9l0.3,0.3l-7.3,8l-0.3-0.3c-4.7-4.7-10.2-7-16.5-7c-5.9,0-10.8,2.1-14.6,6.2c-3.8,4.1-5.7,9.2-5.7,15.3
	c0,6,1.9,11.2,5.7,15.3c3.8,4.1,8.7,6.2,14.6,6.2c6.3,0,11.8-2.4,16.5-7l0.3-0.3l7.3,8l-0.3,0.3
	C533.5,165.2,525.5,168.6,516.1,168.6z"/>
<path class="st6" d="M577.9,167.2c-6,0-10.6-1.5-13.8-4.6c-3.2-3-4.8-7.5-4.8-13.3v-34.2h-9.9l-2.3-9.6h12.2V92.3l10.6-5.3v18.5
	h18.6l-2.3,9.6h-16.3v32.5c0,3.3,0.7,5.8,2.1,7.4c1.4,1.6,3.7,2.5,7,2.5h8.3v9.6L577.9,167.2L577.9,167.2z"/>
<path class="st6" d="M603.3,92.1c-1.6-1.4-2.3-3.3-2.3-5.7c0-2.1,0.7-4,2.2-5.5s3.3-2.3,5.4-2.3c2.1,0,3.9,0.8,5.4,2.3
	s2.2,3.4,2.2,5.5c0,2.4-0.8,4.3-2.3,5.7H603.3z M603.3,167.2v-61.6H614v61.6H603.3z"/>
<path class="st6" d="M663,168.2c-9,0-16.6-3.1-22.6-9.2c-6-6.1-9.1-13.7-9.1-22.6c0-9,3-16.5,9.1-22.6c6-6.1,13.6-9.2,22.6-9.2
	c9.4,0,17.2,3.2,23.6,9.7l-6.8,7.4c-4.8-4.8-10.4-7.2-16.8-7.2c-6,0-11,2.1-14.9,6.3c-3.9,4.2-5.9,9.4-5.9,15.5
	c0,6.2,2,11.3,5.9,15.5s8.9,6.3,14.9,6.3c6.4,0,12-2.4,16.8-7.1l6.8,7.4C680.2,164.9,672.4,168.2,663,168.2z"/>
<path class="st6" d="M728.7,168.2c-9,0-16.6-3.1-22.6-9.2c-6-6.1-9.1-13.7-9.1-22.6c0-9,3-16.5,9-22.6s13.3-9.2,21.9-9.2
	c9.1,0,16.4,3.2,21.9,9.6s8.2,14.7,8.2,24.8h-50c0.6,5.8,2.8,10.4,6.8,13.9s8.6,5.3,13.9,5.3c7.1,0,13.1-2.5,18-7.4l6.8,7.4
	C747.2,164.8,738.9,168.2,728.7,168.2z M727.4,114.3c-4.2,0-8.1,1.3-11.7,3.9c-3.6,2.6-5.9,6.4-7.1,11.5h37.5
	c-0.7-4.9-2.8-8.8-6.3-11.5C736.4,115.5,732.2,114.2,727.4,114.3z"/>
<path class="st6" d="M797.7,168.2c-6.1,0-11.7-1.3-16.8-3.8s-9-5.8-11.7-9.7l8.5-7.4c2.3,3,5.2,5.4,8.6,7.3
	c3.5,1.9,7.2,2.9,11.2,2.9c5.1,0,9.1-1.1,12.1-3.3s4.4-5.2,4.4-9c0-3.9-1.2-7-3.5-9.4s-5.9-4.7-10.9-6.8l-8-3.5
	c-12.7-5.4-19.1-13.7-19.1-24.8c0-6.4,2.6-11.7,7.7-15.8c5.1-4.1,11.1-6.2,17.8-6.2c10.2,0,18.4,3.7,24.5,11.2l-7.9,7.9
	c-4.7-5.6-10.4-8.4-17-8.4c-3.9,0-7.2,1-9.9,3.1s-4.1,4.9-4.1,8.4c0,3.2,1,6,3,8.3s5.3,4.5,9.9,6.5l8,3.5
	c13.7,6,20.6,14.3,20.6,24.8c0,7.2-2.5,13.1-7.5,17.6C812.9,165.9,806.1,168.2,797.7,168.2z"/>
<path class="st6" d="M870.2,168.2c-9,0-16.6-3.1-22.6-9.2c-6-6.1-9.1-13.7-9.1-22.6c0-9,3-16.5,9-22.6s13.3-9.2,21.9-9.2
	c9.1,0,16.4,3.2,21.9,9.6s8.2,14.7,8.2,24.8h-50.1c0.6,5.8,2.8,10.4,6.8,13.9c3.9,3.5,8.6,5.3,13.9,5.3c7.1,0,13.1-2.5,18-7.4
	l6.8,7.4C888.6,164.8,880.4,168.2,870.2,168.2z M868.8,114.3c-4.2,0-8.1,1.3-11.7,3.9c-3.6,2.6-5.9,6.4-7.1,11.5h37.5
	c-0.7-4.9-2.8-8.8-6.3-11.5C877.8,115.5,873.7,114.2,868.8,114.3z"/>
<path class="st6" d="M943.4,168.2c-9,0-16.6-3.1-22.6-9.2c-6-6.1-9.1-13.7-9.1-22.6c0-9,3-16.5,9.1-22.6c6-6.1,13.6-9.2,22.6-9.2
	c9.4,0,17.2,3.2,23.6,9.7l-6.8,7.4c-4.8-4.8-10.4-7.2-16.8-7.2c-6,0-11,2.1-14.9,6.3c-3.9,4.2-5.9,9.4-5.9,15.5
	c0,6.2,2,11.3,5.9,15.5s8.9,6.3,14.9,6.3c6.4,0,12-2.4,16.8-7.1l6.8,7.4C960.6,164.9,952.8,168.2,943.4,168.2z"/>
<path class="st6" d="M1024.8,167.2v-6.9c-4.3,5.3-10.6,7.9-19,7.9c-7.1,0-12.8-2.3-17.2-6.8c-4.4-4.6-6.6-10.6-6.6-18.2v-37.6h10.6
	v37c0,4.6,1.4,8.4,4.2,11.3c2.8,2.9,6.5,4.4,11.2,4.4c8.5,0,14.1-4.1,16.8-12.3v-40.3h10.6v61.6L1024.8,167.2L1024.8,167.2z"/>
<path class="st6" d="M1057,167.2v-61.6h10.6v7.3c4.2-5.3,9.9-7.9,17-7.9c1.6,0,3,0.1,4.3,0.4v11c-1.7-0.5-3.7-0.7-5.9-0.7
	c-3.5,0-6.6,0.8-9.3,2.5c-2.8,1.7-4.8,4.1-6.1,7.2v41.9H1057V167.2z"/>
<path class="st6" d="M1128.8,168.2c-9,0-16.6-3.1-22.6-9.2c-6-6.1-9.1-13.7-9.1-22.6c0-9,3-16.5,9-22.6s13.3-9.2,21.9-9.2
	c9.1,0,16.4,3.2,21.9,9.6s8.2,14.7,8.2,24.8H1108c0.6,5.8,2.8,10.4,6.8,13.9s8.6,5.3,13.9,5.3c7.1,0,13.1-2.5,18-7.4l6.8,7.4
	C1147.3,164.8,1139,168.2,1128.8,168.2z M1127.5,114.3c-4.2,0-8.1,1.3-11.7,3.9s-5.9,6.4-7.1,11.5h37.5c-0.7-4.9-2.8-8.8-6.3-11.5
	C1136.5,115.5,1132.3,114.2,1127.5,114.3z"/>
<g>
	<path class="st6" d="M301.5,240.5v-31.2h-10.1v-4.4h24.8v4.4h-10.1v31.2H301.5z"/>
</g>
<g>
	<path class="st6" d="M322,240.5v-35.6h4.3v13.4c1.7-2.2,4.3-3.3,7.8-3.3c2.9,0,5.2,0.9,7,2.8c1.8,1.9,2.7,4.3,2.7,7.4v15.3h-4.3
		v-15c0-1.9-0.6-3.4-1.7-4.6c-1.1-1.2-2.7-1.8-4.6-1.8c-1.7,0-3.2,0.5-4.4,1.4c-1.2,0.9-2,2.2-2.5,3.8v16.2L322,240.5L322,240.5z"/>
</g>
<g>
	<path class="st6" d="M363.4,240.9c-3.7,0-6.7-1.2-9.2-3.7s-3.7-5.6-3.7-9.2c0-3.6,1.2-6.7,3.7-9.2c2.4-2.5,5.4-3.7,8.9-3.7
		c3.7,0,6.7,1.3,8.9,3.9c2.2,2.6,3.3,6,3.3,10.1H355c0.2,2.3,1.2,4.2,2.8,5.7c1.6,1.4,3.5,2.2,5.7,2.2c2.9,0,5.3-1,7.3-3l2.8,3
		C370.9,239.5,367.6,240.9,363.4,240.9z M362.9,219c-1.7,0-3.3,0.5-4.7,1.6c-1.5,1.1-2.4,2.6-2.9,4.7h15.2c-0.3-2-1.2-3.6-2.6-4.7
		C366.5,219.5,364.8,219,362.9,219z"/>
</g>
<g>
	<path class="st6" d="M396.8,240.5v-35.6h20.6v4.4h-16v10.8h13v4.4h-13v11.6h16v4.4L396.8,240.5L396.8,240.5z"/>
</g>
<g>
	<path class="st6" d="M424.9,240.5v-35.6h4.3v35.6H424.9z"/>
</g>
<g>
	<path class="st6" d="M438,210c-0.6-0.6-1-1.3-1-2.3c0-0.9,0.3-1.6,0.9-2.2c0.6-0.6,1.3-0.9,2.2-0.9s1.6,0.3,2.2,0.9
		c0.6,0.6,0.9,1.4,0.9,2.2c0,1-0.3,1.7-1,2.3H438z M438,240.5v-25.1h4.3v25.1H438z"/>
</g>
<g>
	<path class="st6" d="M460.2,240.5c-2.4,0-4.3-0.6-5.6-1.9c-1.3-1.2-2-3-2-5.4v-13.9h-4l-1-3.9h5V210l4.3-2.2v7.5h7.6l-1,3.9H457
		v13.2c0,1.3,0.3,2.3,0.9,3s1.5,1,2.9,1h3.4v3.9h-4V240.5z"/>
</g>
<g>
	<path class="st6" d="M481.2,240.9c-3.7,0-6.7-1.2-9.2-3.7s-3.7-5.6-3.7-9.2c0-3.6,1.2-6.7,3.7-9.2c2.4-2.5,5.4-3.7,8.9-3.7
		c3.7,0,6.7,1.3,8.9,3.9c2.2,2.6,3.3,6,3.3,10.1h-20.4c0.2,2.3,1.2,4.2,2.8,5.7c1.6,1.4,3.5,2.2,5.7,2.2c2.9,0,5.3-1,7.3-3l2.8,3
		C488.7,239.5,485.3,240.9,481.2,240.9z M480.6,219c-1.7,0-3.3,0.5-4.7,1.6c-1.5,1.1-2.4,2.6-2.9,4.7h15.2c-0.3-2-1.2-3.6-2.6-4.7
		C484.3,219.5,482.6,219,480.6,219z"/>
</g>
<g>
	<path class="st6" d="M544.5,240.9l-25.4-25.7v25.3h-4.6v-36l25.4,25.7v-25.3h4.6V240.9z"/>
</g>
<g>
	<path class="st6" d="M565.1,240.9c-3.7,0-6.7-1.2-9.2-3.7s-3.7-5.6-3.7-9.2c0-3.6,1.2-6.7,3.7-9.2c2.4-2.5,5.4-3.7,8.9-3.7
		c3.7,0,6.7,1.3,8.9,3.9c2.2,2.6,3.3,6,3.3,10.1h-20.4c0.2,2.3,1.2,4.2,2.8,5.7c1.6,1.4,3.5,2.2,5.7,2.2c2.9,0,5.3-1,7.3-3l2.8,3
		C572.6,239.5,569.2,240.9,565.1,240.9z M564.5,219c-1.7,0-3.3,0.5-4.7,1.6c-1.5,1.1-2.4,2.6-2.9,4.7h15.2c-0.3-2-1.2-3.6-2.6-4.7
		C568.2,219.5,566.5,219,564.5,219z"/>
</g>
<g>
	<path class="st6" d="M592.5,240.9l-13.2-25.5h4.9l8.4,16.9l8.4-16.9h4.9L592.5,240.9z"/>
</g>
<g>
	<path class="st6" d="M621.1,240.9c-3.7,0-6.7-1.2-9.2-3.7s-3.7-5.6-3.7-9.2c0-3.6,1.2-6.7,3.7-9.2c2.4-2.5,5.4-3.7,8.9-3.7
		c3.7,0,6.7,1.3,8.9,3.9c2.2,2.6,3.3,6,3.3,10.1h-20.4c0.2,2.3,1.2,4.2,2.8,5.7c1.6,1.4,3.5,2.2,5.7,2.2c2.9,0,5.3-1,7.3-3l2.8,3
		C628.6,239.5,625.2,240.9,621.1,240.9z M620.5,219c-1.7,0-3.3,0.5-4.7,1.6s-2.4,2.6-2.9,4.7h15.2c-0.3-2-1.2-3.6-2.6-4.7
		C624.2,219.5,622.5,219,620.5,219z"/>
</g>
<g>
	<path class="st6" d="M639.7,240.5v-25.1h4.3v3c1.7-2.1,4-3.2,6.9-3.2c0.6,0,1.2,0,1.8,0.2v4.5c-0.7-0.2-1.5-0.3-2.4-0.3
		c-1.4,0-2.7,0.3-3.8,1s-1.9,1.7-2.5,2.9v17L639.7,240.5L639.7,240.5z"/>
</g>
<g>
	<path class="st6" d="M687.8,240.9c-5.1,0-9.4-1.7-12.9-5.2s-5.3-7.8-5.3-13c0-5.1,1.8-9.5,5.3-13s7.8-5.2,12.9-5.2
		c2.7,0,5.2,0.5,7.6,1.6c2.4,1.1,4.4,2.5,5.8,4.2l-3.3,2.9c-2.6-2.9-6-4.3-10.2-4.3c-3.9,0-7.1,1.3-9.7,4c-2.6,2.7-3.9,5.9-3.9,9.9
		c0,3.9,1.3,7.2,3.9,9.9c2.6,2.7,5.8,4,9.7,4c3.8,0,6.8-0.9,9.1-2.7v-9.4h-10.9l2-4.4h13.5V236c-1.2,1.3-3,2.5-5.5,3.5
		C693.4,240.4,690.7,240.9,687.8,240.9z"/>
</g>
<g>
	<path class="st6" d="M730.1,237.2c-2.5,2.5-5.6,3.7-9.3,3.7s-6.9-1.2-9.3-3.7c-2.5-2.5-3.7-5.6-3.7-9.2c0-3.6,1.2-6.7,3.7-9.2
		s5.6-3.7,9.3-3.7s6.8,1.2,9.3,3.7s3.7,5.6,3.7,9.2C733.8,231.6,732.6,234.7,730.1,237.2z M714.7,234.3c1.6,1.7,3.7,2.6,6.2,2.6
		s4.6-0.8,6.1-2.5c1.6-1.7,2.4-3.8,2.4-6.3s-0.8-4.7-2.4-6.3c-1.6-1.7-3.6-2.5-6.1-2.5s-4.6,0.9-6.2,2.6c-1.6,1.7-2.4,3.8-2.4,6.3
		C712.2,230.5,713.1,232.6,714.7,234.3z"/>
</g>
<g>
	<path class="st6" d="M748.9,240.5l17.3-36l17.3,36h-4.9l-4.4-9.3h-16l-4.4,9.3H748.9z M760.2,227h12l-6-12.7L760.2,227z"/>
</g>
<g>
	<path class="st6" d="M788.2,240.5v-35.6h4.3v35.6H788.2z"/>
</g>
<g>
	<path class="st6" d="M821.9,237.2c-2.5,2.5-5.6,3.7-9.3,3.7s-6.9-1.2-9.3-3.7c-2.5-2.5-3.7-5.6-3.7-9.2c0-3.6,1.2-6.7,3.7-9.2
		s5.6-3.7,9.3-3.7s6.8,1.2,9.3,3.7s3.7,5.6,3.7,9.2C825.6,231.6,824.4,234.7,821.9,237.2z M806.5,234.3c1.6,1.7,3.7,2.6,6.2,2.6
		s4.6-0.8,6.1-2.5c1.6-1.7,2.4-3.8,2.4-6.3s-0.8-4.7-2.4-6.3c-1.6-1.7-3.6-2.5-6.1-2.5s-4.6,0.9-6.2,2.6c-1.6,1.7-2.4,3.8-2.4,6.3
		C804.1,230.5,804.9,232.6,806.5,234.3z"/>
</g>
<g>
	<path class="st6" d="M832.7,240.5v-25.1h4.3v2.9c1.7-2.2,4.3-3.3,7.8-3.3c2.9,0,5.2,0.9,7,2.8c1.8,1.9,2.7,4.3,2.7,7.4v15.3h-4.3
		v-15c0-1.9-0.6-3.4-1.7-4.6c-1.1-1.2-2.7-1.8-4.6-1.8c-1.7,0-3.2,0.5-4.4,1.4s-2,2.2-2.5,3.8v16.2L832.7,240.5L832.7,240.5z"/>
</g>
<g>
	<path class="st6" d="M874.2,240.9c-3.7,0-6.7-1.2-9.2-3.7s-3.7-5.6-3.7-9.2c0-3.6,1.2-6.7,3.7-9.2c2.4-2.5,5.4-3.7,8.9-3.7
		c3.7,0,6.7,1.3,8.9,3.9c2.2,2.6,3.3,6,3.3,10.1h-20.4c0.2,2.3,1.2,4.2,2.8,5.7c1.6,1.4,3.5,2.2,5.7,2.2c2.9,0,5.3-1,7.3-3l2.8,3
		C881.7,239.5,878.3,240.9,874.2,240.9z M873.6,219c-1.7,0-3.3,0.5-4.7,1.6s-2.4,2.6-2.9,4.7h15.2c-0.3-2-1.2-3.6-2.6-4.7
		C877.3,219.5,875.6,219,873.6,219z"/>
</g>
<g>
	<path class="st6" d="M897.9,239.8c-0.7,0.7-1.6,1.1-2.6,1.1s-1.9-0.4-2.6-1.1c-0.7-0.7-1.1-1.6-1.1-2.6s0.4-1.9,1.1-2.6
		c0.7-0.7,1.6-1.1,2.6-1.1s1.9,0.4,2.6,1.1c0.7,0.7,1.1,1.6,1.1,2.6S898.6,239.1,897.9,239.8z"/>
</g>
</svg>
