<svg id="redux" xmlns="http://www.w3.org/2000/svg" width="799.875" height="190.39" viewBox="0 0 4050 964">
  <metadata><?xpacket begin="﻿" id="W5M0MpCehiHzreSzNTczkc9d"?>
<x:xmpmeta xmlns:x="adobe:ns:meta/" x:xmptk="Adobe XMP Core 5.6-c138 79.159824, 2016/09/14-01:09:01        ">
   <rdf:RDF xmlns:rdf="http://www.w3.org/1999/02/22-rdf-syntax-ns#">
      <rdf:Description rdf:about=""/>
   </rdf:RDF>
</x:xmpmeta>
                                                                                                    
                                                                                                    
                                                                                                    
                                                                                                    
                                                                                                    
                                                                                                    
                                                                                                    
                                                                                                    
                                                                                                    
                                                                                                    
                                                                                                    
                                                                                                    
                                                                                                    
                                                                                                    
                                                                                                    
                                                                                                    
                                                                                                    
                                                                                                    
                                                                                                    
                                                                                                    
                           
<?xpacket end="w"?></metadata>
<defs>
    <style>
      .cls-1, .cls-2 {
        fill: #fff;
      }

      .cls-1, .cls-3 {
        fill-rule: evenodd;
      }

      .cls-3 {
        fill: #2a8dca;
      }
    </style>
  </defs>
  <path class="cls-1" d="M140,963.679l0.369-403.693L367,762,140.368,964.008Z"/>
  <rect class="cls-2" width="962" height="769" rx="100" ry="100"/>
  <path class="cls-3" d="M695.822,104.572L814.906,209.928,423.961,651.812,304.877,546.455Z"/>
  <path id="Rectangle_3_copy" data-name="Rectangle 3 copy" class="cls-3" d="M254.45,289.546L529.317,532.728,423.961,651.812,149.094,408.63Z"/>
  <path id="DoneDesk_copy" data-name="DoneDesk copy" class="cls-1" d="M1131.15,690.542h142.78c142.05,0,237.23-77.691,237.23-243.432s-95.18-238.992-243.17-238.992H1131.15V690.542Zm109.32-88.05V296.168h20.82c82.55,0,137.58,35.516,137.58,150.942s-55.03,155.382-137.58,155.382h-20.82Zm295.28-95.449c0,122.086,86.27,192.378,179.97,192.378,92.96,0,179.22-70.292,179.22-192.378s-86.26-192.377-179.22-192.377C1622.02,314.666,1535.75,384.958,1535.75,507.043Zm112.3,0c0-63.632,22.31-104.328,67.67-104.328,44.62,0,67.67,40.7,67.67,104.328s-23.05,104.328-67.67,104.328C1670.36,611.371,1648.05,570.676,1648.05,507.043Zm284.86,183.5h109.32V442.671c23.8-22.937,40.9-35.516,68.42-35.516,31.23,0,45.36,16.278,45.36,69.552V690.542h109.32V462.648c0-91.749-34.21-147.982-114.53-147.982-49.82,0-87,25.9-118.24,55.493h-2.97l-7.44-46.614h-89.24v367Zm366.67-183.5c0,121.346,81.06,192.378,186.66,192.378,43.87,0,92.96-15.538,130.88-41.435l-36.44-65.853c-26.77,16.278-52.05,24.418-79.57,24.418-49.08,0-86.26-24.418-95.93-79.911h220.87c2.23-8.879,4.46-26.637,4.46-45.875,0-99.888-52.06-176.1-156.91-176.1C2385.1,314.666,2299.58,387.917,2299.58,507.043Zm104.85-37.735c7.44-48.835,37.19-71.772,71.4-71.772,43.87,0,61.72,29.6,61.72,71.772H2404.43Zm288.58,221.234h114.53c150.22,0,221.61-97.669,221.61-245.651,0-147.243-71.39-241.952-222.36-241.952H2693.01v487.6Zm34.21-28.857V231.8h75.85c133.12,0,190.38,86.57,190.38,213.1,0,127.265-57.26,216.794-190.38,216.794h-75.85ZM3071.58,513.7c0,116.166,73.62,185.718,165.09,185.718,52.06,0,84.04-17.758,112.3-34.776l-13.39-25.157c-26.77,19.238-57.26,31.816-95.93,31.816-80.32,0-133.12-64.372-134.61-153.9h257.31c1.49-8.879,1.49-17.758,1.49-26.637,0-104.328-52.06-164.261-136.84-164.261C3147.43,326.5,3071.58,397.536,3071.58,513.7Zm33.46-21.458c7.44-85.09,61.73-137.624,122.71-137.624,63.95,0,104.85,46.615,104.85,137.624H3105.04Zm273.7,158.342c31.98,26.636,78.08,48.834,130.88,48.834,77.35,0,120.48-46.615,120.48-99.889,0-69.551-60.98-88.049-116.76-108.767-42.39-15.538-84.03-31.076-84.03-71.771,0-32.557,25.28-64.373,80.31-64.373,36.44,0,61.73,14.058,85.53,31.816l17.84-22.937c-26.02-21.457-63.95-37-101.88-37-74.36,0-115.27,42.915-115.27,94.709,0,60.673,59.5,82.131,113.78,101.368,40.91,14.8,87.01,34.037,87.01,78.431,0,37.736-29,70.292-84.77,70.292-51.32,0-83.29-19.978-113.79-45.135Zm308.65,39.955h32.72V593.613l80.32-93.229,118.24,190.158h36.44L3819.76,475.967l116.02-140.584h-37.93L3721.6,550.7h-1.49V158.544h-32.72v532Z"/>
</svg>
