<svg id="Layer_1" data-name="Layer 1" xmlns="http://www.w3.org/2000/svg" viewBox="0 0 531.04 240.28"><defs><style>.cls-1{fill:#00caf8;}</style></defs><title>DoneDeskDoneDesk</title><path class="cls-1" d="M470.55,42.52a1.22,1.22,0,0,0-1.23-1.21l-52,.42A1.23,1.23,0,0,0,416.13,43l.39,47.78A1.24,1.24,0,0,0,417.76,92l9.11-.08.08,10.34a1.3,1.3,0,0,0,2.19.94l12.31-11.4,28.28-.23a1.22,1.22,0,0,0,1.21-1.23Zm-8.87,16.79L440,81.4a.93.93,0,0,1-1.3,0L425.76,68.73a.93.93,0,0,1,0-1.31L431.09,62a.92.92,0,0,1,1.3,0l6.4,6.3a.92.92,0,0,0,1.34-.05l14.23-16.06a.93.93,0,0,1,1.34,0l6,5.87A.93.93,0,0,1,461.68,59.31Z"/><path class="cls-1" d="M97.11,98H81.3a1.15,1.15,0,0,0-1.21,1.21V153a1.14,1.14,0,0,0,1.21,1.21H97.11c19.26,0,29.46-12.44,29.46-28.09S116.37,98,97.11,98Zm0,46.48h-6V107.73h6c12.2,0,18.3,6.82,18.3,18.38S109.31,144.49,97.11,144.49Z"/><path class="cls-1" d="M149.37,155A20.51,20.51,0,1,0,129,134.53,20.33,20.33,0,0,0,149.37,155Zm0-31.22c5.62,0,10.19,4.49,10.19,10.75s-4.57,10.68-10.19,10.68-10.2-4.5-10.2-10.68S143.67,123.78,149.37,123.78Z"/><path class="cls-1" d="M197.21,114c-5.7,0-9.87,3.13-12.44,7.3v-.08l-.32-5.14a1.18,1.18,0,0,0-1.21-1.2h-7.86a1.14,1.14,0,0,0-1.21,1.2V153a1.14,1.14,0,0,0,1.21,1.21h8.18a1.14,1.14,0,0,0,1.21-1.21V131.48c0-1.84,2.73-7.7,8.67-7.7,3.85,0,7.38,2.25,7.38,8.75V153a1.14,1.14,0,0,0,1.2,1.21h8.19a1.14,1.14,0,0,0,1.2-1.21V130.6C211.41,120.09,205.23,114,197.21,114Z"/><path class="cls-1" d="M236.54,154.76a20.5,20.5,0,0,0,14.61-6,1.1,1.1,0,0,0,.08-1.77l-3.53-3.45c-.56-.56-1-.56-1.77-.08a13.5,13.5,0,0,1-8.35,2.73c-6.1,0-10.11-2.89-11.23-7.95h25.2c2.41,0,2.81-1.6,2.81-4.73,0-10.43-7.3-19.42-18.7-19.42s-19.82,9-19.82,20.3S224.26,154.76,236.54,154.76Zm-.8-31.62c4.65,0,8.43,2.89,9.23,8.18H226.19C227.15,126,230.92,123.14,235.74,123.14Z"/><path class="cls-1" d="M305.57,126.11c0-15.9-9.87-28.1-29.37-28.1H263.6a1.14,1.14,0,0,0-1.21,1.21V153a1.14,1.14,0,0,0,1.21,1.21h12.6C295.7,154.2,305.57,142,305.57,126.11Zm-36.92-22.32h7.55c15.41,0,23,8.51,23,22.32s-7.62,22.31-23,22.31h-7.55Z"/><path class="cls-1" d="M329.5,154.76a20,20,0,0,0,14.68-6c.65-.64.57-1.2-.08-1.85l-1.52-1.44c-.64-.56-1.12-.32-1.69.16a15.76,15.76,0,0,1-10.75,3.77c-8.27,0-13.65-5.29-14.61-12.52H345c2,0,2.32-1.28,2.32-4,0-9.79-7.14-18.78-18.46-18.78s-19.26,9-19.26,20.3S317.78,154.76,329.5,154.76Zm-.65-35.32c7.47,0,12.77,5.62,13.17,12.76H315.45C316.25,124.82,321.47,119.44,328.85,119.44Z"/><path class="cls-1" d="M365.94,155c6.82,0,13.57-4.33,13.57-11,0-14-21.68-10.35-21.68-19.26,0-4.25,4-5.62,6.91-5.62,3.77,0,6.26,1.45,9.39,4.18.64.56,1.28.72,1.76.08l1.37-1.77a1.24,1.24,0,0,0,.08-1.68,17.42,17.42,0,0,0-12.6-5.94c-7.07,0-12.68,4.41-12.68,10.75,0,13.16,21.58,9.79,21.58,19.18,0,3.69-3.2,5.78-7.86,5.78-5,0-9.07-3-11.07-4.89-.73-.65-1.13-.81-1.69-.08l-1.77,2.16a1.06,1.06,0,0,0,.08,1.53A19.51,19.51,0,0,0,365.94,155Z"/><path class="cls-1" d="M387.13,154.2h3.62A1.14,1.14,0,0,0,392,153V143l7.38-7.7,14.29,18.22a1.53,1.53,0,0,0,1.44.72h4c1,0,1.36-.65.72-1.45L403,131.48l14.52-15.17c.72-.8.4-1.44-.64-1.44h-4.09a1.9,1.9,0,0,0-1.53.64L392,135.9V96.81a1.13,1.13,0,0,0-1.2-1.2h-3.62a1.13,1.13,0,0,0-1.2,1.2V153A1.14,1.14,0,0,0,387.13,154.2Z"/><path class="cls-1" d="M286.82,181.82a2.85,2.85,0,0,0-2.28-2.85,3.32,3.32,0,0,0,2.28-3.28c0-1.47-1-2.81-3.45-2.81h-4.15a.22.22,0,0,0-.26.23l-1.77,12.63a.28.28,0,0,0,.26.34h4.11C284.69,186.08,286.82,184.67,286.82,181.82Zm-6.29-7.33h2.52c1.3,0,2.08.39,2.08,1.35a2.48,2.48,0,0,1-2.68,2.47H280Zm-.76,5.33h2.66c1.85,0,2.66.68,2.66,1.81,0,1.87-1.3,2.85-3.41,2.85h-2.57Z"/><path class="cls-1" d="M296.94,176.84h-1.18a.32.32,0,0,0-.34.19l-3.68,7.11-1.7-7a.33.33,0,0,0-.32-.27h-1.15c-.19,0-.24.12-.21.27l2.29,9-1.78,3.19a.23.23,0,0,0,.21.36h1.13a.37.37,0,0,0,.36-.19l6.6-12.28A.24.24,0,0,0,296.94,176.84Z"/><path class="cls-1" d="M304.89,173.09l-1.77,12.63a.32.32,0,0,0,.28.36h3.72c4.6,0,7.84-3.11,7.84-7.58,0-3.2-2.06-5.62-6.11-5.62h-3.71C305,172.88,304.91,172.92,304.89,173.09Zm2.3,2.08h1.45c2.53,0,3.74,1.16,3.74,3.26,0,3.13-1.82,5.37-5.06,5.37H306Z"/><path class="cls-1" d="M324,184.56l-.75-.87a.3.3,0,0,0-.45-.08,3.21,3.21,0,0,1-2.08.7c-1.39,0-2.2-.68-2.24-1.92h6c.57,0,.64-.31.74-1,.36-2.57-1.11-4.77-3.85-4.77a5.36,5.36,0,0,0-5.2,4.69,4.14,4.14,0,0,0,4.28,5,5.66,5.66,0,0,0,3.54-1.27A.33.33,0,0,0,324,184.56Zm-2.73-5.81a1.74,1.74,0,0,1,1.85,2h-4.4A2.69,2.69,0,0,1,321.25,178.75Z"/><path class="cls-1" d="M335.14,185.82l.73-5.21c.35-2.47-1-4-2.9-4a3.74,3.74,0,0,0-3.05,1.64l.09-1.08a.32.32,0,0,0-.28-.36h-1.81a.28.28,0,0,0-.3.27l-1.23,8.69a.26.26,0,0,0,.26.28h1.91a.29.29,0,0,0,.32-.26l.72-5a2.73,2.73,0,0,1,2.41-1.88c.83,0,1.55.45,1.32,2l-.68,4.89a.26.26,0,0,0,.26.28h1.91A.29.29,0,0,0,335.14,185.82Z"/><path class="cls-1" d="M343.19,178.61l.18-1.41a.29.29,0,0,0-.28-.36h-1.26l.34-2.47a.33.33,0,0,0-.29-.36H340a.28.28,0,0,0-.3.27l-.36,2.56h-1.28a.32.32,0,0,0-.36.27l-.19,1.41a.29.29,0,0,0,.28.36h1.27l-1,6.92a.26.26,0,0,0,.26.28h1.9a.29.29,0,0,0,.32-.26l1-6.94h1.29A.32.32,0,0,0,343.19,178.61Z"/><path class="cls-1" d="M345.5,173.56a1.29,1.29,0,0,0,1.28,1.53,1.47,1.47,0,0,0,1.42-1.23,1.27,1.27,0,0,0-1.25-1.53A1.49,1.49,0,0,0,345.5,173.56Z"/><path class="cls-1" d="M345.44,176.84a.28.28,0,0,0-.3.27l-1.22,8.69a.26.26,0,0,0,.26.28h1.9a.29.29,0,0,0,.32-.26l1.21-8.62a.32.32,0,0,0-.28-.36Z"/><path class="cls-1" d="M351.72,186.33c1.9,0,3.83-1.17,3.83-3.19,0-2.81-4-2.24-4-3.64,0-.58.58-.87,1.22-.87a2.71,2.71,0,0,1,1.79.7c.16.11.27.13.36,0l.78-.83c.11-.13.05-.24,0-.39a3.55,3.55,0,0,0-3-1.49c-1.74,0-3.51,1-3.51,3,0,2.63,3.94,2.37,3.94,3.67,0,.66-.73,1-1.41,1a4.24,4.24,0,0,1-2.19-.77c-.17-.11-.34-.15-.45,0l-.74.87c-.09.11-.05.23,0,.36A3.92,3.92,0,0,0,351.72,186.33Z"/><path class="cls-1" d="M362.41,178.88a.32.32,0,0,0,.36-.27l.18-1.41a.29.29,0,0,0-.28-.36h-1.26l.34-2.47a.33.33,0,0,0-.29-.36h-1.88a.28.28,0,0,0-.3.27l-.36,2.56h-1.29a.31.31,0,0,0-.35.27l-.19,1.41a.29.29,0,0,0,.28.36h1.27l-1,6.92a.25.25,0,0,0,.26.28h1.9a.29.29,0,0,0,.32-.26l1-6.94Z"/><path class="cls-1" d="M369.13,174.64a3.54,3.54,0,0,1,2.49,1.07.29.29,0,0,0,.42,0l.83-.79c.13-.14.09-.25,0-.42a4.47,4.47,0,0,0-3.64-1.81,4.14,4.14,0,0,0-4.39,4c0,3.64,5.67,3.15,5.67,5.51,0,1.22-1.26,2.2-2.81,2.2a3.82,3.82,0,0,1-2.83-1.3c-.15-.15-.26-.17-.41,0l-.85.77a.33.33,0,0,0-.06.4,4.73,4.73,0,0,0,4,2.11c2.53,0,4.92-1.72,4.92-4.26,0-3.81-5.71-3.17-5.71-5.49A2.12,2.12,0,0,1,369.13,174.64Z"/><path class="cls-1" d="M382,185c.19-.15.11-.32,0-.45l-.57-.65c-.13-.15-.24-.19-.41,0a3.74,3.74,0,0,1-2.38.83,2.32,2.32,0,0,1-2.56-2.46h6.47c.5,0,.58-.28.68-.92.33-2.49-1.1-4.67-3.81-4.67a5.36,5.36,0,0,0-5.17,4.73,4.08,4.08,0,0,0,4.17,5A5.46,5.46,0,0,0,382,185Zm-2.7-6.68a2.16,2.16,0,0,1,2.25,2.53h-5.26A3.19,3.19,0,0,1,379.25,178.33Z"/><path class="cls-1" d="M389.94,176.64a5.45,5.45,0,0,0-5.3,5.48,4,4,0,0,0,4.11,4.21,5.47,5.47,0,0,0,3.73-1.51.31.31,0,0,0,0-.47l-.77-.83a.27.27,0,0,0-.42,0,3.18,3.18,0,0,1-2.37,1,2.31,2.31,0,0,1-2.42-2.49,3.46,3.46,0,0,1,3.3-3.56,2.61,2.61,0,0,1,2.12,1,.29.29,0,0,0,.39,0l.93-.73c.15-.12.11-.27,0-.4A3.91,3.91,0,0,0,389.94,176.64Z"/><path class="cls-1" d="M403.36,176.84h-1.42c-.17,0-.24.06-.28.23l-.73,5.37a3,3,0,0,1-2.76,2.08c-1.06,0-1.79-.64-1.56-2.25l.71-5.09a.29.29,0,0,0-.28-.34h-1.41c-.17,0-.25.06-.27.23l-.75,5.37c-.34,2.47.86,3.89,3,3.89a3.88,3.88,0,0,0,3-1.57l-.07,1a.3.3,0,0,0,.28.34h1.34c.17,0,.25-.05.26-.22l1.23-8.68A.3.3,0,0,0,403.36,176.84Z"/><path class="cls-1" d="M411.23,177.07a1.62,1.62,0,0,0-1.17-.43,3,3,0,0,0-2.41,1.35l.06-.81a.32.32,0,0,0-.29-.34h-1.28a.27.27,0,0,0-.3.25l-1.23,8.71a.25.25,0,0,0,.27.28h1.39a.31.31,0,0,0,.32-.28l.74-5.28a2.43,2.43,0,0,1,2.37-2.07,2.74,2.74,0,0,1,.74.07c.15,0,.26,0,.34-.11l.56-1C411.42,177.29,411.34,177.18,411.23,177.07Z"/><path class="cls-1" d="M416.53,176.64a5.35,5.35,0,0,0-5.17,4.73,4.08,4.08,0,0,0,4.17,5,5.46,5.46,0,0,0,3.58-1.32c.19-.15.11-.32,0-.45l-.57-.65c-.13-.15-.24-.19-.41,0a3.74,3.74,0,0,1-2.38.83,2.32,2.32,0,0,1-2.56-2.46h6.47c.51,0,.58-.28.68-.92C420.68,178.82,419.24,176.64,416.53,176.64Zm-3.13,4.22a3.19,3.19,0,0,1,3-2.53,2.16,2.16,0,0,1,2.25,2.53Z"/></svg>