<?xml version="1.0" encoding="utf-8"?>
<!-- Generator: Adobe Illustrator 19.0.0, SVG Export Plug-In . SVG Version: 6.00 Build 0)  -->
<svg version="1.0" id="Layer_1" xmlns="http://www.w3.org/2000/svg" xmlns:xlink="http://www.w3.org/1999/xlink" x="0px" y="0px"
	 width="119.8px" height="37px" viewBox="-1 2.9 119.8 37" style="enable-background:new -1 2.9 119.8 37;" xml:space="preserve">
<style type="text/css">
	.st0{fill:#2E8ECA;}
	.st1{fill:#FFFFFF;}
	.st2{fill:#FBB03D;}
	.st3{fill:#F15D29;}
	.st4{opacity:0.8;}
	.st5{fill:#F2FAFE;}
	.st6{opacity:0.41;}
	.st7{fill:#C0D9DB;}
	.st8{fill:none;}
	.st9{fill:#67B090;}
	.st10{fill:#748D6E;}
	.st11{fill:#718F8C;}
	.st12{fill:#EF395D;}
	.st13{fill:#F16672;}
	.st14{fill:#F8B2B0;}
	.st15{fill:#2DA9E1;}
	.st16{fill:#6A7856;}
	.st17{fill:#333333;}
	.st18{fill:#F06BA2;}
	.st19{fill:#F38CAE;}
	.st20{fill:#020202;}
	.st21{fill:#F7C21A;}
</style>
<rect id="XMLID_96_" x="2.7" y="10.2" class="st0" width="26.7" height="22.6"/>
<path id="XMLID_61_" class="st1" d="M26.7,8h-24C0.7,8-1,9.7-1,11.8v18.5c0,2.1,1.7,3.8,3.8,3.8h0.7v5.8l6.7-5.8h16.5
	c2.1,0,3.8-1.7,3.8-3.8V11.8C30.5,9.7,28.8,8,26.7,8z M24.4,16.9c-3.6,4.1-7.2,8.2-10.8,12.2c-0.3,0.3-0.4,0.3-0.7,0.1
	c-1.6-1.5-3.3-2.9-4.9-4.4c-1.2-1-2.2-2-3.4-3c-0.1-0.1-0.3-0.3-0.4-0.4c1.2-1.3,2.2-2.6,3.4-3.9c1.2,1.1,2.3,2.1,3.5,3.1
	c0.4,0.4,0.9,0.7,1.3,1.2c0.3,0.3,0.5,0.2,0.7-0.1c1.1-1.2,2.2-2.4,3.2-3.6c1.9-2.1,3.7-4.2,5.6-6.3c0.2-0.2,0.2-0.2,0.3-0.3
	c1.3,1.2,2.6,2.3,3.9,3.5C25.5,15.6,25,16.2,24.4,16.9z"/>
<g id="XMLID_202_">
	<path id="XMLID_91_" class="st2" d="M115.7,31.7v-0.8v-0.1c0-0.6-2.5-1.1-5.6-1.1s-5.6,0.5-5.6,1.1v1l0,0c0.2,0.6,2.6,1,5.6,1
		s5.4-0.5,5.6-1l0,0l0,0V31.7L115.7,31.7z"/>
</g>
<g id="XMLID_200_">
	<ellipse id="XMLID_90_" class="st3" cx="110.1" cy="30.6" rx="5.3" ry="1"/>
</g>
<g id="XMLID_198_">
	<ellipse id="XMLID_89_" class="st2" cx="110.1" cy="23.3" rx="7.3" ry="7.8"/>
</g>
<g id="XMLID_196_" class="st4">
	<path id="XMLID_88_" class="st5" d="M106.3,17.1c0.2,0.1,0.4,0.1,0.5,0.1c0,0-0.4,0.1-0.3,0.1c-2,3.9-3.3,8.1,0.4,11.3
		c0.7,0.6,3,1.1,5,0.7c1.8-0.4,1.5,0.4,1.5,0.4c-1,0.5-1.8,0.5-2.8,0.5c-2.1,0-3.9-0.5-4.6-1.3C102,24.3,104.6,19.2,106.3,17.1z"/>
</g>
<g id="XMLID_194_" class="st6">
	<path id="XMLID_87_" class="st1" d="M114.2,17.1c-0.2,0.1-0.4,0.1-0.5,0.1c0,0,0.4,0.1,0.3,0.1c2,3.9,3.3,8.1-0.4,11.3
		c-0.7,0.6-3,1.1-5,0.7c-1.8-0.4-1.5,0.4-1.5,0.4c1,0.5,1.8,0.5,2.8,0.5c2.1,0,3.9-0.5,4.6-1.3C118.4,24.3,115.9,19.2,114.2,17.1z"
		/>
</g>
<g id="XMLID_192_">
	<path id="XMLID_86_" class="st7" d="M104.7,15.8v0.8v0.1c0,0.6,2.5,1.1,5.6,1.1s5.6-0.5,5.6-1.1v-1l0,0c-0.2-0.6-2.6-1-5.6-1
		S104.9,15.2,104.7,15.8L104.7,15.8L104.7,15.8L104.7,15.8L104.7,15.8z"/>
</g>
<g id="XMLID_190_">
	<ellipse id="XMLID_85_" class="st2" cx="110.2" cy="15.8" rx="5.3" ry="1"/>
</g>
<g id="XMLID_188_" class="st6">
	<path id="XMLID_84_" class="st1" d="M106.1,30.6c0,0,3.8,1.4,8.3,0C114.4,30.6,109.8,31.4,106.1,30.6z"/>
</g>
<g id="XMLID_186_">
	<path id="XMLID_83_" class="st7" d="M114.4,16.1c0,0-3.8-1.4-8.3,0C106.1,16.1,110.7,15.3,114.4,16.1z"/>
</g>
<g id="XMLID_183_">
	<g id="XMLID_184_">
		<path id="XMLID_82_" class="st3" d="M115.7,15.6h-0.4c0.1,0.1,0.2,0.2,0.2,0.2c0,0.5-2.4,0.9-5.3,0.9s-5.3-0.5-5.3-1
			c0-0.1,0.1-0.2,0.2-0.2h-0.4c-0.1,0.1-0.1,0.1-0.1,0.2l0,0l0,0v0.1v0.1v0.8v0.1c0,0.6,2.5,1.1,5.6,1.1s5.6-0.5,5.6-1.1v-1l0,0
			C115.8,15.7,115.7,15.6,115.7,15.6z"/>
	</g>
</g>
<g id="XMLID_107_">
	<path id="XMLID_81_" class="st8" d="M114.3,11.1c-0.2-0.2-0.3-0.5-0.3-0.9c-0.2,0.3-0.3,0.5-0.5,0.6c-0.3,1-0.5,2-0.7,3
		c0.8,0.4,1.1,0.7,1.2,1.1c0,0.1,0,0.1,0.1,0.2h0.1c0.1-0.1,0.1-0.1,0.1-0.2c0.2-0.2,0.4-0.4,0.6-0.7c-0.4,0-1.1-0.3-1.3-1.7
		c1.3,0.5,1.5,1.1,1.4,1.5c0.2-0.3,0.5-0.7,0.7-1.1c-0.4,0.1-1.1-0.1-1.5-1.5c1.4,0.3,1.6,0.9,1.6,1.4c0.2-0.4,0.4-0.8,0.5-1.3
		c-0.4,0.1-1,0.1-1.5-1C114.5,10.8,114.4,11,114.3,11.1z"/>
	<path id="XMLID_80_" class="st8" d="M114.8,10.3c0.1,0,0.1,0,0.2,0.1c-0.1-0.1-0.1-0.2-0.1-0.3C114.8,10.1,114.8,10.2,114.8,10.3z"
		/>
	<path id="XMLID_79_" class="st8" d="M116.5,10c0-0.1,0-0.1,0.1-0.2l-0.1-0.1C116.5,9.9,116.5,10,116.5,10z"/>
	<path id="XMLID_78_" class="st8" d="M106.7,14.9C106.7,15,106.7,15,106.7,14.9c0.1,0.1,0.1,0.1,0.1,0.2c0.1,0.3,0.2,0.6,0.3,0.8
		c0,0.1,0,0.1,0,0.1c0,0.1,0.1,0.2,0.1,0.2c0.1,0.2,0.1,0.3,0.1,0.3v0.1c0.2,0,0.4,0.1,0.5,0.1l-0.1-0.6V16v-0.2l-0.1-0.8v-0.2
		l-0.2-1.5c-0.4,0.4-0.9,0.5-1.2,0.5C106.3,14.2,106.5,14.6,106.7,14.9z"/>
	<path id="XMLID_77_" class="st8" d="M107.3,9.1c0.1,0.6,0,1.1-0.2,1.4l0.3,2.2c0.1,0.1,0.1,0.1,0.1,0.1c0,0.1-0.1,0.1-0.1,0.1
		l0.2,1.8v0.2l0.1,0.2c0-0.1,0-0.1,0.1-0.2c0-0.1,0.1-0.1,0.1-0.2c0.2-0.4,0.6-0.8,1.5-0.9c-0.1-0.1-0.1-0.1-0.1-0.2
		c-1.2,0.3-0.7-0.9,0.4-1.6c0,0,0-0.1-0.1-0.1c0,0,0-0.1-0.1-0.1c-1.1,0.6-2.6-0.1-1.6-0.7c-0.6-1.1,0.8-0.9,1.7,0l0.1-0.1
		c-0.4-0.5-0.5-1.1-0.4-1.5C108.4,9.8,107.7,9.5,107.3,9.1z"/>
	<path id="XMLID_76_" class="st8" d="M112.6,14.9c-0.1,0.3-0.1,0.5-0.1,0.7c0,0.1,0,0.1,0,0.2l0,0c-0.1,0.2-0.1,0.4-0.1,0.6
		c0.2-0.1,0.4-0.3,0.6-0.4c0.1-0.1,0.2-0.1,0.2-0.2c0.1-0.1,0.1-0.1,0.1-0.1c0.1-0.1,0.2-0.2,0.3-0.3c-0.3-0.1-0.5-0.2-0.7-0.6
		c-0.1-0.1-0.1-0.1-0.1-0.2c-0.1-0.2-0.1-0.3-0.2-0.5c0,0.2-0.1,0.3-0.1,0.5C112.7,14.8,112.7,14.8,112.6,14.9z"/>
	<path id="XMLID_75_" class="st8" d="M117,9.5c0.1-0.1,0.1-0.1,0.1-0.1c-0.1,0-0.2-0.1-0.2-0.1C117,9.3,117,9.4,117,9.5z"/>
	<path id="XMLID_74_" class="st8" d="M116.3,10.7c-0.3-0.1-0.5-0.3-0.7-0.6c0,0.2,0,0.3,0,0.4c0.5,0.3,0.6,0.7,0.6,0.9
		c0.2-0.4,0.3-0.9,0.4-1.4c-0.1,0.1-0.2,0.1-0.3,0.1C116.3,10.4,116.3,10.6,116.3,10.7z"/>
	<path id="XMLID_73_" class="st7" d="M107.1,16.5L107.1,16.5c0.2,0,0.4,0.1,0.5,0.1l0,0C107.4,16.6,107.2,16.5,107.1,16.5z"/>
	<path id="XMLID_72_" class="st9" d="M107.1,10.5c-0.1,0.1-0.2,0.3-0.2,0.4l0.2,1.7c0.1,0,0.2,0.1,0.3,0.2L107.1,10.5z"/>
	<path id="XMLID_71_" class="st9" d="M107.7,15.2l-0.1-0.2v-0.2l-0.2-1.8c-0.1,0.1-0.2,0.2-0.2,0.3l0.2,1.5V15l0.1,0.8V16l0,0
		l0.1,0.6l0,0c0.1,0,0.2,0,0.3,0.1l-0.1-0.7l0,0v-0.2l-0.1-0.5l0,0C107.6,15.2,107.7,15.2,107.7,15.2z"/>
	<path id="XMLID_70_" class="st10" d="M107.8,14.8c-0.1,0.1-0.1,0.1-0.1,0.2c-0.1,0.1-0.1,0.2-0.1,0.2c0,0.1,0,0.1,0,0.1l0,0
		c0.6,0.1,0.9-0.1,1.2-0.4c0.1-0.1,0.1-0.1,0.2-0.2c0.3-0.4,0.3-0.8,0.4-0.9l0,0C108.4,13.9,108,14.4,107.8,14.8z"/>
	<path id="XMLID_69_" class="st9" d="M116.4,3.7c-0.1,0.3-0.2,0.5-0.2,0.7c0.2-0.2,0.4-0.3,0.5-0.3C116.7,4,116.5,3.8,116.4,3.7z"/>
	<path id="XMLID_68_" class="st9" d="M118.8,9.1C118.3,9,118,9,117.7,9.2c0.1,0.1,0.1,0.3,0.2,0.4c-0.2,0.1-0.5,0-0.7-0.1
		c-0.1,0.1-0.1,0.1-0.1,0.1c0.1,0.3,0.2,0.5,0.2,0.7c-0.2,0-0.3-0.1-0.4-0.2c0,0,0,0-0.1,0c-0.1-0.1-0.1-0.1-0.2-0.1
		c0,0.1,0,0.1-0.1,0.2c0-0.1,0-0.1-0.1-0.2c-0.2-0.1-0.3-0.2-0.4-0.3c0.1,0.2,0.2,0.5,0.2,0.7c0.1,0,0.2-0.1,0.3-0.1
		c-0.1,0.5-0.2,0.9-0.4,1.4c0-0.3-0.1-0.7-0.6-0.9c-0.1,0.2-0.1,0.4-0.2,0.5c-0.2-0.2-0.4-0.4-0.5-0.7c-0.1,0-0.1,0-0.2-0.1
		c-0.1,0.1-0.1,0.3-0.1,0.4c0.5,1.1,1.2,1.1,1.5,1c-0.2,0.5-0.3,0.9-0.5,1.3c0-0.4-0.2-1.1-1.6-1.4c0.4,1.5,1.1,1.6,1.5,1.5
		c-0.2,0.4-0.4,0.8-0.7,1.1c0.1-0.4-0.1-1.1-1.4-1.5c0.2,1.5,0.8,1.7,1.3,1.7c-0.2,0.3-0.4,0.5-0.6,0.7c-0.1,0.1-0.1,0.1-0.1,0.2
		l-0.1,0.1v-0.1c0-0.1,0-0.1-0.1-0.2c-0.1-0.4-0.4-0.8-1.2-1.1c-0.1,0.2-0.1,0.3-0.1,0.5c0.1,0.2,0.1,0.3,0.2,0.5
		c0.1,0.1,0.1,0.1,0.1,0.2c0.2,0.4,0.5,0.5,0.7,0.6c-0.1,0.1-0.2,0.2-0.3,0.3c-0.1,0.1-0.1,0.1-0.1,0.1c-0.1,0.1-0.2,0.1-0.2,0.2
		c-0.2,0.2-0.4,0.3-0.6,0.4c0,0.1,0,0.1,0,0.1c0.2-0.1,0.5-0.2,0.8-0.4c0.1-0.1,0.2-0.1,0.3-0.2c-0.1,0.1-0.1,0.1-0.1,0.1
		c0.1,0.2,0.3,0.4,0.5,0.4c0.4,0.2,0.9,0.1,1.7-0.3c-0.1-0.1-0.2-0.1-0.2-0.1c-0.9-0.5-1.4-0.5-1.7-0.3c0.1-0.1,0.2-0.2,0.3-0.3h0.1
		c0-0.1,0-0.1,0.1-0.1c0.1-0.1,0.2-0.2,0.3-0.3s0.1-0.1,0.1-0.2c0.1-0.2,0.2-0.3,0.4-0.4c0.3,0.3,1,0.6,2.2-0.4
		c-0.9-0.4-1.4-0.3-1.7-0.2c0.2-0.3,0.4-0.6,0.6-0.9c0.3,0.3,1,0.5,2.1-0.5c-0.9-0.3-1.4-0.2-1.8,0c0.2-0.3,0.3-0.7,0.4-1
		c0.4,0.2,1.1,0.3,1.9-0.8c-1-0.2-1.5-0.1-1.7,0.2c0.1-0.3,0.2-0.7,0.2-1C117.2,10.2,117.9,10.4,118.8,9.1z"/>
	<path id="XMLID_67_" class="st9" d="M117.1,4.7c-0.1-0.2-0.2-0.3-0.3-0.5c0,0.2-0.1,0.5-0.2,0.7C116.8,4.8,117,4.8,117.1,4.7z"/>
	<path id="XMLID_66_" class="st9" d="M117.1,8.5c0.1,0,0.2,0,0.2,0S117.2,8.5,117.1,8.5L117.1,8.5z"/>
	<path id="XMLID_65_" class="st9" d="M118.1,5.6c-0.1,0.3-0.3,0.5-0.6,0.7c0.2,0,0.4,0,0.6,0.1c0.2-0.2,0.4-0.6,0.6-1
		c-0.4,0.1-0.7,0.2-1,0.3C117.9,5.5,118,5.6,118.1,5.6z"/>
	<path id="XMLID_64_" class="st9" d="M117.6,7.9c0.2,0.1,0.4,0.2,0.5,0.3c0.2-0.2,0.5-0.5,0.7-0.9c-0.2,0-0.4,0-0.6,0.1
		c0.2,0.1,0.3,0.2,0.4,0.3C118.3,7.7,118,7.8,117.6,7.9z"/>
	<path id="XMLID_63_" class="st9" d="M116.9,5.7L116.9,5.7C117,5.7,117,5.7,116.9,5.7c0.1-0.1,0.1-0.2,0.2-0.2
		C117.1,5.6,117,5.7,116.9,5.7L116.9,5.7z"/>
	<path id="XMLID_62_" class="st11" d="M112.5,15.8L112.5,15.8c0-0.1,0-0.2,0-0.2c0.1-0.3,0.1-0.5,0.1-0.7c0-0.1,0-0.1,0-0.2
		c0-0.2,0.1-0.3,0.1-0.5c0.1-0.2,0.1-0.3,0.1-0.5c0.2-1,0.4-2,0.7-3c-0.1,0-0.1,0.1-0.1,0.1c-0.2-0.3-0.1-0.8,0-1.2
		c0,0,0,0.1-0.1,0.1c-0.6,1.7-0.9,3.4-1.2,5c0,0.1,0,0.1,0,0.2c-0.1,0.3-0.1,0.5-0.1,0.7c0,0.1,0,0.1,0,0.1c0,0.1,0,0.1,0,0.1
		c-0.1,0.3-0.1,0.6-0.1,0.9c0,0,0,0,0.1,0s0.2,0,0.3,0c0.1,0,0.1,0,0.1,0c0.1,0,0.1,0,0.1,0c0-0.1,0-0.1,0-0.1c0-0.1,0-0.1,0-0.1
		C112.4,16.3,112.4,16,112.5,15.8z"/>
	<path id="XMLID_60_" class="st12" d="M114.1,7.7L114.1,7.7L114.1,7.7L114.1,7.7c0.1,0.1,0.1,0.1,0.2,0.1c0,0,0,0,0.1,0
		s0.1,0.1,0.1,0.1l0,0l0,0c-0.1,0.5-0.5,1.2-1,1.8c-0.1,0.5-0.2,0.9,0,1.2c0.1,0,0.1-0.1,0.1-0.1c0.2-0.2,0.4-0.4,0.5-0.6
		c-0.1-0.3,0-0.7,0.1-1c0.1-0.5,0.2-1,0.4-1.3l0,0l0,0c0.1,0,0.1,0,0.2,0.1l0,0h0.1c0.1,0,0.1,0,0.1,0l0,0l0,0
		c0.1,0.3,0.1,0.6,0.1,1c0,0.1,0,0.2,0,0.3c0,0.3-0.1,0.5-0.1,0.8c0.1,0.1,0.1,0.2,0.1,0.3c0.2,0.3,0.3,0.6,0.5,0.7
		c0.1-0.2,0.2-0.3,0.2-0.5c0-0.1,0-0.3,0-0.4c-0.1-0.1-0.1-0.1-0.1-0.2c-0.2-0.3-0.4-0.7-0.5-1c-0.2-0.4-0.2-0.7-0.3-1l0,0l0,0l0,0
		c0.1,0,0.1-0.1,0.2-0.1l0,0h0.1c0.1,0,0.1-0.1,0.1-0.1l0,0l0,0c0.2,0.2,0.3,0.4,0.5,0.6c0.2,0.3,0.3,0.5,0.5,0.8
		c0.1,0.1,0.1,0.2,0.2,0.3c0.1,0.1,0.3,0.2,0.4,0.3l0.1,0.1c0.1,0.1,0.1,0.1,0.2,0.1c0,0,0,0,0.1,0c0.2,0.1,0.3,0.1,0.4,0.2
		c0-0.2-0.1-0.5-0.2-0.7C117,9.4,117,9.3,117,9.3s0,0-0.1,0c-0.1-0.1-0.1-0.1-0.2-0.1c-0.3-0.2-0.6-0.4-0.9-0.7
		c-0.3-0.3-0.6-0.5-0.7-0.7l0,0l0,0c0.1-0.1,0.1-0.1,0.1-0.1s0,0,0-0.1s0.1-0.1,0.1-0.1l0,0l0,0c0.3,0.1,0.8,0.3,1.2,0.6
		c0.1,0.1,0.2,0.1,0.3,0.2c0.1,0,0.1,0.1,0.1,0.1c0.1,0,0.1,0.1,0.1,0.1c0.1,0.1,0.1,0.1,0.1,0.1c0.1,0,0.2,0.1,0.3,0.1
		c0.4,0.1,0.7,0.1,1-0.1c-0.1-0.1-0.1-0.2-0.2-0.3c-0.1-0.1-0.3-0.3-0.5-0.3s-0.4,0-0.6,0H117c-0.1,0-0.1,0-0.2,0
		c-0.2,0-0.4-0.1-0.6-0.1c-0.4-0.1-0.7-0.2-0.9-0.3l0,0l0,0l0,0c0-0.1,0-0.1,0.1-0.2V7.3c0-0.1,0-0.1,0-0.1l0,0l0,0
		c0.2-0.1,0.3-0.1,0.5-0.1c0.3-0.1,0.7-0.1,1-0.1c0.1,0,0.1,0,0.2,0h0.1c0.1,0,0.2,0.1,0.4,0.1c0.5-0.2,0.9-0.4,1.1-0.6
		c-0.1-0.1-0.2-0.1-0.3-0.1c-0.2-0.1-0.4-0.1-0.6-0.1c-0.2,0.1-0.4,0.2-0.5,0.3h-0.1c-0.1,0-0.1,0.1-0.2,0.1l0,0
		c-0.4,0.2-0.7,0.3-1,0.4c-0.2,0.1-0.3,0.1-0.5,0.1l0,0l0,0l0,0c0-0.1-0.1-0.1-0.1-0.2V6.9c0-0.1-0.1-0.1-0.1-0.1l0,0l0,0
		c0.1-0.1,0.1-0.1,0.2-0.2c0.2-0.2,0.4-0.3,0.7-0.5s0.5-0.3,0.8-0.4l0,0c0.1,0,0.1-0.1,0.1-0.1l0,0c0.1-0.1,0.1-0.1,0.2-0.2
		c0.3-0.3,0.4-0.6,0.4-0.9c-0.2,0-0.3,0-0.4,0.1c-0.2,0.1-0.3,0.1-0.5,0.2c-0.1,0.2-0.2,0.3-0.3,0.5c-0.2,0.3-0.4,0.5-0.6,0.7
		c-0.2,0.2-0.4,0.4-0.5,0.5s-0.1,0.1-0.2,0.2l0,0l0,0c-0.1-0.1-0.1-0.1-0.1-0.1s0,0-0.1,0s-0.1-0.1-0.1-0.1l0,0l0,0
		c0.1-0.1,0.1-0.3,0.1-0.4l0,0c0.2-0.4,0.5-0.9,0.8-1.4c0.1-0.5,0.2-0.9,0-1.2c-0.3,0.2-0.4,0.4-0.6,0.7c0.1,0.6-0.1,1.4-0.3,1.9
		l0,0c-0.1,0.2-0.1,0.3-0.2,0.4l0,0l0,0c-0.1,0-0.1-0.1-0.2-0.1h-0.1c-0.1,0-0.1,0-0.1,0l0,0l0,0c-0.1-0.5-0.2-1.3-0.1-2.1
		c-0.2-0.5-0.4-0.9-0.6-1.1c-0.2,0.3-0.2,0.6-0.2,0.9c0.5,0.7,0.8,1.7,0.8,2.2l0,0l0,0l0,0c-0.1,0-0.1,0.1-0.2,0.1h-0.1
		c-0.1,0-0.1,0.1-0.1,0.1l0,0l0,0c-0.4-0.3-0.8-1-1.1-1.7c-0.4-0.3-0.7-0.6-1.1-0.6c0,0.3,0.1,0.6,0.3,0.9c0.7,0.4,1.5,1.1,1.8,1.5
		l0,0l0,0c-0.1,0.1-0.1,0.1-0.1,0.1s0,0,0,0.1s0.4-0.1,0.4-0.1l0,0l0,0c-0.5-0.1-1.2-0.5-1.8-1c-0.5-0.1-0.9-0.2-1.2,0
		c0.2,0.3,0.4,0.4,0.7,0.6c0.8-0.1,1.8,0.2,2.3,0.4l0,0l0,0c0,0.1-0.1,0.1-0.1,0.2V7c0,0.1,0,0.1,0,0.1l0,0l0,0
		c-0.5,0.1-1.3,0.2-2.1,0.1c-0.5,0.2-0.9,0.4-1.1,0.6C111,8,111.3,8,111.6,8c0.7-0.5,1.7-0.8,2.2-0.8l0,0l0,0l0,0
		c0,0.1,0.1,0.1,0.1,0.2v0.1C114,7.6,114,7.7,114.1,7.7L114.1,7.7L114.1,7.7c-0.4,0.3-1.1,0.8-1.7,1c-0.3,0.4-0.6,0.7-0.6,1.1
		c0.3,0,0.6-0.1,0.9-0.3C113,8.8,113.6,8,114.1,7.7z"/>
	<path id="XMLID_59_" class="st13" d="M116.9,5.7c-0.1,0-0.1,0.1-0.1,0.1l0,0c-0.3,0.1-0.6,0.3-0.8,0.4c-0.3,0.2-0.5,0.3-0.7,0.5
		c-0.1,0.1-0.1,0.1-0.2,0.2c0.1-0.1,0.2-0.1,0.2-0.1c0.2-0.1,0.5-0.2,0.7-0.3c0.1,0,0.2,0,0.2,0v0.1c-0.1,0.2-0.3,0.4-0.6,0.5
		c-0.1,0.1-0.3,0.1-0.4,0.2c0.1,0,0.3-0.1,0.5-0.1c0.3-0.1,0.7-0.2,1-0.4l0,0c0.1,0,0.1-0.1,0.2-0.1h0.1c0.2-0.1,0.4-0.2,0.5-0.3
		c0.3-0.2,0.5-0.4,0.6-0.7c-0.2-0.1-0.3-0.1-0.5-0.1S117.1,5.7,116.9,5.7C117,5.7,117,5.7,116.9,5.7L116.9,5.7z"/>
	<path id="XMLID_58_" class="st13" d="M113.2,6.4c-0.1-0.1-0.1-0.2-0.1-0.2h0.1c0.3,0,0.7,0.3,1,0.5c-0.3-0.5-1.1-1.2-1.8-1.5
		C112,5.1,111.7,5,111.5,5c0.1,0.4,0.4,0.7,0.7,1c0.6,0.5,1.3,0.8,1.8,1C113.7,6.8,113.4,6.6,113.2,6.4z"/>
	<path id="XMLID_57_" class="st13" d="M114.5,6.5c0-0.3,0-0.7,0.2-1c0.1-0.1,0.1-0.2,0.1-0.2s0,0.1,0.1,0.1c0.2,0.3,0.2,0.8,0.1,1.1
		c0.1-0.1,0.1-0.3,0.2-0.4l0,0c0.2-0.5,0.3-1.3,0.3-1.9c-0.1-0.4-0.1-0.7-0.3-0.9c-0.3,0.3-0.4,0.7-0.5,1.1
		C114.3,5.3,114.4,6.1,114.5,6.5z"/>
	<path id="XMLID_56_" class="st13" d="M115.6,8.4c-0.2-0.3-0.4-0.5-0.5-0.6c0.1,0.2,0.2,0.3,0.3,0.5s0.1,0.3,0.1,0.4
		c0,0.1,0,0.2,0,0.2h-0.1c-0.3-0.2-0.5-0.6-0.6-0.9c0,0.3,0.1,0.6,0.3,1c0.1,0.4,0.3,0.7,0.5,1c0.1,0.1,0.1,0.2,0.1,0.2
		c0.2,0.3,0.4,0.5,0.7,0.6c0.1-0.2,0.1-0.4,0.1-0.6c-0.1-0.2-0.1-0.4-0.2-0.7c-0.1-0.1-0.1-0.2-0.2-0.3
		C115.9,8.9,115.7,8.6,115.6,8.4z"/>
	<path id="XMLID_55_" class="st13" d="M113.8,5.8c0-0.1,0-0.2,0-0.2h0.1c0.3,0.2,0.5,0.6,0.6,0.9c-0.1-0.6-0.4-1.5-0.8-2.2
		c-0.2-0.3-0.4-0.5-0.7-0.6c-0.1,0.4-0.1,0.8,0.2,1.2c0.3,0.7,0.7,1.4,1.1,1.7C114,6.4,113.8,6.1,113.8,5.8z"/>
	<path id="XMLID_54_" class="st13" d="M114.9,9.3c0-0.1,0-0.2,0-0.3c0-0.4-0.1-0.8-0.1-1c0,0.3,0,0.7-0.2,1
		c-0.1,0.1-0.1,0.2-0.1,0.2s0-0.1-0.1-0.1c-0.1-0.2-0.1-0.4-0.1-0.6s0.1-0.4,0.1-0.6c-0.2,0.3-0.3,0.8-0.4,1.3
		c-0.1,0.4-0.1,0.7-0.1,1c0.1,0.4,0.1,0.7,0.3,0.9c0.2-0.1,0.3-0.3,0.3-0.5c0.1-0.1,0.1-0.2,0.1-0.4c0-0.1,0.1-0.2,0.1-0.3
		C114.9,9.7,114.9,9.5,114.9,9.3z"/>
	<path id="XMLID_53_" class="st13" d="M113.2,8c-0.1,0-0.2,0-0.2,0l0,0c0.2-0.3,0.6-0.5,0.9-0.6c-0.6,0.1-1.5,0.4-2.2,0.8
		c-0.3,0.2-0.5,0.4-0.6,0.7c0.4,0.1,0.8,0.1,1.2-0.2c0.7-0.3,1.4-0.7,1.7-1.1C113.8,7.9,113.5,8,113.2,8z"/>
	<path id="XMLID_52_" class="st13" d="M113.9,7.4c-0.3,0-0.7,0-1-0.2c-0.1-0.1-0.2-0.1-0.2-0.1s0.1,0,0.1-0.1
		c0.3-0.2,0.8-0.2,1.1-0.1c-0.5-0.3-1.5-0.5-2.3-0.4c-0.4,0.1-0.7,0.1-0.9,0.3c0.3,0.3,0.7,0.4,1.1,0.5
		C112.6,7.5,113.5,7.5,113.9,7.4z"/>
	<path id="XMLID_51_" class="st13" d="M117,7c-0.1,0-0.1,0-0.2,0c-0.4,0-0.7,0-1,0.1c-0.2,0-0.4,0.1-0.5,0.1c0.3,0,0.7,0,1,0.2
		c0.1,0.1,0.2,0.1,0.2,0.1s-0.1,0-0.1,0.1c-0.2,0.1-0.4,0.1-0.6,0.1c-0.2,0-0.4-0.1-0.5-0.1c0.2,0.1,0.6,0.2,0.9,0.3
		c0.2,0.1,0.4,0.1,0.6,0.1c0.1,0,0.1,0,0.2,0h0.1c0.2,0,0.4,0,0.6,0c0.4-0.1,0.7-0.1,0.9-0.3c-0.1-0.1-0.2-0.2-0.4-0.3
		c-0.2-0.1-0.5-0.2-0.8-0.3C117.2,7.1,117.1,7.1,117,7C117,7.1,117,7,117,7z"/>
	<path id="XMLID_50_" class="st13" d="M115,6.2c-0.1,0.2-0.1,0.3-0.1,0.4C115,6.4,115,6.3,115,6.2c0.1,0,0.1-0.1,0.2-0.1
		c0.1-0.2,0.2-0.3,0.3-0.3c0.1-0.1,0.2-0.1,0.2-0.1v0.1c0,0.1-0.1,0.3-0.1,0.4c-0.1,0.2-0.2,0.3-0.3,0.5c-0.1,0.1-0.1,0.1-0.2,0.2
		c0.1-0.1,0.1-0.1,0.2-0.2c0.2-0.1,0.3-0.3,0.5-0.5s0.4-0.5,0.6-0.7c0.1-0.2,0.2-0.3,0.3-0.5c0.1-0.3,0.2-0.5,0.2-0.7
		c0-0.1,0-0.1,0-0.2c-0.1,0-0.1,0-0.1,0c-0.2,0.1-0.4,0.2-0.5,0.3s-0.3,0.3-0.4,0.4C115.5,5.2,115.2,5.7,115,6.2L115,6.2z"/>
	<path id="XMLID_49_" class="st13" d="M117,8.4c-0.1,0-0.1-0.1-0.1-0.1c-0.1,0-0.1-0.1-0.1-0.1c-0.1-0.1-0.2-0.2-0.3-0.2
		c-0.5-0.3-0.9-0.5-1.2-0.6c0.3,0.2,0.6,0.4,0.8,0.6c0.1,0.1,0.1,0.2,0.1,0.2H116c-0.3,0-0.7-0.3-1-0.5c0.2,0.2,0.4,0.5,0.7,0.7
		c0.3,0.3,0.6,0.5,0.9,0.7c0.1,0.1,0.1,0.1,0.2,0.1c0,0,0,0,0.1,0c0.1,0.1,0.2,0.1,0.2,0.1c0.3,0.1,0.5,0.2,0.7,0.1
		c-0.1-0.1-0.1-0.3-0.2-0.4C117.5,8.8,117.3,8.6,117,8.4C117.1,8.4,117,8.4,117,8.4C117.1,8.4,117,8.4,117,8.4z"/>
	<path id="XMLID_48_" class="st13" d="M114.3,7.9c-0.2,0.3-0.4,0.6-0.6,0.8c0,0,0,0-0.1,0c-0.1,0.1-0.1,0.1-0.2,0.1V8.7
		c0-0.3,0.3-0.7,0.5-1c-0.5,0.3-1.2,1.1-1.5,1.8c-0.2,0.3-0.2,0.6-0.2,0.9c0.3-0.1,0.7-0.4,1-0.7c0,0,0-0.1,0.1-0.1
		C113.9,9.1,114.2,8.4,114.3,7.9z"/>
	<path id="XMLID_47_" class="st14" d="M114.4,7.9c-0.1,0-0.1-0.1-0.1-0.1s0,0-0.1,0c-0.1-0.1-0.1-0.1-0.1-0.1l0,0l0,0l0,0
		c-0.3,0.3-0.5,0.7-0.5,1v0.1c0.1,0,0.1-0.1,0.2-0.1c0,0,0,0,0.1,0C114,8.5,114.2,8.2,114.4,7.9C114.3,7.9,114.4,7.9,114.4,7.9
		L114.4,7.9z"/>
	<path id="XMLID_46_" class="st14" d="M113.1,6.2c0,0.1,0.1,0.2,0.1,0.2c0.2,0.3,0.5,0.5,0.8,0.6l0,0l0,0c0-0.1,0.1-0.1,0.1-0.1
		s0,0,0-0.1c0.1-0.1,0.1-0.1,0.1-0.1l0,0l0,0C113.9,6.4,113.5,6.2,113.1,6.2C113.2,6.2,113.1,6.2,113.1,6.2z"/>
	<path id="XMLID_45_" class="st14" d="M116.1,8.3c0-0.1-0.1-0.2-0.1-0.2c-0.2-0.3-0.5-0.5-0.8-0.6l0,0l0,0c0,0.1-0.1,0.1-0.1,0.1
		s0,0,0,0.1C115,7.8,115,7.8,115,7.8l0,0l0,0C115.4,8,115.8,8.3,116.1,8.3L116.1,8.3z"/>
	<path id="XMLID_44_" class="st14" d="M114.8,5.5C114.8,5.4,114.8,5.4,114.8,5.5c-0.1,0-0.1,0.1-0.2,0.2c-0.1,0.3-0.2,0.7-0.2,1l0,0
		l0,0c0.1,0,0.1,0,0.1,0h0.1c0.1,0,0.1,0,0.2,0.1l0,0l0,0C115,6.2,115,5.7,114.8,5.5z"/>
	<path id="XMLID_43_" class="st14" d="M114.4,9.1L114.4,9.1c0.1,0,0.1-0.1,0.2-0.2c0.1-0.3,0.2-0.7,0.2-1l0,0l0,0
		c-0.1,0-0.1,0-0.1,0h-0.1l0,0c-0.1,0-0.1,0-0.2-0.1l0,0l0,0c-0.1,0.2-0.1,0.4-0.1,0.6C114.3,8.7,114.3,8.9,114.4,9.1z"/>
	<path id="XMLID_42_" class="st14" d="M113,8L113,8c0,0,0.1,0,0.2,0c0.3,0,0.6-0.2,0.9-0.4l0,0l0,0c0-0.1-0.1-0.1-0.1-0.1s0,0,0-0.1
		s-0.1-0.1-0.1-0.2l0,0l0,0l0,0C113.6,7.5,113.1,7.7,113,8z"/>
	<path id="XMLID_41_" class="st14" d="M112.9,7.1C112.8,7.1,112.8,7.1,112.9,7.1c0,0.1,0.1,0.1,0.2,0.2c0.3,0.1,0.7,0.2,1,0.2l0,0
		l0,0c0-0.1,0-0.1,0-0.1V7.2c0-0.1,0-0.1,0.1-0.2l0,0l0,0C113.6,6.9,113.1,6.9,112.9,7.1z"/>
	<path id="XMLID_40_" class="st14" d="M115.4,8.9L115.4,8.9c0.1-0.1,0.1-0.1,0.1-0.2c0-0.2-0.1-0.3-0.1-0.4
		c-0.1-0.2-0.2-0.3-0.3-0.5l0,0l0,0c-0.1,0-0.1,0.1-0.1,0.1s0,0-0.1,0l0,0c-0.1,0-0.1,0.1-0.2,0.1l0,0l0,0l0,0
		C114.9,8.3,115.1,8.7,115.4,8.9z"/>
	<path id="XMLID_39_" class="st14" d="M113.9,5.6L113.9,5.6c-0.1,0.1-0.1,0.1-0.1,0.2c0,0.3,0.2,0.6,0.4,0.9l0,0l0,0
		c0.1,0,0.1-0.1,0.1-0.1s0,0,0.1,0s0.1-0.1,0.2-0.1l0,0l0,0l0,0C114.4,6.2,114.1,5.7,113.9,5.6z"/>
	<path id="XMLID_38_" class="st14" d="M116.4,7.4L116.4,7.4c0-0.1-0.1-0.1-0.2-0.2c-0.3-0.1-0.7-0.2-1-0.2l0,0l0,0
		c0,0.1,0,0.1,0,0.1v0.1c0,0.1,0,0.1-0.1,0.2l0,0l0,0l0,0c0.2,0.1,0.4,0.1,0.5,0.1C116,7.6,116.3,7.5,116.4,7.4z"/>
	<path id="XMLID_37_" class="st14" d="M115.6,6.1c0.1-0.1,0.1-0.3,0.1-0.4l0,0c-0.1,0-0.2,0.1-0.2,0.1c-0.1,0.1-0.2,0.2-0.3,0.3
		s-0.1,0.1-0.1,0.1c-0.1,0.1-0.1,0.2-0.2,0.3l0,0l0,0c0.1,0,0.1,0.1,0.1,0.1s0,0,0.1,0c0.1,0.1,0.1,0.1,0.1,0.1l0,0l0,0
		c0.1-0.1,0.1-0.1,0.2-0.2C115.4,6.4,115.5,6.3,115.6,6.1z"/>
	<path id="XMLID_36_" class="st14" d="M116.3,6.5L116.3,6.5c-0.1-0.1-0.1-0.1-0.2-0.1c-0.2,0-0.5,0.1-0.7,0.3
		c-0.1,0.1-0.2,0.1-0.2,0.1l0,0l0,0c0,0.1,0.1,0.1,0.1,0.1s0,0,0,0.1s0.1,0.1,0.1,0.2l0,0l0,0l0,0c0.1-0.1,0.3-0.1,0.4-0.2
		C115.9,6.8,116.2,6.7,116.3,6.5z"/>
	<path id="XMLID_35_" class="st15" d="M103.7,12.3c-0.5-0.8,0.1-1.3,0.5-1.5c-0.5-1-1.6-1.6-1.5-0.3c-0.4-0.4-1.6,0-0.6,0.8
		c-0.7-0.1-1.5,0.6-0.2,1.1c-0.6,0.5,0.2,0.9,0.9,0.9C102.9,13.2,103,12.5,103.7,12.3z"/>
	<path id="XMLID_34_" class="st16" d="M107.1,16.5c0,0,0-0.1-0.1-0.3c0-0.1,0-0.2-0.1-0.2c0-0.1,0-0.1,0-0.1
		c-0.1-0.2-0.2-0.5-0.3-0.8c0-0.1-0.1-0.1-0.1-0.1s0,0,0-0.1c-0.2-0.3-0.4-0.7-0.7-1.1c0.3-0.1,0.8-0.2,1.2-0.5
		c0.1-0.1,0.2-0.2,0.2-0.3s0.1-0.1,0.1-0.1c-0.1-0.1-0.1-0.1-0.1-0.1c-0.1-0.1-0.2-0.2-0.3-0.2c-0.6-0.2-1,0.7-1.2,1.1
		c-0.4-0.4-0.8-0.9-1.5-1.2c0.3-0.8-0.2-1.6-0.2-1.6l0,0c-0.4,0.2-1,0.7-0.5,1.5c-0.7,0.2-0.8,0.8-0.9,1.1c0,0.1,0,0.1,0,0.1
		s1,0,1.4-0.8c0.7,0.4,1.2,0.9,1.5,1.4c-0.4,0-1.2,0.1-1.5,0.7c1.1,0.5,1.5-0.1,1.6-0.5c0.2,0.2,0.3,0.5,0.4,0.7
		c0,0.1,0.1,0.1,0.1,0.2c0.2,0.3,0.2,0.6,0.3,0.8c0,0.1,0,0.1,0,0.1c0.1,0.2,0.1,0.3,0.1,0.3c0,0.1,0,0.1,0,0.2l0,0
		C106.9,16.5,107,16.5,107.1,16.5L107.1,16.5L107.1,16.5z"/>
	<path id="XMLID_33_" class="st9" d="M109.7,14.1c0,0.2-0.1,0.4-0.1,0.6c0,0.1,0,0.1,0,0.2c0,0.2,0,0.4-0.1,0.6c0,0,0,0,0,0.1
		s0,0.2,0,0.3s0,0.2,0,0.3c0,0.2,0,0.5,0,0.7c0.2,0,0.3,0,0.4,0c0-0.4,0-0.7,0-1c0-0.1,0-0.2,0-0.3c0,0,0,0,0-0.1
		c0-0.2,0-0.4,0.1-0.6c0-0.1,0-0.1,0-0.2c0.1-0.4,0.1-0.8,0.1-1.1C110,13.9,109.9,14.1,109.7,14.1z"/>
	<path id="XMLID_32_" class="st2" d="M108.7,11.3L108.7,11.3L108.7,11.3c0,0,0.4,0.3,0.8,0.4c0-0.2,0.1-0.4,0.2-0.5
		c-0.9-0.9-2.3-1-1.7,0c-1.1,0.7,0.5,1.3,1.6,0.7c-0.1-0.1-0.1-0.2-0.1-0.2C109,11.6,108.7,11.3,108.7,11.3z"/>
	<path id="XMLID_31_" class="st2" d="M111.6,13.2c1.1,0.1,0.5-1-0.5-1.4c1.1,0.1,1.9-0.4,1-1c0.5-1-0.8-0.9-1.5-0.1
		c0.5-1,0.4-1.9-0.5-1.3c-0.2-0.2-0.3-0.3-0.4-0.3c0.1,0.1,0.2,0.2,0,0.3s-0.4,0.1-0.5,0.2c-0.1,0.4,0,1,0.4,1.5l0.1-0.1
		c0.1-0.1,0.3-0.1,0.4-0.1c-0.1-0.4-0.1-0.7-0.1-0.7l0,0l0,0c0,0,0,0.3,0.1,0.7c0.1,0,0.2,0.1,0.3,0.1c0,0,0,0,0.1,0
		c0.1,0.1,0.2,0.1,0.2,0.2c0.1,0.1,0.1,0.1,0.1,0.2c0.4-0.2,0.7-0.3,0.7-0.3l0,0l0,0c0,0-0.3,0.1-0.7,0.3c0,0.1,0.1,0.2,0,0.3
		c0,0,0,0,0,0.1s-0.1,0.2-0.2,0.3c0.1,0.2,0.3,0.4,0.5,0.5l0,0l0,0l0,0c-0.2-0.2-0.4-0.3-0.5-0.5c-0.1,0.1-0.1,0.1-0.1,0.1
		c-0.1,0-0.1,0.1-0.1,0.1h-0.1c0,0,0,0-0.1,0s-0.3,0-0.4,0h-0.1c-0.2,0.2-0.3,0.5-0.4,0.8l0,0l0,0l0,0c0.1-0.3,0.3-0.6,0.4-0.8
		c-0.1-0.1-0.2-0.1-0.3-0.2c-1.1,0.7-1.5,1.9-0.4,1.6c0.1,0.1,0.1,0.2,0.1,0.2l0,0c0.1,0.2,0.3,0.3,0.4,0.3c0.2-0.1,0.4-0.2,0.5-0.5
		s0.2-0.6,0.2-1C110.7,13.7,111.5,14.2,111.6,13.2z"/>
	<path id="XMLID_30_" class="st17" d="M110.1,10.2L110.1,10.2L110.1,10.2c-0.1,0-0.1,0.3,0,0.7c0,0,0,0,0.1,0
		C110.1,10.5,110.1,10.2,110.1,10.2z"/>
	<path id="XMLID_29_" class="st17" d="M111.1,12.6L111.1,12.6L111.1,12.6C111.1,12.5,111.1,12.5,111.1,12.6
		c-0.2-0.2-0.4-0.4-0.5-0.5l0,0C110.7,12.2,110.9,12.4,111.1,12.6z"/>
	<path id="XMLID_28_" class="st17" d="M111.4,11.2C111.4,11.2,111.4,11.1,111.4,11.2C111.4,11.1,111.4,11.1,111.4,11.2
		c0-0.1-0.3,0.1-0.7,0.3c0,0,0,0,0,0.1C111.1,11.2,111.4,11.2,111.4,11.2z"/>
	<path id="XMLID_27_" class="st17" d="M109.4,12.9C109.4,12.9,109.4,13,109.4,12.9C109.4,13,109.4,13,109.4,12.9
		C109.4,13,109.4,13,109.4,12.9c0.1-0.3,0.3-0.5,0.5-0.8c0,0,0,0-0.1,0C109.7,12.4,109.5,12.6,109.4,12.9z"/>
	<path id="XMLID_26_" class="st17" d="M108.7,11.3L108.7,11.3c0,0,0.4,0.3,0.8,0.4c0,0,0,0,0-0.1C109,11.5,108.7,11.3,108.7,11.3
		L108.7,11.3z"/>
	<path id="XMLID_25_" class="st3" d="M109.5,11.6C109.5,11.7,109.5,11.7,109.5,11.6c0,0.1,0.1,0.2,0.1,0.3c0,0,0,0.1,0.1,0.1
		c0,0,0,0.1,0.1,0.1c0.1,0.1,0.2,0.2,0.3,0.2c0,0,0,0,0.1,0h0.1c0.1,0.1,0.2,0.1,0.4,0c0,0,0,0,0.1,0h0.1c0.1,0,0.1-0.1,0.1-0.1
		c0.1-0.1,0.1-0.1,0.1-0.1l0,0c0.1-0.1,0.2-0.2,0.2-0.3c0,0,0,0,0-0.1s0-0.2,0-0.3c0,0,0,0,0-0.1s-0.1-0.1-0.1-0.2
		c-0.1-0.1-0.2-0.2-0.2-0.2s0,0-0.1,0c-0.1-0.1-0.2-0.1-0.3-0.1c0,0,0,0-0.1,0s-0.3,0.1-0.4,0.1S110,11,110,11l-0.1,0.1
		C109.5,11.3,109.5,11.5,109.5,11.6z"/>
	<path id="XMLID_124_" class="st18" d="M107.3,9.1c0.5,0.4,1.1,0.7,2.1,0.5c0.2-0.1,0.3-0.1,0.5-0.2c0.1-0.1,0.1-0.2,0-0.3
		c-0.2-0.2-0.4-0.4-0.3-0.6c0.1-0.3,0.8-0.1,0.9-0.3s-0.4-1.6-1.9-1.8c0.6-0.4,1.1-1.1,1-2.4c-0.1-0.3-0.7,0.3-0.9,0.1
		c-0.2-0.2,0.2-0.8-0.1-0.9c-0.2-0.2-1.6-0.1-2.3,1.3c-0.2-0.7-0.7-1.4-1.9-1.6c-0.3-0.1,0.1,0.7-0.2,0.9c-0.3,0.2-0.7-0.4-0.9-0.2
		c-0.2,0.1-0.5,1.2,0.3,2.1c-0.6,0.1-1.2,0.4-1.7,1.1c-0.2,0.3,0.7,0.3,0.7,0.5c0.1,0.3-0.6,0.5-0.6,0.7c0,0.2,1.1,1.2,2.6,0.5
		c-0.4,0.7-0.4,1.5,0.4,2.5c0.2,0.3,0.4-0.6,0.7-0.6c0.3,0.1,0.3,0.7,0.5,0.8c0.1,0,0.5-0.2,0.8-0.5c0.1-0.1,0.2-0.2,0.2-0.4
		C107.3,10.2,107.4,9.7,107.3,9.1z M106.8,10c-0.2,0.3-0.5,0.5-0.6,0.4c-0.2-0.1-0.2-0.6-0.4-0.6c-0.2-0.1-0.4,0.6-0.5,0.4
		c-0.6-0.8-0.5-1.4-0.3-1.9c0.1-0.1,0.1-0.2,0.2-0.3c-0.2,0.1-0.3,0.2-0.4,0.2c-1,0.4-1.8-0.3-1.8-0.4c0-0.2,0.5-0.3,0.5-0.6
		C103.4,7,102.8,7,103,6.8c0.4-0.5,0.8-0.7,1.2-0.8c0.1,0,0.2-0.1,0.3-0.1c-0.1-0.1-0.2-0.2-0.3-0.4c-0.4-0.6-0.2-1.3-0.1-1.4
		c0.2-0.1,0.5,0.3,0.7,0.2s-0.1-0.7,0.1-0.7c0.9,0.2,1.3,0.7,1.5,1.2c0.1,0.1,0.1,0.2,0.1,0.3c0.1-0.2,0.1-0.3,0.2-0.5
		c0.5-1,1.5-1,1.6-0.9c0.2,0.2-0.2,0.6,0.1,0.7c0.2,0.2,0.6-0.3,0.7-0.1c0.1,1-0.3,1.5-0.8,1.7c-0.1,0.1-0.2,0.1-0.3,0.2
		c0.2,0,0.3,0,0.5,0.1c1.1,0.2,1.4,1.2,1.3,1.3c-0.1,0.2-0.6,0.1-0.7,0.2c-0.1,0.2,0.5,0.5,0.3,0.6c-0.9,0.3-1.5,0.1-1.9-0.3
		c-0.1-0.1-0.2-0.2-0.2-0.2c0.1,0.2,0.1,0.3,0.1,0.5c0.1,0.3,0,0.6-0.1,0.8C106.9,9.8,106.8,9.9,106.8,10z"/>
	<path id="XMLID_121_" class="st19" d="M107.1,8.8c0-0.2-0.1-0.3-0.1-0.5c0.1,0.1,0.1,0.2,0.2,0.2c0.4,0.4,1,0.6,1.9,0.3
		c0.2-0.1-0.3-0.4-0.3-0.6c0.1-0.2,0.6-0.1,0.7-0.2c0.1-0.2-0.2-1.1-1.3-1.3c-0.2,0-0.3-0.1-0.5-0.1c0.1-0.1,0.2-0.1,0.3-0.2
		c0.5-0.3,0.8-0.8,0.8-1.7c-0.1-0.2-0.5,0.2-0.7,0.1c-0.2-0.1,0.1-0.6-0.1-0.7C107.9,4,106.9,4,106.4,5c-0.1,0.2-0.1,0.3-0.2,0.5
		c0-0.1-0.1-0.2-0.1-0.3c-0.2-0.5-0.6-1-1.5-1.2c-0.2-0.1,0.1,0.5-0.1,0.7c-0.2,0.1-0.5-0.3-0.7-0.2c-0.1,0.1-0.3,0.7,0.1,1.4
		c0.1,0.1,0.2,0.3,0.3,0.4c-0.1,0-0.2,0-0.3,0.1c-0.4,0.1-0.8,0.3-1.2,0.8c-0.2,0.2,0.5,0.2,0.5,0.4c0.1,0.2-0.5,0.4-0.5,0.6
		s0.8,0.8,1.8,0.4c0.2-0.1,0.3-0.1,0.4-0.2c-0.1,0.1-0.1,0.2-0.2,0.3c-0.3,0.5-0.3,1.1,0.3,1.9c0.2,0.2,0.3-0.4,0.5-0.4
		c0.2,0.1,0.2,0.6,0.4,0.6c0.1,0,0.4-0.2,0.6-0.4c0.1-0.1,0.2-0.3,0.2-0.4C107.1,9.4,107.1,9.2,107.1,8.8z M106.5,8.7L106.5,8.7
		L106.5,8.7L106.5,8.7l-0.2-0.9c-0.2,0-0.3,0-0.5-0.1l-0.3,0.8l0,0l0,0l0,0l0.3-0.8c-0.1-0.1-0.2-0.1-0.2-0.1l-0.1-0.1l-0.1-0.1
		l-0.1-0.1L105,8l-0.2,0.1l0,0l0,0l0,0l0.3-0.2l0.4-0.3l0,0c-0.1-0.1-0.2-0.3-0.2-0.4l-0.9,0.2l0,0l0,0l0,0l0.9-0.2
		c0-0.1,0-0.2,0-0.3V6.8c0-0.1,0-0.1,0.1-0.2l-0.8-0.3l0,0l0,0l0.9,0.3l0,0c0-0.1,0.1-0.1,0.1-0.1c0.1-0.1,0.1-0.2,0.2-0.2l-0.6-0.7
		l0,0l0,0l0.6,0.7c0.1-0.1,0.3-0.2,0.4-0.2L106,5.3l0,0l0,0l0.1,0.8v0.1h0.1h0.1c0.1,0,0.1,0,0.1,0c0.1,0,0.2,0.1,0.2,0.1l0.3-0.8
		l0,0l0,0l-0.2,0.8c0.2,0.1,0.3,0.2,0.4,0.3l0.7-0.5l0,0l0,0L107,6.4c0.1,0.1,0.1,0.2,0.2,0.3v0.1v0.1l0,0l0.8-0.1l0,0l0,0l-0.8,0.1
		c0,0.1,0,0.1,0,0.1c0,0.2,0,0.3-0.1,0.4l0.8,0.3l0,0l0,0l0,0l-0.8-0.3c-0.1,0.2-0.2,0.3-0.3,0.4l0.5,0.7l0,0l0,0l0,0l-0.5-0.7
		l-0.1,0.1c0,0,0,0-0.1,0c0,0,0,0-0.1,0c0,0-0.1,0-0.1,0.1c-0.1,0-0.1,0.1-0.1,0.1h-0.1h-0.1L106.5,8.7z"/>
	<path id="XMLID_19_" class="st20" d="M106.4,7.9l0.2,0.9l0,0l0,0l0,0L106.4,7.9L106.4,7.9L106.4,7.9z"/>
	<path id="XMLID_18_" class="st20" d="M106.1,6.1L106.1,6.1L106.1,6.1L106,5.3l0,0l0,0L106.1,6.1L106.1,6.1L106.1,6.1z"/>
	<path id="XMLID_17_" class="st20" d="M105.6,8.6L105.6,8.6L105.6,8.6L105.6,8.6l0.4-0.8l0,0L105.6,8.6z"/>
	<path id="XMLID_15_" class="st20" d="M106.9,5.4L106.9,5.4L106.9,5.4l-0.4,0.8l0,0L106.9,5.4z"/>
	<path id="XMLID_14_" class="st20" d="M105.1,7.9l-0.3,0.2l0,0l0,0l0,0L105.1,7.9l0.4-0.3l0,0L105.1,7.9z"/>
	<path id="XMLID_13_" class="st20" d="M107.6,5.9L107.6,5.9L107.6,5.9L107,6.4l0,0L107.6,5.9z"/>
	<path id="XMLID_12_" class="st20" d="M105.3,7.1l-0.9,0.2l0,0l0,0l0,0L105.3,7.1L105.3,7.1L105.3,7.1z"/>
	<path id="XMLID_9_" class="st20" d="M107.2,6.8l0.8-0.1l0,0l0,0L107.2,6.8L107.2,6.8L107.2,6.8z"/>
	<path id="XMLID_8_" class="st20" d="M107.9,7.6L107.9,7.6L107.9,7.6L107.9,7.6l-0.8-0.3l0,0L107.9,7.6z"/>
	<path id="XMLID_6_" class="st20" d="M104.6,6.3L104.6,6.3C104.5,6.3,104.5,6.3,104.6,6.3l0.8,0.4l0,0L104.6,6.3z"/>
	<path id="XMLID_5_" class="st20" d="M107.3,8.3L107.3,8.3L107.3,8.3L107.3,8.3l-0.5-0.7l0,0L107.3,8.3z"/>
	<path id="XMLID_3_" class="st20" d="M105.1,5.6L105.1,5.6L105.1,5.6l0.5,0.7l0,0L105.1,5.6z"/>
	<path id="XMLID_105_" class="st21" d="M106.5,7.9C106.6,7.9,106.6,7.9,106.5,7.9c0.1-0.1,0.2-0.1,0.2-0.2c0,0,0,0,0.1,0
		c0,0,0,0,0.1,0l0.1-0.1l0,0c0.1-0.1,0.2-0.2,0.3-0.4l0,0c0.1-0.1,0.1-0.3,0.1-0.4s0-0.1,0-0.1l0,0l0,0l0,0v0.1l0,0
		c-0.1-0.1-0.1-0.2-0.2-0.3l0,0c-0.1-0.1-0.2-0.2-0.4-0.3l0,0c-0.1,0-0.2-0.1-0.2-0.1h-0.1h-0.1h-0.1l0,0l0,0l0,0
		c-0.2,0-0.3,0.1-0.4,0.2l0,0c-0.1,0.1-0.2,0.2-0.2,0.2c0,0.1-0.1,0.1-0.1,0.1v0.1l0,0c0,0.1-0.1,0.1-0.1,0.2V7c0,0.1,0,0.2,0,0.3
		l0,0l0,0c0,0.2,0.1,0.3,0.2,0.4l0,0l0,0l0.1,0.1l0.1,0.1L106,8c0.1,0.1,0.2,0.1,0.2,0.1l0,0c0.2,0.1,0.3,0.1,0.5,0.1l0,0l0,0h0.1
		C106.5,7.9,106.5,7.9,106.5,7.9z"/>
</g>
<g id="XMLID_109_">
	<path id="XMLID_111_" class="st1" d="M33.8,16.5c0.9-0.2,2-0.2,3.1-0.2c2,0,3.3,0.4,4.3,1.1c1.1,0.8,1.7,2.1,1.7,3.9
		c0,2-0.7,3.3-1.7,4.2c-1.1,0.9-2.8,1.3-4.8,1.3c-1.2,0-2.1-0.1-2.7-0.2L33.8,16.5L33.8,16.5z M37,25c2.1,0,3.5-1.1,3.5-3.6
		c0-2.2-1.2-3.3-3.3-3.3c-0.5,0-0.8,0.1-1.1,0.1V25C36.4,25,36.7,25,37,25z"/>
	<path id="XMLID_114_" class="st1" d="M48,19.1c2.3,0,3.8,1.5,3.8,3.9c0,2.8-2.2,3.9-4.1,3.9c-2.2,0-3.8-1.4-3.8-3.9
		C44,20.4,45.8,19.1,48,19.1z M47.9,25.2c1,0,1.5-1,1.5-2.2c0-1.1-0.4-2.3-1.5-2.3s-1.5,1.2-1.5,2.3C46.4,24.2,46.9,25.2,47.9,25.2z
		"/>
	<path id="XMLID_117_" class="st1" d="M53.3,21.6c0-0.9-0.1-1.7-0.1-2.4h2.1l0.1,1h0.1c0.3-0.5,1.1-1.2,2.3-1.2c1.5,0,2.7,1,2.7,3.2
		v4.5H58v-4.2c0-1-0.4-1.6-1.2-1.6c-0.7,0-1,0.5-1.2,0.9c-0.1,0.2-0.1,0.4-0.1,0.6v4.4h-2.4L53.3,21.6
		C53.2,21.6,53.3,21.6,53.3,21.6z"/>
	<path id="XMLID_119_" class="st1" d="M65.7,19.1c2.4,0,3.4,1.9,3.4,3.7c0,0.4-0.1,0.8-0.1,0.9h-4.8c0.1,1,1,1.4,2.1,1.4
		c0.8,0,1.4-0.1,2.1-0.3l0.3,1.6c-0.8,0.3-1.7,0.5-2.7,0.5c-2.6,0-4-1.5-4-3.8C61.9,21.2,63.1,19.1,65.7,19.1z M66.9,22.1
		c0-0.6-0.3-1.5-1.3-1.5s-1.4,0.9-1.4,1.5H66.9z"/>
	<path id="XMLID_123_" class="st1" d="M70.6,16.5c0.8-0.1,1.8-0.2,2.9-0.2c1.9,0,3.3,0.5,4.2,1.3c0.9,0.8,1.4,2.1,1.4,3.7
		c0,1.7-0.5,3.1-1.5,4.1S75,26.9,73,26.9c-1,0-1.7-0.1-2.5-0.1L70.6,16.5L70.6,16.5z M73.3,25.7c2.9,0,4.4-1.6,4.4-4.4
		c0-2.5-1.4-4-4.2-4c-0.7,0-1.2,0.1-1.6,0.2v8.2C72.3,25.7,72.8,25.7,73.3,25.7z"/>
	<path id="XMLID_127_" class="st1" d="M83.8,19.1c2.4,0,3.1,2.2,3.1,3.5c0,0.3,0,0.5-0.1,0.6h-5.2c0.1,1.8,1.2,2.6,2.5,2.6
		c1,0,1.6-0.2,2.1-0.4l0.2,1c-0.5,0.2-1.3,0.5-2.5,0.5c-2.3,0-3.6-1.5-3.6-3.7C80.3,20.9,81.6,19.1,83.8,19.1z M85.6,22.3
		c0-0.8-0.4-2.2-1.9-2.2c-1.4,0-1.9,1.2-2.1,2.2H85.6z"/>
	<path id="XMLID_130_" class="st1" d="M88.4,25.4c0.4,0.3,1.1,0.5,1.8,0.5c1,0,1.4-0.5,1.4-1.1s-0.4-1-1.4-1.3
		c-1.3-0.5-1.9-1.2-1.9-2.1c0-1.2,1-2.2,2.6-2.2c0.8,0,1.4,0.2,1.8,0.5l-0.3,1c-0.3-0.2-0.8-0.5-1.5-0.5c-0.8,0-1.2,0.5-1.2,1
		c0,0.6,0.4,0.9,1.4,1.3c1.3,0.5,1.9,1.1,1.9,2.2c0,1.3-1,2.3-2.8,2.3c-0.8,0-1.6-0.2-2.1-0.5L88.4,25.4z"/>
	<path id="XMLID_132_" class="st1" d="M94.7,15.8H96v6.9h0.1c0.2-0.3,0.4-0.6,0.7-0.8l2.2-2.6h1.6l-2.9,3.1l3.3,4.4h-1.6l-2.6-3.6
		L96.1,24v2.8h-1.4V15.8z"/>
</g>
</svg>
