<?xml version="1.0" encoding="utf-8"?>
<!-- Generator: Adobe Illustrator 19.0.0, SVG Export Plug-In . SVG Version: 6.00 Build 0)  -->
<svg version="1.0" id="Layer_1" xmlns="http://www.w3.org/2000/svg" xmlns:xlink="http://www.w3.org/1999/xlink" x="0px" y="0px"
	 width="233.6px" height="71.8px" viewBox="146.4 -32.8 233.6 71.8" style="enable-background:new 146.4 -32.8 233.6 71.8;"
	 xml:space="preserve">
<style type="text/css">
	.st0{fill:#2C8DCA;}
	.st1{fill:#FBB03C;}
	.st2{fill:#F15C27;}
	.st3{opacity:0.8;}
	.st4{fill:#F1F9FE;}
	.st5{opacity:0.41;}
	.st6{fill:#FFFFFF;}
	.st7{fill:#C0D8DB;}
	.st8{fill:none;}
	.st9{fill:#67B090;}
	.st10{fill:#738D6E;}
	.st11{fill:#708F8B;}
	.st12{fill:#EE375C;}
	.st13{fill:#F16672;}
	.st14{fill:#F8B2B0;}
	.st15{fill:#2AAAE2;}
	.st16{fill:#697755;}
	.st17{fill:#333333;}
	.st18{fill:#F06AA2;}
	.st19{fill:#F38BAE;}
	.st20{fill:#010101;}
	.st21{fill:#F8C214;}
</style>
<path id="XMLID_61_" class="st0" d="M200.5-23.2h-46.7c-4,0-7.4,3.4-7.4,7.4v36c0,4,3.4,7.4,7.4,7.4h1.4V39l13-11.4h32.2
	c4,0,7.4-3.4,7.4-7.4v-36C207.9-19.8,204.5-23.2,200.5-23.2z M196-5.8c-7.1,7.9-14,15.9-21.1,23.8c-0.5,0.5-0.8,0.6-1.3,0.2
	c-3.2-2.9-6.4-5.6-9.5-8.5c-2.3-1.9-4.3-3.9-6.6-5.8c-0.2-0.2-0.5-0.5-0.8-0.8c2.3-2.6,4.3-5,6.6-7.6c2.3,2.1,4.5,4,6.8,6
	c0.8,0.8,1.8,1.4,2.6,2.3c0.5,0.5,1,0.3,1.3-0.2c2.1-2.4,4.2-4.7,6.3-7.1c3.7-4,7.2-8.2,10.9-12.2c0.3-0.3,0.3-0.3,0.6-0.6
	c2.6,2.3,5,4.5,7.6,6.8C198.2-8.4,197.1-7.1,196-5.8z"/>
<g id="XMLID_202_">
	<path id="XMLID_91_" class="st1" d="M374.1,23v-1.6v-0.1c0-1.2-4.9-2.1-10.9-2.1s-10.9,1-10.9,2.1v2l0,0c0.3,1.1,5.1,2,10.9,2
		s10.5-0.9,10.9-2l0,0l0,0v-0.1C374.1,23.1,374.1,23.1,374.1,23z"/>
</g>
<g id="XMLID_200_">
	<ellipse id="XMLID_90_" class="st2" cx="363.2" cy="21" rx="10.3" ry="2"/>
</g>
<g id="XMLID_198_">
	<ellipse id="XMLID_89_" class="st1" cx="363.2" cy="6.6" rx="14.3" ry="15.3"/>
</g>
<g id="XMLID_196_" class="st3">
	<path id="XMLID_88_" class="st4" d="M355.8-5.5c0.3,0.1,0.7,0.2,1,0.2c0,0-0.7,0.1-0.6,0.1c-3.9,7.7-6.4,15.8,0.8,22.1
		c1.4,1.2,5.8,2.2,9.8,1.4c3.6-0.8,2.9,0.7,2.9,0.7c-2,0.9-3.6,0.9-5.4,0.9c-4,0-7.7-1-9-2.5C347.4,8.7,352.4-1.3,355.8-5.5z"/>
</g>
<g id="XMLID_194_" class="st5">
	<path id="XMLID_87_" class="st6" d="M371.1-5.5c-0.3,0.1-0.7,0.2-1,0.2c0,0,0.7,0.1,0.6,0.1c3.9,7.7,6.4,15.8-0.8,22.1
		c-1.4,1.2-5.8,2.2-9.8,1.4c-3.6-0.8-2.9,0.7-2.9,0.7c2,0.9,3.6,0.9,5.4,0.9c4,0,7.7-1,9-2.5C379.4,8.7,374.5-1.3,371.1-5.5z"/>
</g>
<g id="XMLID_192_">
	<path id="XMLID_86_" class="st7" d="M352.6-7.9v1.6v0.1c0,1.2,4.9,2.1,10.9,2.1s10.9-1,10.9-2.1v-2l0,0c-0.4-1.1-5.1-2-10.9-2
		s-10.5,0.9-10.9,2l0,0l0,0v0.1C352.5-8,352.5-8,352.6-7.9z"/>
</g>
<g id="XMLID_190_">
	<ellipse id="XMLID_85_" class="st1" cx="363.4" cy="-8" rx="10.3" ry="1.9"/>
</g>
<g id="XMLID_188_" class="st5">
	<path id="XMLID_84_" class="st6" d="M355.3,21c0,0,7.5,2.8,16.2,0C371.6,21,362.6,22.5,355.3,21z"/>
</g>
<g id="XMLID_186_">
	<path id="XMLID_83_" class="st7" d="M371.6-7.4c0,0-7.5-2.8-16.2,0C355.3-7.4,364.3-8.9,371.6-7.4z"/>
</g>
<g id="XMLID_183_">
	<g id="XMLID_184_">
		<path id="XMLID_82_" class="st2" d="M374-8.4h-0.7c0.2,0.1,0.3,0.3,0.3,0.4c0,1-4.6,1.8-10.3,1.8c-5.7,0-10.3-0.9-10.3-1.9
			c0-0.2,0.1-0.3,0.3-0.4h-0.7c-0.1,0.1-0.1,0.2-0.2,0.3l0,0l0,0v0.1V-8v1.6v0.1c0,1.2,4.9,2.1,10.9,2.2c6,0,10.9-0.9,10.9-2.1v-2
			l0,0C374.2-8.2,374.1-8.3,374-8.4z"/>
	</g>
</g>
<g id="XMLID_107_">
	<path id="XMLID_81_" class="st8" d="M371.3-17.1c-0.3-0.4-0.5-1-0.6-1.7c-0.3,0.5-0.6,0.9-1,1.2c-0.6,2-1,3.9-1.4,5.8
		c1.6,0.7,2.2,1.4,2.3,2.1c0,0.1,0,0.2,0.1,0.3h0.1c0.1-0.1,0.2-0.2,0.2-0.3c0.4-0.4,0.7-0.8,1.1-1.3c-0.8,0-2.1-0.5-2.5-3.4
		c2.5,0.9,2.9,2.2,2.7,3c0.4-0.6,0.9-1.3,1.3-2.1c-0.8,0.1-2.2-0.1-2.9-3c2.7,0.6,3.2,1.8,3.1,2.7c0.4-0.8,0.7-1.6,1-2.5
		c-0.7,0.2-2,0.2-3-1.9C371.8-17.7,371.6-17.3,371.3-17.1z"/>
	<path id="XMLID_80_" class="st8" d="M372.2-18.7c0.1,0,0.2,0,0.3,0.1c-0.1-0.2-0.2-0.4-0.2-0.6C372.2-19.1,372.2-18.9,372.2-18.7z"
		/>
	<path id="XMLID_79_" class="st8" d="M375.7-19.2c0-0.1,0-0.2,0.1-0.3l-0.1-0.1C375.7-19.4,375.7-19.3,375.7-19.2z"/>
	<path id="XMLID_78_" class="st8" d="M356.4-9.7C356.4-9.6,356.4-9.6,356.4-9.7c0.1,0.1,0.1,0.2,0.1,0.3c0.2,0.6,0.4,1.1,0.5,1.5
		c0,0.1,0,0.2,0,0.2c0,0.2,0.1,0.3,0.1,0.4c0.1,0.4,0.1,0.6,0.1,0.6v0.1c0.3,0,0.7,0.1,1,0.1L358-7.7v-0.1v-0.3l-0.2-1.5v-0.3
		l-0.4-3c-0.7,0.7-1.8,0.9-2.3,1C355.7-11.1,356.1-10.3,356.4-9.7z"/>
	<path id="XMLID_77_" class="st8" d="M357.6-21c0.2,1.2,0,2.1-0.4,2.8l0.6,4.3c0.1,0.1,0.1,0.1,0.2,0.2c0,0.1-0.1,0.2-0.1,0.2
		l0.4,3.5v0.3l0.1,0.4c0-0.1,0-0.2,0.1-0.4c0-0.1,0.1-0.2,0.1-0.3c0.3-0.7,1.2-1.6,3-1.8c-0.1-0.1-0.1-0.2-0.2-0.4
		c-2.3,0.6-1.4-1.8,0.7-3.2c0,0,0-0.1-0.1-0.1c0,0,0-0.1-0.1-0.1c-2.1,1.1-5.1-0.1-3.1-1.4c-1.1-2.1,1.5-1.8,3.3,0l0.1-0.1
		c-0.7-0.9-0.9-2.2-0.7-3C359.8-19.6,358.5-20.2,357.6-21z"/>
	<path id="XMLID_76_" class="st8" d="M368-9.7c-0.1,0.5-0.1,0.9-0.2,1.4c0,0.1,0,0.2,0,0.3l0,0c-0.1,0.4-0.1,0.8-0.1,1.2
		c0.4-0.2,0.8-0.5,1.2-0.8c0.1-0.1,0.3-0.2,0.4-0.3c0.1-0.1,0.2-0.1,0.2-0.2c0.2-0.2,0.4-0.4,0.6-0.6c-0.5-0.1-1-0.4-1.4-1.1
		c-0.1-0.1-0.1-0.2-0.2-0.3c-0.1-0.3-0.2-0.5-0.3-0.9c0,0.3-0.1,0.6-0.1,0.9C368.1-9.9,368.1-9.8,368-9.7z"/>
	<path id="XMLID_75_" class="st8" d="M376.6-20.3c0.1-0.1,0.1-0.1,0.2-0.2c-0.1,0-0.3-0.1-0.4-0.2C376.5-20.6,376.6-20.4,376.6-20.3
		z"/>
	<path id="XMLID_74_" class="st8" d="M375.2-17.8c-0.5-0.2-0.9-0.6-1.3-1.2c0,0.3,0,0.5,0,0.8c0.9,0.5,1.2,1.3,1.2,1.8
		c0.3-0.8,0.5-1.7,0.7-2.7c-0.1,0.1-0.3,0.1-0.5,0.2C375.3-18.5,375.3-18.1,375.2-17.8z"/>
	<path id="XMLID_73_" class="st7" d="M357.2-6.5L357.2-6.5c0.3,0,0.7,0.1,1,0.1l0,0C357.9-6.4,357.5-6.5,357.2-6.5z"/>
	<path id="XMLID_72_" class="st9" d="M357.2-18.2c-0.1,0.2-0.3,0.5-0.4,0.7l0.4,3.4c0.2,0,0.4,0.2,0.6,0.3L357.2-18.2z"/>
	<path id="XMLID_71_" class="st9" d="M358.4-9.2l-0.1-0.4v-0.3l-0.4-3.5c-0.1,0.2-0.3,0.4-0.4,0.6l0.4,3v0.3l0.2,1.5v0.3v0.1
		l0.2,1.2l0,0c0.2,0,0.3,0,0.5,0.1l-0.2-1.4l0,0V-8l-0.1-0.9l0,0C358.3-9.1,358.4-9.1,358.4-9.2z"/>
	<path id="XMLID_70_" class="st10" d="M358.6-9.9c-0.1,0.1-0.1,0.2-0.1,0.3c-0.1,0.2-0.1,0.3-0.1,0.4c0,0.1,0,0.1,0,0.1l0,0
		c1.1,0.2,1.8-0.2,2.3-0.7c0.1-0.1,0.2-0.2,0.3-0.3c0.5-0.7,0.6-1.5,0.7-1.7l0,0C359.8-11.6,359-10.7,358.6-9.9z"/>
	<path id="XMLID_69_" class="st9" d="M375.4-31.6c-0.2,0.5-0.3,1-0.3,1.4c0.3-0.3,0.7-0.5,1-0.6C375.9-31,375.7-31.3,375.4-31.6z"/>
	<path id="XMLID_68_" class="st9" d="M380-21.1c-0.9-0.1-1.6-0.1-2.1,0.1c0.1,0.2,0.2,0.5,0.3,0.7c-0.4,0.1-0.9,0-1.4-0.2
		c-0.1,0.1-0.1,0.1-0.2,0.2c0.2,0.5,0.4,0.9,0.4,1.3c-0.3,0-0.5-0.1-0.8-0.3c0,0,0,0-0.1,0c-0.1-0.1-0.2-0.1-0.3-0.2
		c0,0.1,0,0.2-0.1,0.3c0-0.1,0-0.2-0.1-0.4c-0.3-0.2-0.5-0.4-0.8-0.6c0.2,0.4,0.3,0.9,0.3,1.3c0.2,0,0.3-0.1,0.5-0.2
		c-0.2,1-0.4,1.8-0.7,2.7c0-0.5-0.2-1.3-1.2-1.8c-0.1,0.4-0.1,0.7-0.3,1c-0.4-0.3-0.8-0.8-1-1.4c-0.1,0-0.2,0-0.3-0.1
		c-0.1,0.2-0.1,0.5-0.2,0.7c1,2.1,2.3,2.2,3,1.9c-0.3,0.9-0.6,1.7-1,2.5c0-0.8-0.4-2.1-3.1-2.7c0.7,2.9,2.1,3.1,2.9,3
		c-0.4,0.8-0.8,1.5-1.3,2.1c0.1-0.8-0.2-2.1-2.7-3c0.3,2.9,1.6,3.4,2.5,3.4c-0.3,0.5-0.7,0.9-1.1,1.3c-0.1,0.1-0.2,0.2-0.2,0.3
		l-0.1,0.1v-0.1c0-0.1,0-0.2-0.1-0.3c-0.2-0.7-0.8-1.5-2.3-2.1c-0.1,0.3-0.1,0.6-0.2,0.9c0.1,0.3,0.2,0.6,0.3,0.9
		c0.1,0.1,0.1,0.2,0.2,0.3c0.4,0.7,1,1,1.4,1.1c-0.2,0.2-0.4,0.4-0.6,0.6c-0.1,0.1-0.2,0.1-0.2,0.2c-0.1,0.1-0.3,0.2-0.4,0.3
		c-0.4,0.3-0.8,0.6-1.2,0.8c0,0.1,0,0.1,0,0.2c0.4-0.1,0.9-0.4,1.5-0.8c0.2-0.1,0.3-0.2,0.5-0.4c-0.1,0.1-0.1,0.1-0.2,0.2
		c0.2,0.3,0.5,0.7,1,0.8c0.7,0.3,1.7,0.2,3.3-0.6c-0.1-0.1-0.3-0.2-0.4-0.2c-1.7-1-2.8-0.9-3.4-0.5c0.2-0.2,0.4-0.3,0.5-0.5h0.1
		c0-0.1,0-0.1,0.1-0.2c0.2-0.2,0.3-0.3,0.5-0.5c0.1-0.1,0.2-0.2,0.2-0.3c0.2-0.3,0.4-0.5,0.7-0.8c0.6,0.6,1.9,1.2,4.2-0.7
		c-1.7-0.7-2.8-0.6-3.4-0.3c0.4-0.6,0.8-1.2,1.2-1.8c0.6,0.5,2,0.9,4-1c-1.8-0.6-2.8-0.4-3.5,0c0.3-0.6,0.6-1.3,0.8-2
		c0.7,0.4,2.1,0.5,3.8-1.6c-1.9-0.4-2.9-0.1-3.4,0.4c0.1-0.6,0.3-1.3,0.4-2C376.9-18.8,378.3-18.5,380-21.1z"/>
	<path id="XMLID_67_" class="st9" d="M376.8-29.5c-0.1-0.3-0.3-0.6-0.5-1c0,0.4-0.1,0.9-0.4,1.4C376.2-29.3,376.5-29.4,376.8-29.5z"
		/>
	<path id="XMLID_66_" class="st9" d="M376.8-22.2c0.1,0,0.3,0,0.4,0C377.1-22.2,376.9-22.2,376.8-22.2L376.8-22.2z"/>
	<path id="XMLID_65_" class="st9" d="M378.8-27.8c-0.2,0.5-0.6,0.9-1.2,1.3c0.4,0,0.8,0,1.1,0.1c0.4-0.4,0.8-1.1,1.1-2
		c-0.8,0.1-1.4,0.3-1.9,0.5C378.3-28,378.5-27.9,378.8-27.8z"/>
	<path id="XMLID_64_" class="st9" d="M377.8-23.4c0.3,0.2,0.7,0.4,0.9,0.6c0.4-0.4,0.9-0.9,1.3-1.7c-0.4,0-0.8,0-1.2,0.1
		c0.3,0.1,0.5,0.3,0.7,0.5C379.1-23.7,378.5-23.5,377.8-23.4z"/>
	<path id="XMLID_63_" class="st9" d="M376.4-27.6L376.4-27.6c0.1,0,0.1,0,0.1-0.1c0.1-0.1,0.1-0.2,0.2-0.3
		C376.7-27.9,376.6-27.7,376.4-27.6L376.4-27.6z"/>
	<path id="XMLID_62_" class="st11" d="M367.8-7.9L367.8-7.9c0-0.2,0-0.3,0-0.4c0.1-0.5,0.1-0.9,0.2-1.4c0-0.1,0-0.2,0-0.3
		c0-0.3,0.1-0.6,0.1-0.9c0.1-0.3,0.1-0.6,0.2-0.9c0.4-1.9,0.8-3.9,1.4-5.8c-0.1,0-0.1,0.1-0.2,0.1c-0.3-0.6-0.2-1.5,0-2.4
		c0,0,0,0.1-0.1,0.1c-1.1,3.3-1.8,6.6-2.3,9.7c0,0.1,0,0.2,0,0.3c-0.1,0.5-0.1,0.9-0.2,1.3c0,0.1,0,0.1,0,0.2c0,0.1,0,0.1,0,0.2
		c-0.1,0.6-0.1,1.2-0.2,1.8c0,0,0,0,0.1,0c0.2,0,0.3,0,0.5,0c0.1,0,0.2,0,0.2,0c0.1,0,0.1,0,0.2,0c0-0.1,0-0.1,0-0.2s0-0.1,0-0.2
		C367.7-7,367.7-7.5,367.8-7.9z"/>
	<path id="XMLID_60_" class="st12" d="M370.9-23.7L370.9-23.7L370.9-23.7C370.9-23.7,371-23.7,370.9-23.7c0.1,0.1,0.2,0.1,0.3,0.2
		c0,0,0,0,0.1,0s0.1,0.1,0.2,0.1l0,0l0,0c-0.2,0.9-1,2.4-1.9,3.5c-0.2,0.9-0.3,1.8,0,2.4c0.1,0,0.1-0.1,0.2-0.1
		c0.4-0.3,0.7-0.7,1-1.2c-0.1-0.6,0-1.3,0.1-2c0.1-1,0.4-2,0.7-2.6l0,0l0,0c0.1,0,0.2,0,0.3,0.1l0,0h0.1c0.1,0,0.2,0,0.2,0l0,0l0,0
		c0.1,0.5,0.2,1.2,0.2,1.9c0,0.2,0,0.4,0,0.6c0,0.5-0.1,1-0.1,1.5c0.1,0.2,0.1,0.4,0.2,0.6c0.3,0.6,0.6,1.1,1,1.4
		c0.2-0.3,0.3-0.6,0.3-1c0-0.2,0-0.5,0-0.8c-0.1-0.1-0.2-0.2-0.2-0.4c-0.4-0.6-0.7-1.3-0.9-2c-0.3-0.7-0.4-1.4-0.5-1.9l0,0l0,0l0,0
		c0.1,0,0.2-0.1,0.3-0.1l0,0h0.1c0.1,0,0.1-0.1,0.2-0.1l0,0l0,0c0.3,0.3,0.6,0.7,1,1.2c0.3,0.5,0.6,1,0.9,1.5
		c0.1,0.2,0.2,0.4,0.3,0.6c0.2,0.2,0.5,0.4,0.8,0.6l0.1,0.1c0.1,0.1,0.2,0.1,0.3,0.2c0,0,0,0,0.1,0c0.3,0.1,0.6,0.2,0.8,0.3
		c0-0.4-0.1-0.9-0.4-1.3c-0.1-0.1-0.1-0.2-0.2-0.3c0,0,0,0-0.1,0c-0.1-0.1-0.2-0.1-0.4-0.2c-0.6-0.3-1.2-0.8-1.8-1.3
		c-0.6-0.5-1.1-1-1.4-1.4l0,0l0,0c0.1-0.1,0.1-0.1,0.2-0.2c0,0,0,0,0-0.1s0.1-0.1,0.1-0.2l0,0l0,0c0.6,0.2,1.5,0.5,2.4,1.1
		c0.2,0.1,0.4,0.2,0.6,0.4c0.1,0,0.1,0.1,0.2,0.1s0.1,0.1,0.2,0.1c0.1,0.1,0.1,0.1,0.2,0.2c0.2,0,0.3,0.1,0.5,0.1
		c0.7,0.1,1.4,0.1,1.9-0.1c-0.1-0.2-0.2-0.4-0.4-0.5c-0.2-0.2-0.6-0.5-0.9-0.6c-0.4,0-0.7,0-1.1,0h-0.1c-0.1,0-0.2,0-0.4,0
		c-0.4,0-0.7-0.1-1.1-0.2c-0.7-0.2-1.4-0.4-1.8-0.6l0,0l0,0l0,0c0-0.1,0-0.2,0.1-0.3v-0.1c0-0.1,0-0.2,0-0.2l0,0l0,0
		c0.3-0.1,0.6-0.1,0.9-0.2c0.6-0.1,1.3-0.1,2-0.1c0.1,0,0.2,0,0.3,0h0.1c0.2,0,0.4,0.1,0.7,0.1c0.9-0.3,1.7-0.7,2.1-1.2
		c-0.2-0.1-0.4-0.2-0.6-0.2c-0.3-0.1-0.7-0.1-1.1-0.1c-0.3,0.2-0.7,0.4-1,0.6h-0.1c-0.1,0-0.2,0.1-0.3,0.1l0,0
		c-0.7,0.3-1.4,0.5-2,0.7c-0.3,0.1-0.6,0.1-0.9,0.1l0,0l0,0l0,0c0-0.1-0.1-0.2-0.1-0.3v-0.1c0-0.1-0.1-0.1-0.1-0.2l0,0l0,0
		c0.1-0.1,0.2-0.2,0.3-0.3c0.3-0.3,0.8-0.6,1.3-0.9c0.5-0.3,1-0.6,1.5-0.8l0,0c0.1,0,0.1-0.1,0.2-0.1l0,0c0.1-0.1,0.2-0.2,0.3-0.4
		c0.5-0.6,0.8-1.1,0.8-1.7c-0.3,0-0.5,0-0.8,0.1s-0.6,0.2-0.9,0.4c-0.1,0.3-0.3,0.6-0.5,0.9c-0.3,0.5-0.7,1-1.1,1.4
		c-0.3,0.4-0.7,0.7-1,0.9c-0.1,0.1-0.2,0.2-0.4,0.3l0,0l0,0c-0.1-0.1-0.1-0.1-0.2-0.2c0,0,0,0-0.1,0s-0.1-0.1-0.2-0.1l0,0l0,0
		c0.1-0.2,0.1-0.5,0.2-0.7v-0.1c0.3-0.8,0.9-1.8,1.6-2.7c0.2-0.9,0.3-1.8,0-2.4c-0.5,0.3-0.8,0.7-1.2,1.3c0.1,1.2-0.1,2.7-0.5,3.7
		l0,0c-0.1,0.3-0.2,0.6-0.3,0.8l0,0l0,0c-0.1,0-0.2-0.1-0.3-0.1h-0.1c-0.1,0-0.2,0-0.2,0l0,0l0,0c-0.2-0.9-0.4-2.5-0.1-4
		c-0.3-0.9-0.7-1.7-1.2-2.1c-0.3,0.5-0.4,1.1-0.3,1.7c0.9,1.3,1.5,3.3,1.6,4.3l0,0l0,0l0,0c-0.1,0-0.2,0.1-0.3,0.1h-0.1
		c-0.1,0-0.1,0.1-0.2,0.1l0,0l0,0c-0.7-0.6-1.6-2-2.1-3.4c-0.7-0.6-1.4-1.1-2.1-1.2c0,0.5,0.2,1.1,0.6,1.7c1.4,0.7,2.9,2.1,3.5,2.9
		l0,0l0,0c-0.1,0.1-0.1,0.1-0.2,0.2c0,0,0,0,0,0.1s-0.1,0.1-0.1,0.2l0,0l0,0c-0.9-0.2-2.4-1-3.5-1.9c-0.9-0.2-1.8-0.3-2.4,0
		c0.3,0.5,0.7,0.8,1.3,1.2c1.6-0.1,3.6,0.3,4.5,0.8l0,0l0,0c0,0.1-0.1,0.2-0.1,0.3v0.1c0,0.1,0,0.2,0,0.2l0,0l0,0
		c-0.9,0.2-2.5,0.4-4,0.1c-0.9,0.3-1.7,0.7-2.1,1.2c0.5,0.3,1.1,0.4,1.7,0.3c1.3-0.9,3.3-1.5,4.3-1.6l0,0l0,0l0,0
		c0,0.1,0.1,0.2,0.1,0.3v0.1C370.8-23.9,370.8-23.8,370.9-23.7C370.9-23.8,370.9-23.8,370.9-23.7C370.9-23.8,370.9-23.8,370.9-23.7
		c-0.7,0.6-2.1,1.5-3.4,2c-0.6,0.7-1.1,1.4-1.2,2.1c0.5,0,1.1-0.2,1.7-0.6C368.7-21.6,370-23.1,370.9-23.7z"/>
	<path id="XMLID_59_" class="st13" d="M376.4-27.6c-0.1,0-0.1,0.1-0.2,0.1l0,0c-0.5,0.2-1.1,0.5-1.5,0.8c-0.5,0.3-0.9,0.6-1.3,0.9
		c-0.1,0.1-0.2,0.2-0.3,0.3c0.1-0.1,0.3-0.2,0.4-0.2c0.4-0.2,0.9-0.4,1.4-0.5c0.2,0,0.3,0,0.4,0v0.1c-0.2,0.4-0.6,0.7-1.1,0.9
		c-0.2,0.1-0.5,0.2-0.7,0.3c0.2,0,0.5-0.1,0.9-0.1c0.6-0.1,1.3-0.4,2-0.7l0,0c0.1,0,0.2-0.1,0.3-0.1h0.1c0.4-0.2,0.7-0.4,1-0.6
		c0.5-0.4,1-0.8,1.2-1.3c-0.3-0.1-0.6-0.1-0.9-0.1c-0.4,0-0.9,0.1-1.4,0.3C376.5-27.6,376.5-27.6,376.4-27.6L376.4-27.6z"/>
	<path id="XMLID_58_" class="st13" d="M369.2-26.3c-0.1-0.1-0.1-0.3-0.2-0.4h0.1c0.6,0,1.4,0.5,1.9,1c-0.6-0.9-2.1-2.3-3.5-2.9
		c-0.6-0.3-1.2-0.4-1.7-0.4c0.2,0.7,0.7,1.3,1.4,1.9c1.1,0.9,2.6,1.6,3.5,1.9C370.1-25.4,369.5-25.8,369.2-26.3z"/>
	<path id="XMLID_57_" class="st13" d="M371.7-26c0-0.6,0-1.4,0.3-1.9c0.1-0.1,0.1-0.3,0.2-0.3c0,0,0,0.1,0.1,0.1
		c0.3,0.5,0.3,1.5,0.1,2.2c0.1-0.2,0.2-0.5,0.3-0.8l0,0c0.3-1,0.6-2.5,0.5-3.7c-0.1-0.7-0.2-1.3-0.6-1.7c-0.5,0.5-0.8,1.3-1,2.2
		C371.4-28.5,371.5-26.9,371.7-26z"/>
	<path id="XMLID_56_" class="st13" d="M373.8-22.3c-0.3-0.5-0.7-0.9-1-1.2c0.2,0.3,0.4,0.6,0.5,0.9c0.1,0.3,0.2,0.6,0.2,0.8
		c0,0.2,0,0.3,0,0.4h-0.1c-0.5-0.3-0.9-1.1-1.2-1.8c0,0.5,0.2,1.2,0.5,1.9c0.2,0.7,0.5,1.4,0.9,2c0.1,0.1,0.2,0.3,0.2,0.4
		c0.4,0.5,0.8,1,1.3,1.2c0.1-0.3,0.1-0.7,0.1-1.1c-0.1-0.4-0.2-0.8-0.3-1.3c-0.1-0.2-0.2-0.4-0.3-0.6
		C374.4-21.3,374.1-21.9,373.8-22.3z"/>
	<path id="XMLID_55_" class="st13" d="M370.4-27.5c0-0.2,0-0.3,0-0.4h0.1c0.5,0.3,0.9,1.1,1.2,1.8c-0.1-1.1-0.7-3-1.6-4.3
		c-0.4-0.5-0.8-1-1.3-1.2c-0.2,0.7-0.1,1.5,0.3,2.4c0.5,1.4,1.4,2.7,2.1,3.4C370.7-26.2,370.4-26.9,370.4-27.5z"/>
	<path id="XMLID_54_" class="st13" d="M372.4-20.7c0-0.2,0-0.4,0-0.6c0-0.8-0.1-1.5-0.2-1.9c0,0.6,0,1.4-0.3,1.9
		c-0.1,0.1-0.1,0.3-0.2,0.3c0,0,0-0.1-0.1-0.1c-0.2-0.3-0.2-0.7-0.2-1.1c0-0.4,0.1-0.8,0.1-1.1c-0.3,0.6-0.5,1.5-0.7,2.6
		c-0.1,0.7-0.1,1.3-0.1,2c0.1,0.7,0.2,1.3,0.6,1.7c0.3-0.2,0.5-0.6,0.6-1c0.1-0.2,0.2-0.4,0.2-0.7c0-0.2,0.1-0.4,0.1-0.6
		C372.4-19.8,372.4-20.3,372.4-20.7z"/>
	<path id="XMLID_53_" class="st13" d="M369.1-23.1c-0.2,0-0.3,0-0.4,0v-0.1c0.3-0.5,1.1-0.9,1.8-1.2c-1.1,0.1-3,0.7-4.3,1.6
		c-0.5,0.4-1,0.8-1.2,1.3c0.7,0.2,1.5,0.1,2.4-0.3c1.4-0.5,2.7-1.4,3.4-2.1C370.4-23.4,369.7-23.1,369.1-23.1z"/>
	<path id="XMLID_52_" class="st13" d="M370.6-24.4c-0.6,0-1.4,0-1.9-0.3c-0.1-0.1-0.3-0.1-0.3-0.2c0,0,0.1,0,0.1-0.1
		c0.5-0.3,1.5-0.3,2.2-0.1c-1-0.5-2.9-0.9-4.5-0.8c-0.7,0.1-1.3,0.2-1.7,0.6c0.5,0.5,1.3,0.8,2.2,1C368-24.1,369.7-24.2,370.6-24.4z
		"/>
	<path id="XMLID_51_" class="st13" d="M376.5-25.1c-0.1,0-0.2,0-0.3,0c-0.7,0-1.4,0-2,0.1c-0.4,0-0.7,0.1-0.9,0.2
		c0.6,0,1.4,0,1.9,0.3c0.1,0.1,0.3,0.1,0.3,0.2c0,0-0.1,0-0.1,0.1c-0.3,0.2-0.7,0.2-1.2,0.2c-0.3,0-0.7-0.1-1-0.1
		c0.4,0.2,1.1,0.4,1.8,0.6c0.4,0.1,0.7,0.1,1.1,0.2c0.1,0,0.2,0,0.4,0h0.1c0.4,0,0.8,0,1.1,0c0.7-0.1,1.3-0.2,1.7-0.6
		c-0.2-0.2-0.4-0.4-0.7-0.5c-0.4-0.2-1-0.4-1.5-0.5C377-24.9,376.8-25,376.5-25.1C376.6-25,376.6-25.1,376.5-25.1z"/>
	<path id="XMLID_50_" class="st13" d="M372.7-26.7c-0.1,0.3-0.2,0.5-0.2,0.7c0.1-0.2,0.2-0.4,0.3-0.6c0.1-0.1,0.1-0.2,0.2-0.2
		c0.2-0.3,0.4-0.5,0.6-0.6c0.1-0.1,0.3-0.1,0.4-0.2v0.1c0,0.2-0.1,0.5-0.2,0.7c-0.1,0.3-0.3,0.6-0.6,0.9c-0.1,0.1-0.2,0.2-0.3,0.3
		c0.1-0.1,0.2-0.2,0.4-0.3c0.3-0.2,0.6-0.6,1-0.9c0.4-0.4,0.8-0.9,1.1-1.4c0.2-0.3,0.4-0.6,0.5-0.9c0.2-0.5,0.4-1,0.4-1.4
		c0-0.1,0-0.2,0-0.3c-0.1,0-0.1,0-0.2,0c-0.4,0.1-0.7,0.3-1,0.6c-0.2,0.2-0.5,0.5-0.7,0.7C373.7-28.6,373.1-27.6,372.7-26.7
		L372.7-26.7z"/>
	<path id="XMLID_49_" class="st13" d="M376.5-22.4c-0.1,0-0.1-0.1-0.2-0.1s-0.1-0.1-0.2-0.1c-0.2-0.1-0.4-0.3-0.6-0.4
		c-0.9-0.5-1.7-0.9-2.4-1.1c0.5,0.3,1.2,0.7,1.5,1.2c0.1,0.1,0.1,0.3,0.2,0.4h-0.1c-0.6,0-1.4-0.5-1.9-1c0.3,0.4,0.8,0.9,1.4,1.4
		c0.5,0.5,1.1,0.9,1.8,1.3c0.1,0.1,0.2,0.1,0.4,0.2c0,0,0,0,0.1,0c0.1,0.1,0.3,0.1,0.4,0.2c0.5,0.2,0.9,0.3,1.4,0.2
		c-0.1-0.2-0.2-0.5-0.3-0.7c-0.2-0.4-0.6-0.8-1-1.2c0,0-0.1,0-0.1-0.1C376.7-22.3,376.6-22.4,376.5-22.4z"/>
	<path id="XMLID_48_" class="st13" d="M371.4-23.3c-0.3,0.5-0.7,1.2-1.2,1.5c0,0,0,0-0.1,0c-0.1,0.1-0.2,0.1-0.3,0.1v-0.1
		c0-0.6,0.5-1.4,1-1.9c-0.9,0.6-2.3,2.1-2.9,3.5c-0.3,0.6-0.4,1.2-0.4,1.7c0.6-0.1,1.3-0.7,1.9-1.3c0,0,0-0.1,0.1-0.1
		C370.5-21,371.2-22.4,371.4-23.3z"/>
	<path id="XMLID_47_" class="st14" d="M371.5-23.4c-0.1,0-0.1-0.1-0.2-0.1c0,0,0,0-0.1,0c-0.1-0.1-0.1-0.1-0.2-0.2l0,0l0,0l0,0
		c-0.5,0.5-1,1.3-1,1.9v0.1c0.1,0,0.2-0.1,0.3-0.1c0,0,0,0,0.1,0C370.7-22.2,371.2-22.8,371.5-23.4
		C371.4-23.3,371.5-23.4,371.5-23.4L371.5-23.4z"/>
	<path id="XMLID_46_" class="st14" d="M369-26.7c0,0.1,0.1,0.3,0.2,0.4c0.3,0.5,0.9,0.9,1.5,1.2l0,0l0,0c0-0.1,0.1-0.1,0.1-0.2
		c0,0,0,0,0-0.1c0.1-0.1,0.1-0.2,0.2-0.2l0,0l0,0C370.5-26.2,369.7-26.7,369-26.7C369.1-26.7,369-26.7,369-26.7z"/>
	<path id="XMLID_45_" class="st14" d="M374.9-22.6c0-0.1-0.1-0.3-0.2-0.4c-0.3-0.5-0.9-0.9-1.5-1.2l0,0l0,0c0,0.1-0.1,0.1-0.1,0.2
		c0,0,0,0,0,0.1c-0.1,0.1-0.1,0.2-0.2,0.2l0,0l0,0C373.4-23.1,374.2-22.6,374.9-22.6C374.8-22.6,374.9-22.6,374.9-22.6z"/>
	<path id="XMLID_44_" class="st14" d="M372.3-28.1C372.3-28.2,372.3-28.2,372.3-28.1c-0.1,0-0.2,0.1-0.3,0.3
		c-0.2,0.5-0.3,1.3-0.3,1.9l0,0l0,0c0.1,0,0.2,0,0.2,0h0.1c0.1,0,0.2,0,0.3,0.1l0,0l0,0C372.6-26.7,372.6-27.6,372.3-28.1z"/>
	<path id="XMLID_43_" class="st14" d="M371.6-21.1L371.6-21.1c0.2,0,0.2-0.1,0.3-0.3c0.2-0.5,0.3-1.3,0.3-1.9l0,0l0,0
		c-0.1,0-0.2,0-0.2,0h-0.1l0,0c-0.1,0-0.2,0-0.3-0.1l0,0l0,0c-0.1,0.3-0.1,0.7-0.1,1.1C371.4-21.8,371.4-21.4,371.6-21.1z"/>
	<path id="XMLID_42_" class="st14" d="M368.7-23.2C368.7-23.2,368.7-23.1,368.7-23.2c0.1,0.1,0.2,0.1,0.4,0.1c0.6,0,1.2-0.4,1.7-0.7
		l0,0l0,0c0-0.1-0.1-0.1-0.1-0.2c0,0,0,0,0-0.1s-0.1-0.2-0.1-0.3l0,0l0,0l0,0C369.9-24.1,369-23.7,368.7-23.2z"/>
	<path id="XMLID_41_" class="st14" d="M368.5-25C368.4-25,368.4-25,368.5-25c0,0.1,0.1,0.2,0.3,0.3c0.5,0.2,1.3,0.3,1.9,0.3l0,0l0,0
		c0-0.1,0-0.2,0-0.2v-0.1c0-0.1,0-0.2,0.1-0.3l0,0l0,0C369.9-25.2,369-25.3,368.5-25z"/>
	<path id="XMLID_40_" class="st14" d="M373.4-21.4C373.4-21.4,373.5-21.4,373.4-21.4c0.1-0.1,0.1-0.2,0.1-0.4c0-0.3-0.1-0.6-0.2-0.8
		c-0.1-0.3-0.3-0.6-0.5-0.9l0,0l0,0c-0.1,0-0.1,0.1-0.2,0.1c0,0,0,0-0.1,0l0,0c-0.1,0-0.2,0.1-0.3,0.1l0,0l0,0l0,0
		C372.5-22.6,372.9-21.7,373.4-21.4z"/>
	<path id="XMLID_39_" class="st14" d="M370.5-27.8C370.5-27.9,370.5-27.9,370.5-27.8c-0.1,0.1-0.1,0.2-0.1,0.4
		c0,0.6,0.4,1.2,0.7,1.7l0,0l0,0c0.1,0,0.1-0.1,0.2-0.1c0,0,0,0,0.1,0s0.2-0.1,0.3-0.1l0,0l0,0l0,0C371.5-26.7,371-27.6,370.5-27.8z
		"/>
	<path id="XMLID_38_" class="st14" d="M375.5-24.3L375.5-24.3c0-0.1-0.1-0.2-0.3-0.3c-0.5-0.2-1.3-0.3-1.9-0.3l0,0l0,0
		c0,0.1,0,0.2,0,0.2v0.1c0,0.1,0,0.2-0.1,0.3l0,0l0,0l0,0c0.3,0.1,0.7,0.1,1,0.1C374.7-24,375.2-24.1,375.5-24.3z"/>
	<path id="XMLID_37_" class="st14" d="M373.9-26.8c0.1-0.2,0.2-0.5,0.2-0.7v-0.1c-0.1,0-0.3,0.1-0.4,0.2c-0.2,0.2-0.4,0.4-0.6,0.6
		c-0.1,0.1-0.1,0.2-0.2,0.2c-0.1,0.2-0.2,0.4-0.3,0.6l0,0l0,0c0.1,0,0.1,0.1,0.2,0.1c0,0,0,0,0.1,0c0.1,0.1,0.2,0.1,0.2,0.2l0,0l0,0
		c0.1-0.1,0.2-0.2,0.3-0.3C373.5-26.2,373.7-26.5,373.9-26.8z"/>
	<path id="XMLID_36_" class="st14" d="M375.2-26.1L375.2-26.1c-0.1-0.1-0.2-0.1-0.4-0.1c-0.4,0-0.9,0.2-1.4,0.5
		c-0.1,0.1-0.3,0.2-0.4,0.2l0,0l0,0c0,0.1,0.1,0.1,0.1,0.2c0,0,0,0,0,0.1s0.1,0.2,0.1,0.3l0,0l0,0l0,0c0.2-0.1,0.5-0.2,0.7-0.3
		C374.5-25.4,375-25.7,375.2-26.1z"/>
	<path id="XMLID_35_" class="st15" d="M350.6-14.7c-1-1.5,0.2-2.6,1-2.9c-0.9-2-3.1-3.2-3-0.5c-0.8-0.8-3.1,0-1.2,1.5
		c-1.4-0.2-3,1.1-0.4,2.2c-1.1,1,0.3,1.8,1.8,1.8C349-13.1,349.3-14.4,350.6-14.7z"/>
	<path id="XMLID_34_" class="st16" d="M357.2-6.6c0,0,0-0.2-0.1-0.6c0-0.1,0-0.3-0.1-0.4c0-0.1,0-0.1,0-0.2c-0.1-0.4-0.3-1-0.5-1.5
		c0-0.1-0.1-0.2-0.1-0.2s0,0,0-0.1c-0.3-0.6-0.7-1.4-1.3-2.2c0.5-0.1,1.6-0.3,2.3-1c0.2-0.2,0.3-0.4,0.4-0.6c0-0.1,0.1-0.2,0.1-0.2
		c-0.1-0.1-0.1-0.1-0.2-0.2c-0.2-0.2-0.4-0.3-0.6-0.3c-1.1-0.3-2,1.4-2.4,2.1c-0.7-0.8-1.6-1.7-2.9-2.4c0.5-1.6-0.3-3.1-0.3-3.1l0,0
		c-0.8,0.3-2,1.4-1,2.9c-1.4,0.3-1.6,1.5-1.7,2.1c0,0.1,0,0.2,0,0.2s1.9,0,2.8-1.5c1.3,0.8,2.3,1.8,3,2.7c-0.7,0-2.3,0.1-2.9,1.3
		c2.1,1,2.9-0.2,3.2-0.9c0.3,0.4,0.5,0.9,0.7,1.3c0,0.1,0.1,0.2,0.1,0.3c0.3,0.6,0.4,1.1,0.5,1.6c0,0.1,0,0.1,0,0.1
		c0.1,0.3,0.1,0.5,0.1,0.6s0,0.2,0,0.3l0,0C356.8-6.6,357-6.5,357.2-6.6L357.2-6.6C357.2-6.5,357.2-6.6,357.2-6.6z"/>
	<path id="XMLID_33_" class="st9" d="M362.3-11.3c0,0.4-0.1,0.7-0.1,1.1c0,0.1,0,0.2,0,0.3c0,0.4,0,0.8-0.1,1.2c0,0,0,0,0,0.1
		c0,0.2,0,0.4,0,0.6c0,0.2,0,0.3,0,0.5c0,0.4,0,0.9,0,1.4c0.3,0,0.6,0,0.8,0c0-0.7,0-1.3,0-1.9c0-0.2,0-0.4,0-0.6c0,0,0,0,0-0.1
		c0-0.4,0-0.8,0.1-1.2c0-0.1,0-0.2,0-0.3c0.1-0.8,0.1-1.5,0.2-2.1C363-11.7,362.7-11.3,362.3-11.3z"/>
	<path id="XMLID_32_" class="st1" d="M360.3-16.8L360.3-16.8L360.3-16.8c0,0,0.8,0.5,1.6,0.7c0-0.3,0.1-0.7,0.3-0.9
		c-1.8-1.8-4.4-2-3.3,0c-2.1,1.3,1,2.5,3.1,1.4c-0.1-0.1-0.1-0.3-0.1-0.4C361-16.2,360.3-16.8,360.3-16.8z"/>
	<path id="XMLID_31_" class="st1" d="M366.1-13c2.2,0.1,1-2-0.9-2.7c2.1,0.2,3.8-0.8,2-1.9c1-2-1.5-1.7-2.9-0.2c1-1.9,0.7-3.8-1-2.5
		c-0.3-0.3-0.5-0.5-0.7-0.5c0.2,0.2,0.3,0.4,0,0.5c-0.3,0.1-0.7,0.2-1,0.3c-0.2,0.8,0,2,0.7,3c0,0,0.1-0.1,0.2-0.1
		c0.2-0.1,0.5-0.2,0.7-0.2c-0.1-0.8-0.1-1.4-0.1-1.4l0,0l0,0c0,0,0,0.6,0.1,1.4c0.2,0,0.4,0.1,0.5,0.1c0,0,0,0,0.1,0
		c0.2,0.1,0.3,0.2,0.4,0.4c0.1,0.1,0.1,0.2,0.1,0.3c0.7-0.4,1.3-0.6,1.3-0.6l0,0l0,0c0,0-0.6,0.2-1.3,0.6c0,0.2,0.1,0.3,0,0.5
		c0,0,0,0,0,0.1c0,0.2-0.2,0.4-0.3,0.6c0.2,0.3,0.5,0.7,0.9,1l0,0l0,0l0,0c-0.4-0.3-0.7-0.6-0.9-1c-0.1,0.1-0.1,0.1-0.2,0.2
		c-0.1,0-0.2,0.1-0.2,0.1h-0.1c0,0,0,0-0.1,0c-0.2,0-0.5,0-0.7,0h-0.1c-0.3,0.4-0.6,0.9-0.8,1.5l0,0l0,0l0,0
		c0.2-0.6,0.5-1.1,0.8-1.5c-0.2-0.1-0.3-0.2-0.5-0.4c-2.1,1.3-2.9,3.8-0.7,3.2c0.1,0.2,0.1,0.3,0.2,0.4l0,0c0.2,0.4,0.5,0.5,0.7,0.5
		c0.3-0.1,0.7-0.4,0.9-0.9c0.2-0.5,0.4-1.2,0.3-1.9C364.2-12.1,365.8-11,366.1-13z"/>
	<path id="XMLID_30_" class="st17" d="M363.2-18.8C363.2-18.8,363.1-18.8,363.2-18.8C363.1-18.8,363.1-18.8,363.2-18.8
		c-0.1,0-0.1,0.6,0,1.4c0,0,0,0,0.1,0C363.1-18.2,363.2-18.8,363.2-18.8z"/>
	<path id="XMLID_29_" class="st17" d="M365-14.2L365-14.2L365-14.2C365-14.3,365-14.3,365-14.2c-0.3-0.3-0.7-0.7-0.9-1l0,0
		C364.3-14.9,364.6-14.5,365-14.2z"/>
	<path id="XMLID_28_" class="st17" d="M365.7-17C365.7-17,365.7-17.1,365.7-17C365.7-17.1,365.7-17.1,365.7-17
		c0-0.1-0.6,0.1-1.3,0.6c0,0,0,0,0,0.1C365.1-16.9,365.7-17,365.7-17z"/>
	<path id="XMLID_27_" class="st17" d="M361.8-13.5C361.8-13.5,361.8-13.4,361.8-13.5C361.8-13.4,361.8-13.4,361.8-13.5
		C361.8-13.4,361.8-13.4,361.8-13.5c0.2-0.6,0.5-1,0.9-1.5c0,0,0,0-0.1,0C362.3-14.6,362-14.1,361.8-13.5z"/>
	<path id="XMLID_26_" class="st17" d="M360.3-16.8L360.3-16.8c0,0,0.8,0.6,1.6,0.8c0,0,0,0,0-0.1C361-16.3,360.3-16.8,360.3-16.8
		L360.3-16.8z"/>
	<path id="XMLID_25_" class="st2" d="M361.9-16.1C361.9-16,361.9-16,361.9-16.1c0,0.2,0.1,0.4,0.1,0.5c0,0,0,0.1,0.1,0.1
		c0,0,0,0.1,0.1,0.1c0.1,0.2,0.3,0.3,0.5,0.4c0,0,0,0,0.1,0h0.1c0.2,0.1,0.4,0.1,0.7,0c0,0,0,0,0.1,0h0.1c0.1,0,0.2-0.1,0.2-0.1
		c0.1-0.1,0.2-0.1,0.2-0.2l0,0c0.2-0.2,0.3-0.4,0.3-0.6c0,0,0,0,0-0.1c0-0.2,0-0.3,0-0.5c0,0,0,0,0-0.1s-0.1-0.2-0.1-0.3
		c-0.1-0.2-0.3-0.3-0.4-0.4c0,0,0,0-0.1,0c-0.2-0.1-0.3-0.1-0.5-0.1c0,0,0,0-0.1,0c-0.2,0-0.5,0.1-0.7,0.2c-0.1,0-0.1,0.1-0.2,0.1
		l-0.1,0.1C362-16.7,361.9-16.4,361.9-16.1z"/>
	<path id="XMLID_124_" class="st18" d="M357.6-21c0.9,0.8,2.2,1.4,4,1c0.3-0.1,0.6-0.2,1-0.3c0.2-0.1,0.1-0.3,0-0.5
		c-0.3-0.3-0.7-0.8-0.6-1.1c0.2-0.5,1.5-0.1,1.7-0.6c0.2-0.4-0.7-3.1-3.7-3.5c1.2-0.7,2.2-2.1,2-4.6c-0.1-0.6-1.3,0.5-1.7,0.2
		c-0.4-0.4,0.3-1.5-0.1-1.8c-0.3-0.3-3.2-0.2-4.4,2.6c-0.4-1.4-1.4-2.7-3.8-3.2c-0.6-0.1,0.1,1.4-0.3,1.7c-0.5,0.3-1.3-0.7-1.8-0.4
		c-0.3,0.2-0.9,2.3,0.5,4.1c-1.1,0.1-2.3,0.7-3.4,2.1c-0.3,0.5,1.3,0.5,1.4,1s-1.2,0.9-1.2,1.4c0,0.4,2.2,2.3,5,1
		c-0.7,1.3-0.8,2.9,0.7,4.9c0.4,0.5,0.8-1.1,1.4-1.1c0.6,0.1,0.5,1.4,1,1.5c0.2,0,0.9-0.3,1.5-1c0.2-0.2,0.3-0.4,0.4-0.7
		C357.6-18.9,357.8-19.8,357.6-21z M356.6-19.2c-0.4,0.6-1,0.9-1.1,0.8c-0.4-0.1-0.4-1.1-0.8-1.1c-0.4-0.1-0.7,1.1-1,0.8
		c-1.1-1.5-1-2.7-0.6-3.7c0.1-0.2,0.2-0.3,0.3-0.5c-0.3,0.2-0.5,0.3-0.8,0.4c-2,0.8-3.5-0.6-3.5-0.8c0-0.4,0.9-0.6,0.9-1.1
		c-0.1-0.4-1.3-0.4-1-0.8c0.7-1,1.5-1.4,2.3-1.5c0.2,0,0.4-0.1,0.6-0.1c-0.2-0.2-0.4-0.4-0.5-0.7c-0.7-1.2-0.3-2.6-0.1-2.7
		c0.3-0.2,1,0.6,1.3,0.3c0.3-0.2-0.2-1.3,0.2-1.3c1.8,0.4,2.6,1.3,2.9,2.4c0.1,0.2,0.1,0.4,0.1,0.6c0.1-0.3,0.2-0.6,0.3-0.9
		c0.9-1.9,3-1.9,3.2-1.7c0.3,0.3-0.3,1.1,0.1,1.4c0.3,0.3,1.2-0.6,1.3-0.1c0.1,1.9-0.6,2.9-1.5,3.4c-0.2,0.1-0.3,0.2-0.5,0.3
		c0.3,0,0.6,0,0.9,0.1c2.1,0.4,2.7,2.3,2.5,2.6c-0.2,0.3-1.1,0.1-1.3,0.4c-0.2,0.3,0.9,1,0.5,1.2c-1.7,0.6-2.9,0.2-3.7-0.5
		c-0.1-0.1-0.3-0.3-0.4-0.4c0.1,0.3,0.2,0.6,0.2,0.9c0.1,0.6,0,1.1-0.2,1.6C356.9-19.7,356.7-19.4,356.6-19.2z"/>
	<path id="XMLID_121_" class="st19" d="M357.2-21.5c0-0.3-0.1-0.6-0.2-0.9c0.1,0.1,0.2,0.3,0.4,0.4c0.8,0.7,1.9,1.1,3.7,0.5
		c0.4-0.2-0.6-0.8-0.5-1.2s1.1-0.1,1.3-0.4c0.1-0.3-0.4-2.2-2.5-2.6c-0.3,0-0.6-0.1-0.9-0.1c0.2-0.1,0.3-0.2,0.5-0.3
		c0.9-0.5,1.6-1.6,1.5-3.4c-0.1-0.4-1,0.4-1.3,0.1s0.2-1.1-0.1-1.4c-0.2-0.2-2.2-0.2-3.2,1.7c-0.1,0.3-0.2,0.5-0.3,0.9
		c0-0.2-0.1-0.4-0.1-0.6c-0.3-1-1.1-2-2.9-2.4c-0.4-0.1,0.1,1-0.2,1.3c-0.3,0.2-1-0.5-1.3-0.3c-0.2,0.1-0.6,1.4,0.1,2.7
		c0.1,0.2,0.3,0.5,0.5,0.7c-0.2,0-0.4,0-0.6,0.1c-0.7,0.1-1.5,0.6-2.3,1.5c-0.3,0.4,1,0.4,1,0.8c0.1,0.4-0.9,0.7-0.9,1.1
		c0,0.3,1.5,1.6,3.5,0.8c0.3-0.1,0.5-0.2,0.8-0.4c-0.1,0.2-0.2,0.3-0.3,0.5c-0.5,0.9-0.5,2.2,0.6,3.7c0.3,0.3,0.6-0.8,1-0.8
		c0.4,0.1,0.4,1.1,0.8,1.1c0.2,0,0.7-0.3,1.1-0.8c0.2-0.2,0.3-0.5,0.4-0.7C357.2-20.4,357.3-20.9,357.2-21.5z M356.1-21.7
		L356.1-21.7L356.1-21.7L356.1-21.7l-0.3-1.7c-0.3,0-0.6,0-0.9-0.1l-0.6,1.6l0,0l0,0l0,0l0.6-1.6c-0.1-0.1-0.3-0.1-0.4-0.2l-0.1-0.1
		l-0.1-0.1l-0.1-0.1l-1,0.8l-0.3,0.2l0,0l0,0l0,0l0.5-0.4l0.8-0.6l0,0c-0.2-0.2-0.3-0.5-0.4-0.8l-1.7,0.3l0,0l0,0l0,0l1.7-0.3
		c0-0.2,0-0.3,0-0.5v-0.1c0-0.1,0-0.2,0.1-0.3l-1.6-0.6l0,0l0,0l1.7,0.5v-0.1c0-0.1,0.1-0.1,0.1-0.2c0.1-0.2,0.2-0.3,0.4-0.4
		l-1.1-1.3l0,0l0,0l1.1,1.3c0.2-0.2,0.5-0.3,0.8-0.4l-0.2-1.6l0,0l0,0l0.2,1.5v0.1h0.1h0.1c0.1,0,0.2,0,0.2,0c0.1,0,0.3,0.1,0.4,0.1
		l0.6-1.5l0,0l0,0l-0.4,1.5c0.3,0.1,0.5,0.3,0.7,0.5l1.3-1l0,0l0,0l-1.3,1c0.1,0.2,0.2,0.3,0.3,0.5v0.1v0.1l0,0l1.6-0.2l0,0l0,0
		l-1.6,0.2c0,0.1,0,0.1,0,0.2c0,0.3,0,0.5-0.1,0.7l1.5,0.6l0,0l0,0l0,0l-1.5-0.6c-0.1,0.3-0.3,0.5-0.5,0.7l1,1.3l0,0l0,0l0,0l-1-1.3
		l-0.1,0.1c0,0,0,0-0.1,0c0,0,0,0-0.1,0c0,0-0.1,0-0.1,0.1c-0.1,0-0.1,0.1-0.2,0.1H356h-0.1L356.1-21.7z"/>
	<path id="XMLID_19_" class="st20" d="M355.9-23.4l0.3,1.7l0,0l0,0l0,0L355.9-23.4L355.9-23.4L355.9-23.4z"/>
	<path id="XMLID_18_" class="st20" d="M355.3-26.9C355.3-26.9,355.4-26.9,355.3-26.9L355.3-26.9l-0.2-1.6l0,0l0,0L355.3-26.9
		L355.3-26.9L355.3-26.9z"/>
	<path id="XMLID_17_" class="st20" d="M354.3-21.9L354.3-21.9L354.3-21.9L354.3-21.9l0.7-1.6l0,0L354.3-21.9z"/>
	<path id="XMLID_15_" class="st20" d="M356.9-28.3L356.9-28.3C356.8-28.3,356.8-28.3,356.9-28.3l-0.7,1.5l0,0L356.9-28.3z"/>
	<path id="XMLID_14_" class="st20" d="M353.4-23.4l-0.5,0.4l0,0l0,0l0,0l0.3-0.2l1-0.8l0,0L353.4-23.4z"/>
	<path id="XMLID_13_" class="st20" d="M358.3-27.2C358.3-27.3,358.3-27.3,358.3-27.2C358.3-27.3,358.3-27.3,358.3-27.2l-1.3,1l0,0
		L358.3-27.2z"/>
	<path id="XMLID_12_" class="st20" d="M353.8-24.9l-1.7,0.3l0,0l0,0l0,0L353.8-24.9L353.8-24.9L353.8-24.9z"/>
	<path id="XMLID_9_" class="st20" d="M357.4-25.4l1.6-0.2l0,0l0,0L357.4-25.4L357.4-25.4L357.4-25.4z"/>
	<path id="XMLID_8_" class="st20" d="M358.8-23.9L358.8-23.9L358.8-23.9L358.8-23.9l-1.5-0.6l0,0L358.8-23.9z"/>
	<path id="XMLID_6_" class="st20" d="M352.4-26.4L352.4-26.4C352.3-26.4,352.3-26.4,352.4-26.4l1.6,0.7l0,0L352.4-26.4z"/>
	<path id="XMLID_5_" class="st20" d="M357.7-22.5L357.7-22.5L357.7-22.5L357.7-22.5l-1-1.3l0,0L357.7-22.5z"/>
	<path id="XMLID_3_" class="st20" d="M353.4-27.9L353.4-27.9L353.4-27.9l1,1.4l0,0L353.4-27.9z"/>
	<path id="XMLID_105_" class="st21" d="M356.1-23.4c0.1,0,0.1,0,0.2-0.1c0,0,0.1,0,0.1-0.1c0,0,0,0,0.1,0c0,0,0,0,0.1,0l0.1-0.1l0,0
		c0.2-0.2,0.4-0.4,0.5-0.7l0,0c0.1-0.2,0.1-0.5,0.1-0.7c0-0.1,0-0.1,0-0.2l0,0l0,0l0,0v-0.1v-0.1c-0.1-0.2-0.2-0.4-0.3-0.5l0,0
		c-0.2-0.2-0.4-0.4-0.7-0.5l0,0c-0.1,0-0.3-0.1-0.4-0.1s-0.2,0-0.2,0h-0.1h-0.1l0,0l0,0l0,0c-0.3,0-0.6,0.2-0.8,0.4l0,0
		c-0.1,0.1-0.3,0.3-0.4,0.4c0,0.1-0.1,0.1-0.1,0.2v0.1l0,0c0,0.1-0.1,0.2-0.1,0.3v0.1c0,0.2,0,0.3,0,0.5l0,0l0,0
		c0,0.3,0.2,0.6,0.4,0.8l0,0l0,0l0.1,0.1l0.1,0.1l0.1,0.1c0.1,0.1,0.3,0.2,0.4,0.2l0,0c0.3,0.1,0.6,0.1,0.9,0.1l0,0l0,0h0.1
		C356.1-23.4,356.1-23.4,356.1-23.4z"/>
</g>
<g id="XMLID_109_">
	<path id="XMLID_111_" class="st0" d="M214.4-6.6c1.7-0.3,3.9-0.4,6.1-0.4c3.9,0,6.4,0.7,8.3,2.2c2.1,1.6,3.4,4,3.4,7.6
		c0,3.9-1.4,6.5-3.4,8.2c-2.1,1.8-5.4,2.6-9.3,2.6c-2.4,0-4.1-0.2-5.2-0.3V-6.6H214.4z M220.6,10c4.1,0,6.8-2.2,6.8-7.1
		c0-4.2-2.4-6.4-6.4-6.4c-1,0-1.6,0.1-2.1,0.2V9.9C219.4,10,220,10,220.6,10z"/>
	<path id="XMLID_114_" class="st0" d="M242.1-1.6c4.4,0,7.5,2.9,7.5,7.6c0,5.5-4.2,7.7-7.9,7.7c-4.2,0-7.5-2.8-7.5-7.6
		C234.3,1.1,237.8-1.6,242.1-1.6z M241.9,10.4c2,0,2.9-1.9,2.9-4.3c0-2.1-0.7-4.5-2.9-4.5c-2.2,0-3,2.4-3,4.4
		C239,8.4,239.9,10.4,241.9,10.4z"/>
	<path id="XMLID_117_" class="st0" d="M252.3,3.4c0-1.8-0.1-3.4-0.1-4.7h4l0.2,2h0.1c0.6-1,2.1-2.4,4.5-2.4c3,0,5.2,2,5.2,6.3v8.7
		h-4.6V5.2c0-1.9-0.7-3.2-2.3-3.2c-1.3,0-2,0.9-2.3,1.7c-0.1,0.3-0.2,0.7-0.2,1.1v8.5h-4.6V3.4H252.3z"/>
	<path id="XMLID_119_" class="st0" d="M276.5-1.6c4.7,0,6.6,3.7,6.6,7.3c0,0.8-0.1,1.5-0.2,1.8h-9.4c0.2,1.9,2,2.8,4.1,2.8
		c1.6,0,2.8-0.2,4-0.6l0.6,3.1c-1.5,0.6-3.4,0.9-5.3,0.9c-5,0-7.8-2.9-7.8-7.5C269.1,2.5,271.4-1.6,276.5-1.6z M278.8,4.4
		c0-1.1-0.5-3-2.6-3c-1.9,0-2.7,1.8-2.8,3H278.8z"/>
	<path id="XMLID_123_" class="st0" d="M286.1-6.6c1.6-0.2,3.5-0.4,5.6-0.4c3.7,0,6.4,0.9,8.2,2.5c1.8,1.6,2.8,4,2.8,7.3
		s-1,6-2.9,7.9s-5,2.9-8.9,2.9c-1.9,0-3.4-0.1-4.8-0.2V-6.6L286.1-6.6z M291.4,11.4c5.6,0,8.6-3.1,8.6-8.6c0-4.8-2.7-7.8-8.2-7.8
		c-1.3,0-2.4,0.1-3.1,0.3v15.9C289.4,11.4,290.4,11.4,291.4,11.4z"/>
	<path id="XMLID_127_" class="st0" d="M311.9-1.5c4.7,0,6,4.2,6,6.8c0,0.6,0,0.9-0.1,1.2h-10.2c0.1,3.6,2.3,5,4.9,5
		c1.9,0,3.1-0.3,4-0.7l0.4,1.9c-0.9,0.4-2.5,0.9-4.8,0.9c-4.5,0-7.1-3-7.1-7.3C305.1,2,307.6-1.5,311.9-1.5z M315.3,4.7
		c0-1.6-0.7-4.3-3.7-4.3c-2.7,0-3.8,2.4-4,4.3H315.3z"/>
	<path id="XMLID_130_" class="st0" d="M320.8,10.7c0.8,0.5,2.2,1,3.5,1c1.9,0,2.8-0.9,2.8-2.2s-0.7-1.9-2.7-2.6
		c-2.6-1-3.8-2.4-3.8-4.1c0-2.3,1.9-4.3,5-4.3c1.5,0,2.8,0.4,3.5,0.9l-0.6,1.9c-0.6-0.3-1.6-0.9-3-0.9c-1.6,0-2.4,0.9-2.4,2
		c0,1.2,0.8,1.7,2.8,2.5c2.5,0.9,3.8,2.2,3.8,4.3c0,2.5-2,4.4-5.4,4.4c-1.6,0-3.1-0.4-4.1-1L320.8,10.7z"/>
	<path id="XMLID_132_" class="st0" d="M333-7.9h2.6V5.5h0.1c0.4-0.5,0.8-1.1,1.3-1.6l4.3-5h3.2l-5.6,6l6.4,8.5h-3.2l-5-7l-1.3,1.5
		v5.5H333V-7.9z"/>
</g>
</svg>
