<?xml version="1.0" encoding="utf-8"?>
<!-- Generator: Adobe Illustrator 19.0.0, SVG Export Plug-In . SVG Version: 6.00 Build 0)  -->
<svg version="1.1" id="Layer_1" xmlns="http://www.w3.org/2000/svg" xmlns:xlink="http://www.w3.org/1999/xlink" x="0px" y="0px"
	 viewBox="82 356.6 471 129" style="enable-background:new 82 356.6 471 129;" xml:space="preserve">
<style type="text/css">
	.st0{display:none;}
	.st1{display:inline;fill:#238CCD;}
	.st2{display:inline;fill:#9E9E9E;}
	.st3{fill:#238CCD;}
	.st4{fill:#FFFFFF;}
	.st5{fill:#E0E0E0;}
	.st6{fill:#833729;}
	.st7{fill:#E64636;}
	.st8{display:none;fill:#F7890B;}
	.st9{fill:#F7890B;}
</style>
<g id="Layer_2" class="st0">
	<rect id="XMLID_38_" y="134.6" class="st1" width="612" height="524.4"/>
</g>
<g id="Layer_3" class="st0">
	<rect id="XMLID_56_" y="134.6" class="st2" width="612" height="524.4"/>
</g>
<g id="Layer_1_1_">
	<path id="XMLID_61_" class="st3" d="M193,362.5h-88.2c-7.7,0-14.1,6.3-14.1,14.1v68.2c0,7.7,6.3,14.1,14.1,14.1h2.7v21.7l24.5-21.7
		h61c7.7,0,14.1-6.3,14.1-14.1v-68.2C207,368.8,200.7,362.5,193,362.5z M184.5,395.2c-13.3,15-26.6,30-39.9,45
		c-0.9,1-1.5,1.2-2.5,0.2c-6-5.4-12.1-10.7-18.1-16.1c-4.1-3.7-8.3-7.3-12.4-11c-0.4-0.4-0.9-0.8-1.5-1.4c4.2-4.8,8.3-9.6,12.6-14.4
		c4.4,3.8,8.6,7.6,12.9,11.3c1.6,1.4,3.3,2.8,4.9,4.3c1,0.9,1.7,0.7,2.5-0.2c4-4.5,8-9,11.9-13.4c6.9-7.7,13.8-15.5,20.7-23.2
		c0.2-0.3,0.5-0.6,0.9-1c4.8,4.3,9.6,8.5,14.4,12.7C188.7,390.5,186.6,392.9,184.5,395.2z"/>
	<g id="XMLID_15_">
		<g id="XMLID_475_">
			<g id="XMLID_477_">
				<circle id="XMLID_37_" cx="498.8" cy="389.7" r="16.2"/>
				<circle id="XMLID_36_" cx="498.8" cy="427.9" r="23.9"/>
				<circle id="XMLID_479_" class="st4" cx="501.9" cy="427.9" r="23.9"/>
				<path id="XMLID_478_" class="st5" d="M501.9,404.1c-1.4,0-2.7,0.1-4,0.3c11.3,1.9,19.9,11.7,19.9,23.5s-8.6,21.6-19.9,23.5
					c1.3,0.2,2.6,0.3,4,0.3c13.2,0,23.9-10.7,23.9-23.9C525.7,414.7,515,404.1,501.9,404.1z"/>
			</g>
			<path id="XMLID_476_" class="st5" d="M491,406.7c0,0,14.9,3.7,21.3,2.1l0.4-1.2L491,406.7z"/>
		</g>
		<polygon id="XMLID_483_" class="st6" points="457.6,406.1 457.3,407.4 464.3,408.8 468.9,413.7 467.1,414.7 467.9,415.5 
			469.9,414.8 484.1,420 484.9,417.4 470.7,413.4 465.5,407.6 465.3,402.8 464.2,402.8 464,406.7 		"/>
		<g id="XMLID_480_">
			<circle id="XMLID_482_" class="st4" cx="501.9" cy="389.7" r="16.2"/>
			<path id="XMLID_481_" class="st5" d="M501.9,373.4c-1.1,0-2.1,0.1-3.1,0.3c7.5,1.4,13.2,8,13.2,16c0,7.9-5.7,14.5-13.2,16
				c1,0.2,2,0.3,3.1,0.3c9,0,16.2-7.3,16.2-16.2C518.1,380.7,510.8,373.4,501.9,373.4z"/>
		</g>
		<g id="XMLID_472_">
			<path id="XMLID_474_" class="st7" d="M512.7,407.6c-10.6,0-10.6-0.8-21.1-0.8c-1.3,0-2.7-1-2.3-2.3c0.5-1.6-0.3-2.5,1.4-2.7
				c11.5-1.5,11.7-2.4,23.1-0.8c1.7,0.2,0,2.2,0.5,3.8C514.6,406,514.1,407.6,512.7,407.6z"/>
			<path id="XMLID_473_" class="st7" d="M503.4,421.4c1.1,0.1,2.8-0.7,3.9-0.7s2.2,1.3,3.3,1.3c0.6,0,1-0.3,1.5-0.6
				c0.7-0.4,1.2-1.2,1.3-2c0.2-1.7,0.8-3.3,0.7-5c-0.2-2.2-1.6-4.3-1.8-6.6c-0.2-2.2,0.9-4.7,0.7-6.9c-0.6,0-1.8,0.9-2.4,0.9
				s-1.2-1.2-1.8-1.2c-0.6,0-0.6,0.8-1.2,0.8c-0.2,2.2-1.7,4.1-2,6.3c-0.3,2.2,0.7,4.6,0.3,6.8C505.4,416.9,503.8,419.2,503.4,421.4
				z"/>
		</g>
		<g id="XMLID_461_">
			<circle id="XMLID_468_" cx="494.1" cy="419.1" r="2.3"/>
			<circle id="XMLID_465_" cx="493.7" cy="428.3" r="2.3"/>
			<circle id="XMLID_462_" cx="494.1" cy="437.6" r="2.3"/>
		</g>
		<g id="XMLID_456_">
			<polygon id="XMLID_460_" class="st5" points="500.1,388.7 502.4,390.9 499.3,392.3 			"/>
			<path id="XMLID_457_" class="st8" d="M498.7,388.3l-9,0.7l8.4,3.2c1.2,0.5,2.5-0.3,2.7-1.6l0,0C501,389.3,500,388.2,498.7,388.3z
				"/>
		</g>
		<polygon id="XMLID_454_" class="st6" points="528.4,417.6 529.7,416.8 529.7,416.8 531.6,415.7 540.4,410.4 546.5,411.9 
			547.2,410.5 541.7,409.2 544.7,406.1 543.9,405.2 539.4,409.5 532.7,412.9 533.2,411.4 531.8,411.3 530.8,413.9 527.8,415.4 
			518.9,416.1 518.9,419.4 		"/>
		<g id="XMLID_447_">
			<circle id="XMLID_451_" cx="496.6" cy="385.8" r="1.8"/>
			<circle id="XMLID_448_" cx="503.4" cy="386.1" r="2.3"/>
		</g>
		<g id="XMLID_431_">
			<g id="XMLID_439_">
				<path id="XMLID_443_" d="M515.4,379.2l-18.1-5.4l3.8-8.2c0.8-1.8,2.9-2.7,4.8-2.2l8.1,2.4c1.9,0.6,3.1,2.5,2.8,4.4L515.4,379.2z
					"/>
				<path id="XMLID_440_" d="M516.8,370.3c0.3-2-0.9-3.9-2.8-4.4l-3.9-1.2c1.9,0.6,3.1,2.5,2.8,4.4l-1.4,8.9l3.9,1.2L516.8,370.3z"
					/>
			</g>
			<g id="XMLID_432_">
				<path id="XMLID_436_" d="M519.1,383.5l-27.3-8.2c-0.8-0.2-1.3-1.1-1-1.9l0,0c0.2-0.8,1.1-1.3,1.9-1l27.3,8.2
					c0.8,0.2,1.3,1.1,1,1.9l0,0C520.8,383.3,519.9,383.7,519.1,383.5z"/>
				<path id="XMLID_433_" d="M520,380.6l-6.1-1.8c0.8,0.2,1.3,1.1,1,1.9c-0.2,0.8-1.1,1.3-1.9,1l6.1,1.8c0.8,0.2,1.6-0.2,1.9-1
					C521.2,381.7,520.8,380.8,520,380.6z"/>
			</g>
		</g>
	</g>
	<path id="XMLID_17_" class="st9" d="M489.8,388.7h9.3c0,0,5.5,3.8-1.5,3.3S489.8,388.7,489.8,388.7z"/>
	<g id="XMLID_57_">
		<path id="XMLID_55_" class="st3" d="M439.4,388.8h2.2c0.8,0.3,0.8,1.2,0.8,1.9c-0.1,8-0.1,16,0,23.9c3.3-3.9,6.6-7.7,9.8-11.6
			c0.4-0.4,0.7-1,1.3-1c2,0,3.9,0,5.9,0c-3.6,3.9-7.2,7.7-10.8,11.6c3.9,5.2,7.8,10.4,11.7,15.7c0.2,0.3,0.3,0.6,0.3,1
			c-1.6,0-3.2,0-4.8,0c-0.7,0-1.3-0.2-1.7-0.7c-3-4.2-6.1-8.4-9.1-12.6c-1,0.9-2.1,1.9-2.5,3.3c-0.2,0.7-0.2,1.5-0.1,2.2
			c0.2,1.2,0,2.4,0,3.6c0,1,0.1,2.1-0.1,3.1c-0.1,0.5-0.4,0.9-0.9,1c-1,0.2-2,0.1-3,0.1c-0.4,0-1-0.1-1.2-0.6
			c-0.2-0.9-0.1-1.8-0.1-2.6c0-7.6,0-15.1,0-22.7c0-4.6,0-9.2,0.1-13.8c0-0.5,0.1-1.1,0.6-1.4C438.4,388.9,438.9,388.8,439.4,388.8z
			"/>
		<g id="XMLID_79_">
			<path id="XMLID_80_" class="st3" d="M216.8,391.3c5.8-0.5,11.7-1.1,17.6-0.4c3.8,0.5,7.7,1.6,10.8,4c3.4,2.6,5.5,6.6,6.1,10.8
				c0.8,5.5,0.2,11.5-3,16.2c-2.1,3.3-5.3,5.7-9,6.9c-6.7,2.3-13.8,2.1-20.7,1.5c-0.7-0.1-1.5,0-1.9-0.6v-37.8
				C216.7,391.7,216.8,391.4,216.8,391.3z M225.7,398c0,8.5,0,16.9,0,25.4c0.8,0,1.6,0,2.3,0c2.9,0.1,5.9-0.2,8.4-1.7
				c2.4-1.4,4.2-3.9,4.8-6.7c0.7-2.8,0.8-5.8,0.3-8.7c-0.5-2.8-2.1-5.5-4.6-7C233.7,397.3,229.5,397.2,225.7,398z"/>
		</g>
		<g id="XMLID_75_">
			<path id="XMLID_76_" class="st3" d="M354.8,390.9c5.3-0.5,10.7-0.6,15.9,1c3.8,1.2,7.3,3.6,9.4,7.1c2.4,4,2.9,8.9,2.5,13.4
				c-0.4,4.6-2.2,9.1-5.5,12.4c-2.5,2.6-5.9,4-9.3,4.8c-5.4,1.3-11,0.9-16.5,0.5c-0.6,0-1-0.7-0.9-1.2c0-12.1,0-24.2,0-36.3
				c0-0.6,0.3-1.2,0.9-1.3C352.5,391,353.7,391,354.8,390.9z M355.8,395.2c-0.1,0.7-0.1,1.5-0.1,2.2c0,9.3,0,18.6,0,27.9
				c0,0.4,0.3,0.8,0.7,0.9c3.9,0.2,8,0.3,11.7-1.1c3.4-1.1,6.2-3.8,7.6-7c2.1-4.7,2.2-10.3,0.5-15.1c-1.2-3.2-3.9-5.7-7-6.9
				C364.9,394.4,360.2,394.6,355.8,395.2z"/>
		</g>
		<path id="XMLID_50_" class="st3" d="M302.1,401.2c2.8-0.6,5.9,0,8.3,1.5c2,1.3,3.3,3.5,3.8,5.8c0.4,2.2,0.4,4.5,0.5,6.7
			c0,4.3,0,8.6,0,12.9c0,0.6,0.2,1.4-0.3,1.9c-0.5,0.3-1.2,0.2-1.8,0.2c-2.3,0-4.6,0-6.8,0c0-4.6,0-9.2,0-13.7
			c-0.1-2.1,0.1-4.3-0.9-6.2c-0.9-1.7-3.2-2.5-5-1.8c-2,0.7-3.2,2.9-3.3,5c0,3.8,0,7.7,0,11.5c0.1,1.3,0.1,2.7,0,4
			c0,0.6-0.5,1.2-1.2,1.2c-1.8-0.1-3.6-0.1-5.4,0c-0.6,0-1.3,0.2-2-0.1c-0.4-0.2-0.5-0.7-0.6-1.1c-0.1-3.2,0.1-6.3,0-9.5
			c0-6,0-11.9,0-17.9c2.2,0,4.4,0,6.6,0c0.6-0.1,1,0.5,1.1,1c0.2,0.9,0.2,1.8,0.3,2.7C297.4,403.4,299.6,401.8,302.1,401.2z"/>
		<g id="XMLID_70_">
			<path id="XMLID_71_" class="st3" d="M324.9,403.4c2.3-1.6,5.2-2.4,8-2.4s5.8,0.7,8.1,2.4c1.5,1.1,2.6,2.7,3.5,4.4
				c1.6,3.2,1.7,6.9,1.3,10.4c0,0.3-0.3,0.7-0.6,0.7c-5.9,0-11.9,0-17.8,0c0.2,1.3,0.7,2.5,1.8,3.3c1.5,1.2,3.4,1.8,5.3,1.9
				c3,0.2,6-0.4,8.9-1c0.3,1.8,0.8,3.6,1,5.4c0.1,0.5-0.4,0.8-0.8,0.9c-2.2,0.7-4.5,1.2-6.7,1.4h-4.6c-4.2-0.5-8.7-2.1-11.1-5.8
				c-1.8-2.6-2.3-5.9-2.3-9c0-1.8,0.3-3.7,0.9-5.4C320.6,407.7,322.5,405.2,324.9,403.4z M330,407.8c-1.7,1-2.5,3-2.7,4.8
				c3.4,0,6.8,0,10.2,0c0.1-1.9-0.6-3.9-2.3-4.9C333.7,406.7,331.6,406.8,330,407.8z"/>
		</g>
		<g id="XMLID_66_">
			<path id="XMLID_67_" class="st3" d="M258.5,404.5c2.8-2.6,6.7-3.5,10.4-3.5c3.9-0.1,8,1.3,10.8,4.1c2.7,2.6,4,6.4,3.9,10.1
				c0,4.2-1.3,8.6-4.3,11.6c-2.5,2.5-5.9,3.7-9.4,3.9h-2.5c-3.2-0.2-6.6-1.1-9-3.4c-2.7-2.4-4.1-6-4.7-9.5
				C253,413,255,407.9,258.5,404.5z M267.7,407.6c-1.5,0.3-2.8,1.4-3.3,2.8c-1.7,3.5-1.4,7.7,0.1,11.3c1.1,2.7,5,3.5,7.3,1.7
				c1.2-0.9,1.8-2.4,2.2-3.8c0.8-2.4,0.7-5.1,0-7.5c-0.4-1.3-1-2.8-2.1-3.7C270.6,407.5,269,407.3,267.7,407.6z"/>
		</g>
		<g id="XMLID_62_">
			<path id="XMLID_63_" class="st3" d="M392.1,403.2c2.9-1.9,6.6-2.4,9.9-1.6c2.8,0.7,5.3,2.4,6.7,4.9c1.7,3.2,2.4,6.9,1.7,10.5
				c-6.5,0-12.9,0-19.4,0c-0.7,4.2,2.5,8.5,6.7,9.3c3.5,0.7,7.1,0.1,10.4-1.1c0.5,1.1,0.8,2.2,0.9,3.3c0.1,0.6-0.6,0.8-1,0.9
				c-1.9,0.5-3.9,1-5.8,1.2H398c-3.1-0.4-6.3-1.4-8.6-3.8c-2-2-2.9-4.8-3.5-7.5c-0.7-3.5-0.3-7.3,1.3-10.6
				C388.4,406.7,389.9,404.6,392.1,403.2z M393.4,407.4c-1.5,1.5-2.2,3.7-2.5,5.8c4.9,0,9.8,0,14.7,0c0.1-1.5-0.1-3-0.7-4.3
				c-0.9-1.9-2.7-3.2-4.6-3.7C397.7,404.6,395.1,405.6,393.4,407.4z"/>
		</g>
		<path id="XMLID_14_" class="st3" d="M417.1,403.7c1.8-1.6,4.2-2.2,6.6-2.3c2.6-0.1,5.3,0.4,7.5,1.8c-0.4,1.1-0.8,2.2-1.2,3.4
			c-2.7-0.5-5.5-1.9-8.2-0.8c-1.8,0.6-2.9,2.8-2.1,4.6c0.7,1.7,2.6,2.3,4.2,3.1c1.8,0.9,3.7,1.6,5.3,2.8c1.5,1.1,2.6,2.8,2.9,4.7
			c0.3,2.4-0.2,5.1-1.9,6.9c-1.8,2-4.6,2.7-7.2,3h-3c-1.8-0.2-3.5-0.6-5.1-1.3c-0.4-0.1-0.7-0.3-1-0.6c-0.1-0.4,0-0.9,0.1-1.3
			c0.3-0.8,0.6-1.7,0.9-2.6c0.9,0.3,1.7,0.7,2.6,1c2.1,0.8,4.3,0.8,6.5,0.5c1.1-0.1,2.1-0.7,2.6-1.7c0.9-1.7,0.7-4.3-1.1-5.3
			c-2.5-1.5-5.3-2.4-7.8-4c-1.4-0.9-2.6-2.4-3-4.1C414,408.7,415,405.6,417.1,403.7z"/>
	</g>
</g>
</svg>
