<?xml version="1.0" encoding="utf-8"?>
<!-- Generator: Adobe Illustrator 19.0.0, SVG Export Plug-In . SVG Version: 6.00 Build 0)  -->
<svg version="1.1" id="Layer_1" xmlns="http://www.w3.org/2000/svg" xmlns:xlink="http://www.w3.org/1999/xlink" x="0px" y="0px"
	 viewBox="0 0 150 39" style="enable-background:new 0 0 150 39;" xml:space="preserve">
<style type="text/css">
	.st0{fill:#FFFFFF;}
	.st1{fill:#E0E0E0;}
	.st2{fill:#833729;}
	.st3{fill:#E64636;}
	.st4{display:none;fill:#F7890B;}
	.st5{fill:#F7890B;}
</style>
<path id="XMLID_61_" class="st0" d="M33.6,0h-29C2.1,0,0,2.1,0,4.6V27c0,2.5,2.1,4.6,4.6,4.6h0.9v7.1l8.1-7.1h20
	c2.5,0,4.6-2.1,4.6-4.6V4.6C38.2,2.1,36.1,0,33.6,0z M30.8,10.8c-4.4,4.9-8.7,9.9-13.1,14.8c-0.3,0.3-0.5,0.4-0.8,0.1
	c-2-1.8-4-3.5-5.9-5.3c-1.4-1.2-2.7-2.4-4.1-3.6c-0.1-0.1-0.3-0.3-0.5-0.5c1.4-1.6,2.7-3.1,4.1-4.7c1.4,1.3,2.8,2.5,4.2,3.7
	c0.5,0.5,1.1,0.9,1.6,1.4c0.3,0.3,0.6,0.2,0.8-0.1c1.3-1.5,2.6-2.9,3.9-4.4c2.3-2.5,4.5-5.1,6.8-7.6C28,4.4,28,4.4,28.2,4.2
	c1.6,1.4,3.1,2.8,4.7,4.2C32.2,9.2,31.5,10,30.8,10.8z"/>
<g id="XMLID_15_">
	<g id="XMLID_475_">
		<g id="XMLID_477_">
			<circle id="XMLID_37_" cx="134.1" cy="8.9" r="5.3"/>
			<circle id="XMLID_36_" cx="134.1" cy="21.5" r="7.8"/>
			<circle id="XMLID_479_" class="st0" cx="135.1" cy="21.5" r="7.8"/>
			<path id="XMLID_478_" class="st1" d="M135.1,13.7c-0.4,0-0.9,0-1.3,0.1c3.7,0.6,6.5,3.8,6.5,7.7c0,3.9-2.8,7.1-6.5,7.7
				c0.4,0.1,0.9,0.1,1.3,0.1c4.3,0,7.8-3.5,7.8-7.8C142.9,17.2,139.4,13.7,135.1,13.7z"/>
		</g>
		<path id="XMLID_476_" class="st1" d="M131.5,14.5c0,0,4.9,1.2,7,0.7l0.1-0.4L131.5,14.5z"/>
	</g>
	<polygon id="XMLID_483_" class="st2" points="120.5,14.3 120.4,14.7 122.7,15.2 124.3,16.8 123.7,17.2 123.9,17.4 124.6,17.2 
		129.3,18.9 129.5,18.1 124.9,16.7 123.1,14.8 123.1,13.2 122.7,13.2 122.7,14.5 	"/>
	<g id="XMLID_480_">
		<circle id="XMLID_482_" class="st0" cx="135.1" cy="8.9" r="5.3"/>
		<path id="XMLID_481_" class="st1" d="M135.1,3.6c-0.3,0-0.7,0-1,0.1c2.5,0.5,4.3,2.6,4.3,5.2c0,2.6-1.9,4.8-4.3,5.2
			c0.3,0.1,0.7,0.1,1,0.1c2.9,0,5.3-2.4,5.3-5.3S138,3.6,135.1,3.6z"/>
	</g>
	<g id="XMLID_472_">
		<path id="XMLID_474_" class="st3" d="M138.7,14.8c-3.5,0-3.5-0.3-6.9-0.3c-0.4,0-0.9-0.3-0.8-0.7c0.2-0.5-0.1-0.8,0.5-0.9
			c3.8-0.5,3.8-0.8,7.6-0.3c0.5,0.1,0,0.7,0.2,1.2C139.3,14.3,139.1,14.8,138.7,14.8z"/>
		<path id="XMLID_473_" class="st3" d="M135.6,19.4c0.4,0,0.9-0.2,1.3-0.2c0.4,0,0.7,0.4,1.1,0.4c0.2,0,0.3-0.1,0.5-0.2
			c0.2-0.1,0.4-0.4,0.4-0.7c0.1-0.5,0.3-1.1,0.2-1.6c-0.1-0.7-0.5-1.4-0.6-2.2c-0.1-0.7,0.3-1.5,0.2-2.3c-0.2,0-0.6,0.3-0.8,0.3
			c-0.2,0-0.4-0.4-0.6-0.4c-0.2,0-0.2,0.3-0.4,0.3c-0.1,0.7-0.6,1.4-0.7,2.1c-0.1,0.7,0.2,1.5,0.1,2.2
			C136.2,17.9,135.7,18.6,135.6,19.4z"/>
	</g>
	<g id="XMLID_461_">
		<circle id="XMLID_468_" cx="132.5" cy="18.6" r="0.8"/>
		<circle id="XMLID_465_" cx="132.4" cy="21.6" r="0.8"/>
		<circle id="XMLID_462_" cx="132.5" cy="24.7" r="0.8"/>
	</g>
	<g id="XMLID_456_">
		<polygon id="XMLID_460_" class="st1" points="134.5,8.6 135.3,9.3 134.2,9.8 		"/>
		<path id="XMLID_457_" class="st4" d="M134,8.5l-3,0.2l2.8,1.1c0.4,0.2,0.8-0.1,0.9-0.5l0,0C134.8,8.8,134.5,8.4,134,8.5z"/>
	</g>
	<polygon id="XMLID_454_" class="st2" points="143.8,18.1 144.2,17.8 144.2,17.8 144.9,17.5 147.7,15.8 149.7,16.2 150,15.8 
		148.2,15.3 149.2,14.3 148.9,14 147.4,15.4 145.2,16.6 145.4,16.1 144.9,16 144.6,16.9 143.6,17.4 140.7,17.6 140.7,18.7 	"/>
	<g id="XMLID_447_">
		<circle id="XMLID_451_" cx="133.4" cy="7.7" r="0.6"/>
		<circle id="XMLID_448_" cx="135.6" cy="7.7" r="0.8"/>
	</g>
	<g id="XMLID_431_">
		<g id="XMLID_439_">
			<path id="XMLID_443_" d="M139.5,5.5l-5.9-1.8l1.2-2.7c0.3-0.6,0.9-0.9,1.6-0.7l2.7,0.8c0.6,0.2,1,0.8,0.9,1.5L139.5,5.5z"/>
			<path id="XMLID_440_" d="M140,2.6c0.1-0.6-0.3-1.3-0.9-1.5l-1.3-0.4c0.6,0.2,1,0.8,0.9,1.5l-0.5,2.9l1.3,0.4L140,2.6z"/>
		</g>
		<g id="XMLID_432_">
			<path id="XMLID_436_" d="M140.8,6.9l-9-2.7c-0.3-0.1-0.4-0.4-0.3-0.6l0,0c0.1-0.3,0.4-0.4,0.6-0.3l9,2.7c0.3,0.1,0.4,0.4,0.3,0.6
				l0,0C141.3,6.8,141,7,140.8,6.9z"/>
			<path id="XMLID_433_" d="M141,5.9l-2-0.6c0.3,0.1,0.4,0.4,0.3,0.6c-0.1,0.3-0.4,0.4-0.6,0.3l2,0.6c0.3,0.1,0.5-0.1,0.6-0.3
				C141.5,6.3,141.3,6,141,5.9z"/>
		</g>
	</g>
</g>
<path id="XMLID_17_" class="st5" d="M131.1,8.6h3c0,0,1.8,1.2-0.5,1.1C131.4,9.5,131.1,8.6,131.1,8.6z"/>
<path id="XMLID_20_" class="st0" d="M123.3,12.4c-0.7,0-1.4,0-2,0c-0.1,0-0.2,0.2-0.3,0.3c-1.1,1.3-2.1,2.5-3.3,3.9
	c0-0.3,0-0.4,0-0.6c0-2.5,0-5,0-7.5c0-0.4-0.1-0.5-0.5-0.5c-1.1,0-1.2,0-1.2,1.2c0,4,0,8,0,12c0,0.3,0.1,0.5,0.5,0.5
	c1.3,0,1.3,0,1.2-1.2c0-0.5,0.1-1,0-1.5c-0.1-0.8,0.3-1.3,0.9-1.7c0.6,0.8,1.2,1.7,1.8,2.5c0.4,0.5,0.8,1,1.1,1.6
	c0.2,0.2,0.4,0.3,0.6,0.3c0.5,0,1,0,1.6,0c0-0.1,0-0.1,0-0.2c-1.3-1.8-2.6-3.5-4-5.3C120.9,15,122.1,13.8,123.3,12.4z"/>
<path id="XMLID_16_" class="st0" d="M43.2,8.9c0.8-0.1,1.7-0.1,2.6-0.2c1.4-0.1,2.9-0.1,4.3,0.2c2.7,0.6,4.3,2.5,4.6,5.2
	c0.2,2-0.2,4-1.6,5.5c-0.9,1-2.2,1.6-3.5,1.9c-2,0.4-4,0.3-6,0.1c-0.2,0-0.3-0.1-0.3-0.4c0-4.1,0-8.1,0-12.2
	C43.2,9.1,43.2,9,43.2,8.9z M46.2,19.5c0.6,0,1.2,0,1.8,0c1.7-0.2,3-1.2,3.3-2.8c0.2-0.8,0.2-1.6,0.1-2.4c-0.2-2.9-2.9-3.7-5.3-3.2
	C46.2,13.9,46.2,16.7,46.2,19.5z"/>
<path id="XMLID_11_" class="st0" d="M60.5,12.1c2.8,0,4.8,1.9,4.8,4.6c0,3.1-1.9,5.2-4.8,5.2c-2,0-3.7-0.6-4.5-2.5
	c-0.9-1.9-0.8-3.9,0.6-5.6C57.5,12.5,58.9,12.1,60.5,12.1z M58.9,18.9c0.3,0.6,0.8,0.9,1.5,0.9c0.7,0,1.2-0.4,1.4-1
	c0.5-1.2,0.5-2.4,0-3.6c-0.3-0.6-0.7-0.9-1.4-1c-0.7,0-1.2,0.3-1.5,0.9C58.2,16.7,58.7,18.3,58.9,18.9z"/>
<path id="XMLID_10_" class="st0" d="M66.6,12.3c0.8,0,1.5,0,2.3,0c0.1,0,0.2,0.2,0.3,0.3c0.1,0.3,0.1,0.6,0.1,0.9
	c0.2-0.2,0.4-0.4,0.6-0.6c1.1-0.9,2.3-1.1,3.7-0.6c1.3,0.5,1.9,1.6,2,2.9c0.1,1.4,0.1,2.8,0.1,4.3c0,0.6,0,1.2,0,1.8
	c0,0.3-0.1,0.4-0.4,0.4c-0.8,0-1.7,0-2.5,0c0-0.2,0-0.4,0-0.5c0-1.5,0-3,0-4.5c0-0.4,0-0.9-0.2-1.3c-0.3-0.9-1.6-1.2-2.3-0.5
	c-0.4,0.4-0.6,0.9-0.6,1.4c0,1.6,0,3.2,0,4.9c0,0.4-0.1,0.6-0.5,0.5c-0.6,0-1.3,0-1.9,0c-0.4,0-0.5-0.1-0.5-0.5c0-2.2,0-4.4,0-6.6
	C66.6,13.9,66.6,13.1,66.6,12.3z"/>
<path id="XMLID_7_" class="st0" d="M79.7,18c0.1,0.6,0.4,1,0.8,1.3c0.9,0.5,1.9,0.5,2.9,0.4c0.5-0.1,1-0.2,1.5-0.3
	c0.1,0.6,0.2,1.2,0.3,1.8c0,0.1-0.1,0.2-0.2,0.3c-1.9,0.6-3.7,0.8-5.6,0c-1.4-0.6-2.3-1.7-2.5-3.3c-0.3-2,0.1-3.8,1.8-5.2
	c1.6-1.3,4.7-1.4,6.1,0.5c0.8,1.1,1.1,2.4,1,3.7c-0.1,0.9,0,0.7-0.8,0.7c-1.6,0-3.3,0-4.9,0C80,18,79.9,18,79.7,18z M83.1,15.9
	c0-0.7-0.2-1.3-0.8-1.6c-0.6-0.3-1.2-0.3-1.7,0c-0.6,0.4-0.8,0.9-0.9,1.6C80.9,15.9,82,15.9,83.1,15.9z"/>
<path id="XMLID_4_" class="st0" d="M87.4,15.3c0-1.9,0-3.9,0-5.8c0-0.4,0.1-0.6,0.5-0.6c1.8-0.2,3.5-0.3,5.3,0
	c2.9,0.6,4.7,2.5,4.8,5.5c0.1,1.9-0.2,3.7-1.5,5.3c-0.9,1.1-2.2,1.7-3.6,2c-1.7,0.4-3.4,0.3-5.1,0.1c-0.3,0-0.4-0.2-0.4-0.5
	C87.4,19.2,87.4,17.3,87.4,15.3z M89.1,10.2c0,0.1,0,0.2,0,0.2c0,3.2,0,6.5,0,9.7c0,0.3,0.1,0.4,0.4,0.4c0.7,0,1.4,0.1,2.1,0
	c1.9-0.2,3.4-0.9,4.2-2.7c0.6-1.5,0.7-3,0.3-4.5c-0.4-1.4-1.3-2.3-2.6-2.8C92,9.9,90.6,10,89.1,10.2z"/>
<path id="XMLID_1_" class="st0" d="M106.4,20.2C106.4,20.2,106.4,20.2,106.4,20.2c0.4,1.4,0.5,1.2-0.8,1.5c-1.1,0.3-2.3,0.4-3.5,0
	c-1.3-0.4-2.3-1.2-2.8-2.5c-0.7-2-0.5-4,0.9-5.7c1.4-1.8,4.4-1.9,5.9-0.3c0.9,0.9,1.3,2.8,1,4.1c-2.1,0-4.3,0-6.4,0
	c-0.3,1.4,0.8,2.9,2.3,3.1c1,0.2,2,0.1,3-0.3C106.1,20.2,106.2,20.2,106.4,20.2C106.3,20.2,106.4,20.2,106.4,20.2z M105.6,16.1
	c0-0.9-0.2-1.8-1-2.3c-0.8-0.6-1.7-0.6-2.5-0.1c-0.9,0.5-1.2,1.4-1.4,2.3C102.3,16.1,103.9,16.1,105.6,16.1z"/>
<path id="XMLID_95_" class="st0" d="M114,12.8c-0.1,0.4-0.3,0.7-0.4,1.1c-0.6-0.1-1.2-0.3-1.8-0.4c-0.3,0-0.6,0-0.9,0.1
	c-0.9,0.3-1.1,1.4-0.3,2c0.4,0.3,0.8,0.4,1.2,0.6c0.5,0.2,1,0.5,1.4,0.7c0.9,0.6,1.2,1.4,1.1,2.4c-0.1,1.1-0.7,1.8-1.7,2.2
	c-1.4,0.5-2.7,0.4-4-0.1c-0.3-0.1-0.4-0.3-0.3-0.6c0.1-0.3,0.2-0.6,0.3-0.9c0.5,0.2,1,0.4,1.5,0.5c0.5,0.1,1.1,0.1,1.6,0
	c0.5-0.1,0.9-0.5,0.9-1c0.1-0.5,0-1-0.5-1.3c-0.4-0.3-0.9-0.5-1.4-0.7c-0.4-0.2-0.8-0.4-1.2-0.7c-1.6-1.1-1.2-3.2,0.2-4.1
	C110.8,12,112.9,12.1,114,12.8z"/>
</svg>
