<svg id="Layer_1" data-name="Layer 1" xmlns="http://www.w3.org/2000/svg" viewBox="0 0 552.5 121.86"><defs><style>.cls-1{fill:#fff;}</style></defs><title>DoneDeskDD_Bug copy</title><path class="cls-1" d="M123.11,18.84a2,2,0,0,0-2-1.94l-83.06.68a2,2,0,0,0-1.94,2l.62,76.37a2,2,0,0,0,2,1.94l14.56-.12.13,16.52a2.08,2.08,0,0,0,3.49,1.51L76.61,97.55l45.19-.37a2,2,0,0,0,1.94-2ZM108.93,45.67,74.21,81a1.47,1.47,0,0,1-2.09,0L51.53,60.72a1.47,1.47,0,0,1,0-2.08L60,50a1.47,1.47,0,0,1,2.08,0L72.35,60a1.47,1.47,0,0,0,2.14-.07L97.24,34.28a1.46,1.46,0,0,1,2.13-.07l9.54,9.38A1.47,1.47,0,0,1,108.93,45.67Z"/><path class="cls-1" d="M213.21,56.86C213.21,73.08,202.66,86,182.7,86H166.31a1.18,1.18,0,0,1-1.24-1.25V29a1.17,1.17,0,0,1,1.24-1.24H182.7C202.66,27.76,213.21,40.64,213.21,56.86Zm-11.55,0c0-12-6.32-19-19-19h-6.23V75.9h6.23C195.34,75.9,201.66,68.84,201.66,56.86Z"/><path class="cls-1" d="M219.26,65.59A21.12,21.12,0,1,1,240.37,86.8,21.08,21.08,0,0,1,219.26,65.59Zm31.68,0c0-6.48-4.74-11.14-10.57-11.14s-10.55,4.66-10.55,11.14,4.65,11.06,10.55,11.06S250.94,72,250.94,65.59Z"/><path class="cls-1" d="M307.37,61.52v23.2A1.18,1.18,0,0,1,306.12,86h-8.48a1.18,1.18,0,0,1-1.25-1.25V63.51c0-6.73-3.66-9.06-7.65-9.06-6.15,0-9,6.07-9,8V84.72A1.18,1.18,0,0,1,278.51,86H270a1.18,1.18,0,0,1-1.26-1.25V46.47A1.18,1.18,0,0,1,270,45.22h8.13a1.23,1.23,0,0,1,1.26,1.25l.33,5.32v.08c2.66-4.32,7-7.57,12.89-7.57C301,44.3,307.37,50.62,307.37,61.52Z"/><path class="cls-1" d="M351.66,69.42H325.55c1.16,5.24,5.32,8.23,11.64,8.23a14,14,0,0,0,8.65-2.83c.74-.5,1.25-.5,1.83.08l3.66,3.58a1.14,1.14,0,0,1-.09,1.83,21.22,21.22,0,0,1-15.13,6.23c-12.73,0-21.46-9.39-21.46-21.11s8.73-21,20.54-21,19.37,9.31,19.37,20.12C354.56,67.76,354.15,69.42,351.66,69.42Zm-26.28-7.16h19.46c-.83-5.48-4.74-8.47-9.57-8.47C330.28,53.79,326.38,56.78,325.38,62.26Z"/><path class="cls-1" d="M408.67,56.86c0,16.38-10.32,29.11-30.52,29.11H364.27A1.18,1.18,0,0,1,363,84.72V29a1.17,1.17,0,0,1,1.25-1.24h13.88C398.35,27.76,408.67,40.48,408.67,56.86Zm-7.9,0c0-13.72-7.48-22-22.62-22h-7.4V78.89h7.4C393.29,78.89,400.77,70.58,400.77,56.86Z"/><path class="cls-1" d="M454.55,64c0,2.91-.33,4.33-2.5,4.33H422.62c1.07,6.89,6.23,11.73,14.3,11.73a15.91,15.91,0,0,0,10.47-3.58c.59-.5,1.08-.67,1.75-.08l2.16,2a1.2,1.2,0,0,1,0,1.91,20.68,20.68,0,0,1-15.22,6.23c-12.22,0-20.78-9.39-20.78-21.11s8.32-21,20.11-21S454.55,53.7,454.55,64Zm-31.93-1.08H448c-.5-6.9-5.58-12-12.57-12S423.44,55.86,422.62,62.93Z"/><path class="cls-1" d="M490.1,75.08c0,7.23-7.31,11.72-14.47,11.72A20.25,20.25,0,0,1,460.42,80a1.07,1.07,0,0,1-.09-1.58l2.16-2.91c.59-.67,1.08-.5,1.83.08,2.42,2,6.41,4.74,11.07,4.74,4.24,0,7.4-1.83,7.4-5.32,0-8.89-21.63-5.57-21.63-19.21,0-6.9,6.07-11.48,13.39-11.48a18.15,18.15,0,0,1,13.3,6.16,1.26,1.26,0,0,1-.08,1.74l-1.91,2.41c-.49.67-1.16.51-1.82-.08-3.25-2.58-5.66-4-9.24-4-2.91,0-6.48,1.41-6.48,5.24C468.32,64.26,490.1,60.52,490.1,75.08Z"/><path class="cls-1" d="M533.23,86h-5.48a1.61,1.61,0,0,1-1.51-.76l-14-18.12L505,74.57V84.72A1.18,1.18,0,0,1,503.8,86h-5a1.18,1.18,0,0,1-1.25-1.25V26.51a1.18,1.18,0,0,1,1.25-1.25h5A1.18,1.18,0,0,1,505,26.51V65.68l18.72-19.8a1.81,1.81,0,0,1,1.49-.66h5.65c1.09,0,1.42.66.67,1.5L516.68,62.35,534,84.47C534.56,85.3,534.23,86,533.23,86Z"/></svg>